<svg xmlns="http://www.w3.org/2000/svg" viewBox="0 0 1000.75 114.75"><defs><style>.cls-1{fill:#231f20;}.cls-2{fill:#f16128;}.cls-3{fill:#ff9600;}.cls-4{fill:none;stroke:#b3b3b3;stroke-miterlimit:10;stroke-width:5px;}</style></defs><title>mobgen-accenture-interactive-logo_white</title><g id="Layer_2" data-name="Layer 2"><g id="Layer_1-2" data-name="Layer 1"><path class="cls-1" d="M788.67,16.77a13.75,13.75,0,0,1,5.47,1.09,14.3,14.3,0,0,1,7.57,7.55,13.76,13.76,0,0,1,1.09,5.47V97.81H795V30.89a6.24,6.24,0,0,0-6.15-6.32h-.18a6,6,0,0,0-4.38,1.82,6.12,6.12,0,0,0-1.82,4.5V97.81h-7.8V30.89a6.24,6.24,0,0,0-6.15-6.32h-.18a6,6,0,0,0-4.38,1.82,6.12,6.12,0,0,0-1.82,4.5V97.81h-7.79V30.89a13.75,13.75,0,0,1,1.09-5.47,14.23,14.23,0,0,1,3.1-4.49,14.44,14.44,0,0,1,4.44-3,13.31,13.31,0,0,1,5.4-1.09,13.83,13.83,0,0,1,10.22,4.38,13.94,13.94,0,0,1,4.56-3.23A13.55,13.55,0,0,1,788.67,16.77Z"/><path class="cls-1" d="M826.75,16.77a13.32,13.32,0,0,1,5.4,1.09,14.49,14.49,0,0,1,4.44,3,14.27,14.27,0,0,1,3,4.5,13.76,13.76,0,0,1,1.09,5.47V83.82a13.32,13.32,0,0,1-1.09,5.4,14.65,14.65,0,0,1-7.49,7.49,13.32,13.32,0,0,1-5.4,1.09,13.76,13.76,0,0,1-5.47-1.09,14.21,14.21,0,0,1-4.5-3,14.4,14.4,0,0,1-3-4.44,13.31,13.31,0,0,1-1.09-5.4V30.89a13.75,13.75,0,0,1,1.09-5.47,14.3,14.3,0,0,1,7.56-7.55A13.75,13.75,0,0,1,826.75,16.77Zm0,73.25a6.23,6.23,0,0,0,6.2-6.2V30.89a6.12,6.12,0,0,0-1.82-4.5,6,6,0,0,0-4.38-1.82,6.23,6.23,0,0,0-6.32,6.13h0q0,.09,0,.19V83.82a6,6,0,0,0,1.82,4.38A6.12,6.12,0,0,0,826.75,90Z"/><path class="cls-1" d="M864.72,16.77a13.32,13.32,0,0,1,5.4,1.09,14.48,14.48,0,0,1,4.44,3,14.26,14.26,0,0,1,3,4.5,13.75,13.75,0,0,1,1.09,5.47V47.19a13.55,13.55,0,0,1-1.15,5.53,13.92,13.92,0,0,1-3.23,4.56,13.84,13.84,0,0,1,4.39,10.21V83.8a13.31,13.31,0,0,1-1.09,5.4,14.65,14.65,0,0,1-7.49,7.49,13.32,13.32,0,0,1-5.4,1.09H850.59v-81Zm0,36.62a6.23,6.23,0,0,0,6.2-6.2V30.89a6.12,6.12,0,0,0-1.82-4.5,6,6,0,0,0-4.38-1.82h-6.3V53.4Zm6.2,14.1A6.12,6.12,0,0,0,869.1,63a6,6,0,0,0-4.38-1.82h-6.3V90h6.32a6.23,6.23,0,0,0,6.2-6.2Z"/><path class="cls-1" d="M908.88,37.12v-6.2a6.11,6.11,0,0,0-1.82-4.5,6,6,0,0,0-4.38-1.82,6.23,6.23,0,0,0-6.32,6.13h0V83.85a6,6,0,0,0,1.82,4.38,6.12,6.12,0,0,0,4.5,1.82,6.23,6.23,0,0,0,6.2-6.2V61.19h-6.2V53.4H912.8A3.75,3.75,0,0,1,916.69,57V83.82a13.32,13.32,0,0,1-1.09,5.4,14.65,14.65,0,0,1-7.49,7.49,13.32,13.32,0,0,1-5.4,1.09,13.76,13.76,0,0,1-5.47-1.09,14.21,14.21,0,0,1-4.5-3,14.4,14.4,0,0,1-3-4.44,13.31,13.31,0,0,1-1.09-5.4V30.89a13.75,13.75,0,0,1,1.09-5.47,14.3,14.3,0,0,1,7.47-7.55,13.75,13.75,0,0,1,5.47-1.09,13.32,13.32,0,0,1,5.4,1.09,14.49,14.49,0,0,1,4.44,3,14.27,14.27,0,0,1,3,4.5,13.76,13.76,0,0,1,1.09,5.47v6.24Z"/><path class="cls-1" d="M946.83,89.9v7.79H930.4a3.68,3.68,0,0,1-2.8-1.15,3.85,3.85,0,0,1-1.09-2.74V20.67a3.75,3.75,0,0,1,3.59-3.89h16.73v7.79H934.28V53.28h12.55v7.79H934.28V89.9Z"/><path class="cls-1" d="M970,16.77a13.32,13.32,0,0,1,5.4,1.09,14.49,14.49,0,0,1,4.44,3,14.26,14.26,0,0,1,3,4.5,13.75,13.75,0,0,1,1.09,5.47V97.81h-7.8V30.89a6.12,6.12,0,0,0-1.82-4.5,6,6,0,0,0-4.38-1.82,6.24,6.24,0,0,0-6.32,6.15h0v67.1h-7.76V30.89a13.76,13.76,0,0,1,1.09-5.47,14.3,14.3,0,0,1,7.55-7.55A13.75,13.75,0,0,1,970,16.77Z"/><path class="cls-2" d="M992.5,16.62a8.25,8.25,0,1,1,8.25-8.25h0A8.26,8.26,0,0,1,992.5,16.62Zm0-13.13a4.87,4.87,0,1,0,4.87,4.87A4.87,4.87,0,0,0,992.5,3.49Z"/><path d="M16.09,32.08H30.54l15.88,49H34.85L31.47,70.18H13.76L10.38,81.07H0Zm.07,30.2H29.07L22.63,41.12Z"/><path d="M47.24,63.59V63c0-11.58,8.29-18.62,18.49-18.62,8.28,0,16,3.63,16.87,13.9H73.22C72.55,54.14,70,52.24,66,52.24c-5.14,0-8.56,3.83-8.56,10.68v.55c0,7.19,3.22,10.89,8.77,10.89a7.26,7.26,0,0,0,7.67-6.91h9c-.55,8.49-6.71,14.38-17.12,14.38S47.24,75.29,47.24,63.59Z"/><path d="M85.05,63.59V63c0-11.58,8.29-18.62,18.49-18.62,8.28,0,16,3.63,16.87,13.9H111c-.67-4.18-3.22-6.07-7.26-6.07-5.14,0-8.56,3.83-8.56,10.68v.55c0,7.19,3.22,10.89,8.77,10.89a7.26,7.26,0,0,0,7.67-6.91h9c-.55,8.49-6.71,14.38-17.12,14.38S85.05,75.29,85.05,63.59Z"/><path d="M122.89,63.59V63c0-11.3,8-18.62,18.42-18.62,9.24,0,17.46,5.4,17.46,18.22v2.74H132.93c.28,6,3.5,9.38,8.9,9.38,4.59,0,6.84-2,7.47-5h9.37c-1.17,7.74-7.32,12-17.12,12C130.74,81.8,122.89,75,122.89,63.59Zm26.22-4.31c-.34-5.4-3.08-8-7.8-8-4.45,0-7.47,2.94-8.21,8Z"/><path d="M163.55,45.23h9.93v5.68c1.78-3.56,5.68-6.51,11.64-6.51,7.05,0,12,4.25,12,13.83V81.07h-9.93V59.68c0-4.86-1.92-7.19-6.3-7.19s-7.47,2.61-7.47,7.88v20.7h-9.92Z"/><path d="M205.21,70.43V52.29h-4.59V45.23h4.59V37.5h9.86v7.74h7.52v7.05h-7.52V69.54c0,2.88,1.44,4.25,4,4.25a9.25,9.25,0,0,0,3.77-.67v7.67a18,18,0,0,1-6,1C209.25,81.74,205.21,77.9,205.21,70.43Z"/><path d="M226.53,68.31V45.23h9.86V66.94c0,4.86,2,7.19,6.23,7.19s7.47-2.6,7.47-7.88v-21H260V81.07h-9.86V75.45c-1.85,3.63-5.48,6.37-11.37,6.37C231.74,81.8,226.53,77.69,226.53,68.31Z"/><path d="M266.55,45.23h9.93V52c2.26-4.79,5.75-7.33,11.58-7.42v9.24c-7.33-.07-11.58,2.33-11.58,9.18v18h-9.93Z"/><path d="M289.69,63.59V63c0-11.3,8-18.62,18.42-18.62,9.24,0,17.46,5.4,17.46,18.22v2.74H299.74c.28,6,3.49,9.38,8.9,9.38,4.59,0,6.84-2,7.47-5h9.38c-1.16,7.74-7.32,12-17.12,12C297.56,81.8,289.69,75,289.69,63.59Zm26.22-4.31c-.34-5.4-3.08-8-7.8-8-4.45,0-7.47,2.94-8.21,8Z"/><path class="cls-3" d="M345.71,32.07h6V81h-6Z"/><path class="cls-3" d="M362.37,45.22H368V50.9c1.64-3.37,5.62-6.3,11.47-6.3,7.42,0,12.6,4,12.6,14.44v22h-5.68V58.64c0-6.3-2.7-9.11-8.42-9.11-5.27,0-10,3.37-10,9.79V81.07h-5.68Z"/><path class="cls-3" d="M402.33,72.06V50h-5.14V45.23h5.14V37.07H408v8.15h8.36V50H408v21.5c0,3.49,1.57,5.2,4.45,5.2a11.67,11.67,0,0,0,4.38-.76v4.79a13.5,13.5,0,0,1-4.86.76C405.5,81.51,402.33,77.69,402.33,72.06Z"/><path class="cls-3" d="M420.16,63.52V63c0-10.8,6.91-18.35,16.77-18.35,8.29,0,16.09,5,16.09,17.81v1.85H426c.28,8.15,4.18,12.67,11.47,12.67,5.55,0,8.77-2,9.52-6.23h5.68c-1.24,7.19-7.19,11-15.27,11C427.35,81.65,420.16,74.53,420.16,63.52Zm27-3.83c-.55-7.42-4.38-10.34-10.27-10.34s-9.72,4-10.68,10.34Z"/><path class="cls-3" d="M460.53,45.22h5.72v6.44c2.26-4,5.34-6.84,11.78-7.05v5.34c-7.19.34-11.78,2.6-11.78,11.43V81h-5.68Z"/><path class="cls-3" d="M481.3,71.11c0-8.29,8.77-11.09,17.94-11.09h5.14V57.44c0-5.68-2.19-8.1-7.67-8.1-4.93,0-7.67,2-8.21,6.44h-5.68c.76-8.15,7.26-11.16,14.17-11.16s13.08,2.81,13.08,12.82V81.07h-5.68V76.55c-2.7,3.37-5.89,5.14-11.16,5.14C486.6,81.65,481.3,78.43,481.3,71.11Zm23.08-2.6V64.06h-4.93c-7.19,0-12.46,1.78-12.46,7.05,0,3.7,1.78,6,6.75,6,6.07,0,10.66-3.09,10.66-8.64Z"/><path class="cls-3" d="M517.14,63.52V63c0-10.93,7.83-18.35,17.39-18.35C542,44.62,549,48,550.06,57.15h-5.62c-.89-5.68-5-7.8-9.93-7.8C528,49.34,523,54.55,523,63v.55c0,8.77,4.79,13.42,11.7,13.42,5.07,0,9.66-2.94,10.27-8.77h5.27c-.76,7.74-7,13.5-15.61,13.5C524.68,81.65,517.14,74.59,517.14,63.52Z"/><path class="cls-3" d="M558.77,72.06V50h-5.14V45.23h5.14V37.07h5.68v8.15h8.36V50h-8.36v21.5c0,3.49,1.57,5.2,4.45,5.2a11.68,11.68,0,0,0,4.38-.76v4.79a13.54,13.54,0,0,1-4.86.76C561.92,81.51,558.77,77.69,558.77,72.06Z"/><path class="cls-3" d="M578.66,34a3.77,3.77,0,1,1,3.77,3.77h0A3.8,3.8,0,0,1,578.66,34Zm1,11.23h5.68V81.07h-5.68Z"/><path class="cls-3" d="M591.21,45.22h6.19L608,75.28l10.48-30.06h5.89L611.5,81.07h-7.28Z"/><path class="cls-3" d="M626.6,63.52V63c0-10.8,6.92-18.35,16.78-18.35,8.29,0,16.09,5,16.09,17.81v1.85h-27c.27,8.15,4.18,12.67,11.47,12.67,5.55,0,8.77-2,9.52-6.23h5.68c-1.24,7.19-7.19,11-15.27,11C633.8,81.65,626.6,74.53,626.6,63.52Zm27-3.83c-.55-7.42-4.38-10.34-10.27-10.34s-9.73,4-10.68,10.34Z"/><line class="cls-4" x1="707.54" x2="707.54" y2="114.75"/></g></g></svg>