<svg id="Layer_1" data-name="Layer 1" xmlns="http://www.w3.org/2000/svg" viewBox="0 0 253.22 49.03"><defs><style>.cls-1{fill:#ff9500;}</style></defs><title>Acc_Digital_Lockup_BLK_RGB</title><polygon class="cls-1" points="95.11 12.02 104.51 8.53 95.11 4.86 95.11 0 111.2 6.48 111.2 10.51 95.11 17.03 95.11 12.02"/><path d="M11.19,48.35C7.81,48.35,5,46.62,5,42.81v-.22c0-4.64,4-6.16,8.89-6.16h2.34v-.9c0-1.87-.83-3-2.77-3a2.58,2.58,0,0,0-2.83,2.3s0,.1,0,.15h-5c.36-4.18,3.67-6.23,8.13-6.23s7.78,1.94,7.78,6.62V48H16.38V45.81A6,6,0,0,1,11.19,48.35Zm5-6.66v-1.8H14.1c-2.59,0-3.92.72-3.92,2.41v.18c0,1.3.79,2.2,2.56,2.2s3.49-1,3.49-3Z" transform="translate(-5 -5.33)"/><path d="M33.4,48.35c-5.22,0-9-3.24-9-9.61v-.25c0-6.37,4-9.75,9-9.75,4.28,0,7.81,2.16,8.24,7.09h-5c-.32-1.83-1.26-3-3.1-3-2.23,0-3.78,1.76-3.78,5.47v.58c0,3.82,1.37,5.54,3.82,5.54,1.8,0,3.13-1.33,3.42-3.38h4.79C41.43,45.29,38.51,48.35,33.4,48.35Z" transform="translate(-5 -5.33)"/><path d="M53,48.35c-5.22,0-9-3.24-9-9.61v-.25c0-6.37,4-9.75,9-9.75,4.28,0,7.81,2.16,8.24,7.09h-5c-.32-1.83-1.26-3-3.1-3-2.23,0-3.78,1.76-3.78,5.47v.58c0,3.82,1.37,5.54,3.82,5.54,1.8,0,3.13-1.33,3.42-3.38h4.79C61,45.29,58.1,48.35,53,48.35Z" transform="translate(-5 -5.33)"/><path d="M72.71,48.35c-5.44,0-9.14-3.24-9.14-9.5v-.36c0-6.3,3.92-9.75,9-9.75,4.68,0,8.6,2.63,8.6,8.85v2.27H68.9c.22,3.38,1.66,4.68,3.92,4.68a3.25,3.25,0,0,0,3.46-2.45h4.86C80.61,45.64,77.61,48.35,72.71,48.35ZM69,36.35H76c-.11-2.77-1.37-4-3.46-4-1.65.05-3.17,1-3.6,4Z" transform="translate(-5 -5.33)"/><path d="M84.38,29.12h5.23v2.81a6.13,6.13,0,0,1,5.69-3.2c3.42,0,5.69,2,5.69,6.62V48H95.73V36.14c0-2.2-.9-3.17-2.81-3.17a3.15,3.15,0,0,0-3.31,3.49V47.94H84.36Z" transform="translate(-5 -5.33)"/><path d="M110.84,23.44v5.69h3.6v3.92h-3.6V42c0,1.4.65,2,1.87,2a4.53,4.53,0,0,0,1.83-.32v4.1a10.74,10.74,0,0,1-3,.4c-4.1,0-6-1.87-6-5.69V33.05h-2.2V29.13h2.2V25.64Z" transform="translate(-5 -5.33)"/><path d="M134.24,48H129V45.18a5.74,5.74,0,0,1-5.47,3.17c-3.38,0-5.87-2-5.87-6.48V29.12h5.29v12c0,2.16.86,3.17,2.74,3.17A3.17,3.17,0,0,0,129,40.8V29.12h5.26Z" transform="translate(-5 -5.33)"/><path d="M138,29.12h5.25v3.46a5.62,5.62,0,0,1,5.65-3.71v5.18c-3.56,0-5.65,1.08-5.65,4.21v9.68H138Z" transform="translate(-5 -5.33)"/><path d="M159.76,48.35c-5.44,0-9.14-3.24-9.14-9.5v-.36c0-6.3,3.92-9.75,9-9.75,4.68,0,8.6,2.63,8.6,8.85v2.27H155.95c.22,3.38,1.66,4.68,3.92,4.68a3.25,3.25,0,0,0,3.46-2.45h4.86C167.61,45.64,164.69,48.35,159.76,48.35Zm-3.74-12h7.06c-.11-2.77-1.37-4-3.46-4-1.66.05-3.17,1-3.6,4Z" transform="translate(-5 -5.33)"/><path class="cls-1" d="M187.91,48h-2.7V44.89a6.91,6.91,0,0,1-5.87,3.35c-4.36,0-7.45-3-7.45-8.35V37.51c0-5.22,3.13-8.67,7.74-8.67a6,6,0,0,1,5.58,3.2V20.64h2.7Zm-2.63-10.51c0-4.25-2-6.37-5.33-6.37s-5.29,2.27-5.29,6.37v2.38c0,4.21,2.2,6.19,5,6.19,3.17,0,5.58-2.12,5.58-6.41Z" transform="translate(-5 -5.33)"/><path class="cls-1" d="M192.09,23.64a1.78,1.78,0,1,1,1.76,1.8,1.78,1.78,0,0,1-1.76-1.8Zm.43,5.51h2.7V48h-2.7Z" transform="translate(-5 -5.33)"/><path class="cls-1" d="M206.92,54.36c-5,0-7.27-2.3-7.67-5.36H202c.36,2.09,2,3.1,4.9,3.1,3.31,0,5.36-1.62,5.36-5.36V44a6.84,6.84,0,0,1-5.8,3.38c-4.39,0-7.49-3.2-7.49-8.1V37.2c0-4.79,3.13-8.35,7.7-8.35a6,6,0,0,1,5.58,3.2V29.13h2.7V46.88C214.95,51.94,211.67,54.36,206.92,54.36Zm5.36-15.26V37.16c0-3.85-2-6.08-5.29-6.08s-5.25,2.38-5.25,6v2.16c0,3.82,2.2,5.87,5.08,5.87,3.16,0,5.46-2.16,5.46-6Z" transform="translate(-5 -5.33)"/><path class="cls-1" d="M219.23,23.64a1.78,1.78,0,1,1,1.76,1.8,1.78,1.78,0,0,1-1.76-1.8Zm.43,5.51h2.7V48h-2.7Z" transform="translate(-5 -5.33)"/><path class="cls-1" d="M230.61,25v4.18h4v2.3h-4V43.2c0,1.83.76,2.66,2.23,2.66a5.23,5.23,0,0,0,2-.32v2.27a6.34,6.34,0,0,1-2.23.36c-3.2,0-4.75-1.84-4.75-4.71v-12h-2.48v-2.3h2.48V25Z" transform="translate(-5 -5.33)"/><path class="cls-1" d="M243,48.24c-3.35,0-5.8-1.76-5.8-5.36v-.24c0-4.21,3.89-5.65,8.35-5.65h2.74V35.15c0-2.81-1-4.07-3.71-4.07-2.41,0-3.74,1.08-4,3.28h-2.7c.29-4,3.31-5.54,6.77-5.54s6.3,1.58,6.3,6.33V47.93h-2.7V45.64A5.92,5.92,0,0,1,243,48.24Zm5.29-6.37V39h-2.64c-3.38,0-5.72.94-5.72,3.67v.18c0,2,1,3.28,3.42,3.28C246.16,46.11,248.25,44.64,248.25,41.87Z" transform="translate(-5 -5.33)"/><path class="cls-1" d="M255.45,20.64h2.77V48h-2.77Z" transform="translate(-5 -5.33)"/></svg>