<svg id="Layer_1" data-name="Layer 1" xmlns="http://www.w3.org/2000/svg" xmlns:xlink="http://www.w3.org/1999/xlink" viewBox="0 0 233.52 51.43"><defs><style>.cls-1{fill:#ff6c0c;}.cls-2{fill:#8a88a4;}</style><symbol id="cmyk-iso-color-orange" data-name="cmyk-iso-color-orange" viewBox="0 0 25.78 29.15"><g id="dh-frecha-orange"><path class="cls-1" d="M1.53,29.15a1.54,1.54,0,0,1-1.12-.48A1.51,1.51,0,0,1,.13,27L11.46,1a1.48,1.48,0,0,1,.82-.86,1.44,1.44,0,0,1,.6-.13h0a1.49,1.49,0,0,1,.61.13,1.54,1.54,0,0,1,.82.86L25.65,27a1.53,1.53,0,0,1-1.91,2.05L12.88,25.24,2,29.07A1.69,1.69,0,0,1,1.53,29.15Zm11.35-7.06a1.52,1.52,0,0,1,.51.09L21.45,25,12.89,5.36,4.33,25l8-2.83A1.48,1.48,0,0,1,12.88,22.09Z"/></g></symbol><symbol id="cmyk-logo-color" data-name="cmyk-logo-color" viewBox="0 0 233.53 51.42"><path class="cls-2" d="M26.5,18.36a.54.54,0,0,1-.54.54H23.31a.54.54,0,0,1-.54-.54V15.71a.53.53,0,0,1,.54-.53H26a.53.53,0,0,1,.54.53Z"/><path class="cls-2" d="M156.15,18.36a.54.54,0,0,1-.54.54H153a.54.54,0,0,1-.54-.54V15.71a.53.53,0,0,1,.54-.53h2.65a.53.53,0,0,1,.54.53Z"/><path class="cls-2" d="M201.2,33.72c0,3.1,0,6.2,0,9.3a14.75,14.75,0,0,1-.3,2.82,6.2,6.2,0,0,1-4.06,4.67,12,12,0,0,1-2.89.73,20.84,20.84,0,0,1-8.13-.5c-1.36-.38-1.46-.65-1.09-1.9.09-.27.15-.56.23-.83.21-.7.54-.86,1.24-.66.89.26,1.76.56,2.65.75A11.86,11.86,0,0,0,194,48a4,4,0,0,0,3.37-3.22c.2-.94-.14-1.32-1.11-1.3-1.6,0-3.2.09-4.8,0a11.52,11.52,0,0,1-2.85-.56,8.58,8.58,0,0,1-5.92-6.05,15,15,0,0,1-.07-8.48A8.76,8.76,0,0,1,190,21.77a23.27,23.27,0,0,1,10.23.52c.9.24,1,.4,1,1.33C201.21,27,201.2,30.35,201.2,33.72Zm-3.63-1.13c0-2.17,0-4.36,0-6.53,0-.78-.21-1.09-1-1.17a31.16,31.16,0,0,0-4.31-.34,6,6,0,0,0-5.84,4.13,8.87,8.87,0,0,0-.54,1.89A10.18,10.18,0,0,0,186.7,37a6,6,0,0,0,4.84,3.46,16.43,16.43,0,0,0,4.85-.24c1-.19,1.17-.38,1.17-1.42C197.57,36.74,197.57,34.67,197.57,32.59Z"/><path class="cls-2" d="M19.14,28.76V41.53c0,.84-.1,1-.83,1.21a23.33,23.33,0,0,1-10.07.63C3.92,42.68,1.3,40.1.37,35.84a15,15,0,0,1,.2-7.41A9,9,0,0,1,7.9,21.75,26.19,26.19,0,0,1,14,21.54l.15,0c1.1.07,1.34-.15,1.35-1.29V16.41c0-.19,0-.37,0-.55.05-.63.25-.85.88-.88s1.26,0,1.89,0,.79.26.83.84c0,.21,0,.42,0,.63Zm-3.61,3.81c0-2.15,0-4.31,0-6.46,0-.82-.21-1.13-1-1.23a33.34,33.34,0,0,0-4.23-.34,6.09,6.09,0,0,0-6,4.46,12.68,12.68,0,0,0-.56,2.6,9.66,9.66,0,0,0,1,5.51,5.9,5.9,0,0,0,4.81,3.37,16.52,16.52,0,0,0,4.86-.25c1-.18,1.15-.39,1.16-1.43Z"/><path class="cls-2" d="M75.3,29V16.34c0-1.23.13-1.36,1.35-1.36h1.19c.86,0,1.07.22,1.08,1.08,0,1.21,0,2.42,0,3.63v.63c0,1.11.25,1.29,1.38,1.24a26.58,26.58,0,0,1,6,.14c4.74.85,7.27,4,7.93,8.32a19.72,19.72,0,0,1,.2,3c0,2.89,0,5.78,0,8.68a5,5,0,0,1,0,.55c-.06.55-.31.82-.85.84s-1.32,0-2,0a.75.75,0,0,1-.79-.73,5.61,5.61,0,0,1,0-.71V32.72a10.93,10.93,0,0,0-.61-3.8A6.2,6.2,0,0,0,84,24.53a33.37,33.37,0,0,0-4,.34c-.9.11-1.08.38-1.08,1.32q0,7.57,0,15.15c0,.21,0,.42,0,.63,0,.87-.25,1.1-1.14,1.11-.53,0-1,0-1.58,0s-.84-.27-.9-.87c0-.24,0-.48,0-.71Z"/><path class="cls-2" d="M117.77,32.55a14.84,14.84,0,0,1-.84,5,8.91,8.91,0,0,1-7.7,6,12.66,12.66,0,0,1-4.55-.19,8.58,8.58,0,0,1-6.5-5.52,14.62,14.62,0,0,1-.06-10.42,8.74,8.74,0,0,1,7.63-5.87,12.28,12.28,0,0,1,5.08.31,8.93,8.93,0,0,1,6.35,6.52,11.47,11.47,0,0,1,.39,1.85C117.68,31,117.71,31.77,117.77,32.55Zm-3.81.17h-.07c0-.61,0-1.21-.12-1.81a10.66,10.66,0,0,0-.38-1.85c-.75-2.46-2.26-4.17-4.92-4.51-3-.38-5.94.68-6.91,4.4a12.66,12.66,0,0,0,.11,7.24,5.74,5.74,0,0,0,5.23,4.35c3.37.26,5.77-1.18,6.57-4.54C113.73,34.92,113.8,33.81,114,32.72Z"/><path class="cls-2" d="M163.74,34v7.81c0,1-.21,1.24-1.26,1.24-.5,0-1,0-1.5,0a.77.77,0,0,1-.85-.82c0-.21,0-.42,0-.63V23.87c0-.11,0-.21,0-.32,0-.87.09-1,.9-1.23a23.37,23.37,0,0,1,10.08-.6A9.12,9.12,0,0,1,179,30a24.89,24.89,0,0,1,.21,3c0,2.89,0,5.78,0,8.67a5.19,5.19,0,0,1,0,.56.8.8,0,0,1-.87.82q-.95,0-1.89,0c-.56,0-.79-.27-.85-.83,0-.21,0-.42,0-.63,0-2.92,0-5.84,0-8.76A10.82,10.82,0,0,0,175,29a6.19,6.19,0,0,0-4.42-4.23,5.82,5.82,0,0,0-1.71-.22c-1.36.06-2.73.18-4.08.34-.86.11-1,.4-1,1.28C163.73,28.77,163.74,31.4,163.74,34Z"/><path class="cls-2" d="M30.4,32.73V23.58c0-.9.1-1,1-1.27a23.53,23.53,0,0,1,10.15-.57,9,9,0,0,1,7.72,7.79,19.66,19.66,0,0,1,.27,3.06c0,3.08,0,6.16,0,9.23,0,.11,0,.21,0,.32,0,.65-.27.91-.91.93s-1.21,0-1.81,0-.85-.26-.88-.88,0-1.26,0-1.89c0-2.56,0-5.11,0-7.66a10.91,10.91,0,0,0-.62-3.71,6.18,6.18,0,0,0-6.17-4.4,32.36,32.36,0,0,0-3.92.32c-1,.13-1.17.39-1.17,1.42V41.49a6.89,6.89,0,0,1,0,.79.76.76,0,0,1-.81.79c-.65,0-1.32,0-2,0a.77.77,0,0,1-.81-.8c0-.2,0-.42,0-.62Z"/><path class="cls-2" d="M126.62,43.72a18,18,0,0,1-6.24-1.31c-.91-.37-1-.59-.72-1.49.11-.38.22-.76.36-1.13.26-.7.58-.83,1.28-.57s1.51.6,2.29.84a9.61,9.61,0,0,0,4.67.37,7.82,7.82,0,0,0,1.5-.44,2.42,2.42,0,0,0,1.48-1.82,2.68,2.68,0,0,0-1.49-3.36,29.33,29.33,0,0,0-3.17-1.17c-1-.33-1.91-.58-2.85-.92a5.71,5.71,0,0,1-2.67-1.89,6.33,6.33,0,0,1,.55-7.65,6.44,6.44,0,0,1,3.76-1.65,16.33,16.33,0,0,1,8,1c.85.33,1,.56.74,1.43l-.24.83c-.28.94-.57,1.08-1.5.72-.47-.17-.94-.36-1.41-.5a10.22,10.22,0,0,0-4.91-.36,2.52,2.52,0,0,0-2.34,2.84,1.92,1.92,0,0,0,.94,1.72,8.81,8.81,0,0,0,1.83.88c1.24.43,2.53.73,3.76,1.18a12.23,12.23,0,0,1,2.47,1.19,4.75,4.75,0,0,1,2.27,4,7.32,7.32,0,0,1-.35,2.87,6,6,0,0,1-4.65,4C128.87,43.52,127.74,43.58,126.62,43.72Z"/><path class="cls-2" d="M138.22,25.22V16.54c0-.21,0-.42,0-.63,0-.66.26-.9.91-.93s1.16,0,1.74,0,1,.26,1,.95,0,1.37,0,2.06c0,1,0,1.94,0,2.92,0,.82.28,1.08,1.1,1.09,1.56,0,3.11,0,4.66,0,1,0,1.21.22,1.22,1.19,0,.27,0,.54,0,.8,0,.83-.27,1.08-1.09,1.09h-4.18c-.16,0-.31,0-.47,0-1,0-1.23.22-1.24,1.27v1.42c0,1.76,0,3.52.06,5.28a10.2,10.2,0,0,0,.65,3.4,5,5,0,0,0,4.9,3.53,3.33,3.33,0,0,1,.55,0,.73.73,0,0,1,.68.67,11.8,11.8,0,0,1,.08,1.57c0,.53-.32.77-1,.81a11.39,11.39,0,0,1-3.44-.31A7.35,7.35,0,0,1,138.81,37a19.1,19.1,0,0,1-.57-4.93c0-2.28,0-4.57,0-6.86Z"/><path class="cls-2" d="M156.29,32.54V41.6c0,.21,0,.42,0,.63-.06.55-.31.82-.85.84s-1.32,0-2,0-.74-.28-.81-.8c0-.21,0-.42,0-.63V23.28c0-1.09.2-1.28,1.29-1.28.47,0,.94,0,1.42,0,.63,0,.89.29.93.93,0,.21,0,.42,0,.63Z"/><path class="cls-2" d="M23,32.49V23.43c0-.21,0-.42,0-.63a.77.77,0,0,1,.81-.79c.65,0,1.31,0,2,0s.78.28.82.85c0,.21,0,.42,0,.63V41.61c0,1.37-.1,1.47-1.49,1.47-.39,0-.78,0-1.18,0-.69,0-.94-.27-1-1,0-1.26,0-2.52,0-3.78Z"/><path class="cls-2" d="M68.2,29.47a4.08,4.08,0,0,0-2.11-4.55,7.62,7.62,0,0,0-3-.78,14.44,14.44,0,0,0-6.15.76c-.4.15-.81.24-1.28.37a5.77,5.77,0,0,1-.36-.8c-.16-.63-.28-1.27-.43-2a3.82,3.82,0,0,1,.88-.5,25.1,25.1,0,0,1,3.54-.67,34.22,34.22,0,0,1,4.75,0,11.48,11.48,0,0,1,2.89.57,6.76,6.76,0,0,1,4.93,6.3,14.45,14.45,0,0,1,.06,1.47V41.34c0,.44,0,.87-.09,1.36a4.1,4.1,0,0,1-.72.37,24.48,24.48,0,0,1-11.38.48,10.32,10.32,0,0,1-4.19-1.81,7,7,0,0,1-1.9-2A5.66,5.66,0,0,1,54.05,33a8.77,8.77,0,0,1,4-2.76,15.11,15.11,0,0,1,5.15-.92c1.31,0,2.62.11,3.93.16C67.46,29.48,67.79,29.47,68.2,29.47Zm.25,7.11v-3a.91.91,0,0,0-.74-.95c-.15,0-.31-.1-.47-.13a16.59,16.59,0,0,0-6.51-.11,6.58,6.58,0,0,0-3.31,1.7,3.51,3.51,0,0,0,0,5,6.37,6.37,0,0,0,3,1.64,16.3,16.3,0,0,0,6,.13,11.2,11.2,0,0,0,1.28-.27.94.94,0,0,0,.76-.94Z"/><use width="25.78" height="29.15" transform="translate(207.75)" xlink:href="#cmyk-iso-color-orange"/></symbol></defs><title>cmyk-logo-color-vector</title><use id="cmyk-logo-color-3" data-name="cmyk-logo-color" width="233.52" height="51.43" xlink:href="#cmyk-logo-color"/></svg>