<?xml version="1.0" encoding="UTF-8"?>
<svg width="334px" height="68px" viewBox="0 0 334 68" version="1.1" xmlns="http://www.w3.org/2000/svg" xmlns:xlink="http://www.w3.org/1999/xlink">
    <!-- Generator: Sketch 48.2 (47327) - http://www.bohemiancoding.com/sketch -->
    <title>logo_Teltek</title>
    <desc>Created with Sketch.</desc>
    <defs></defs>
    <g id="Page-1" stroke="none" stroke-width="1" fill="none" fill-rule="evenodd">
        <g id="logo_Teltek">
            <g id="Primer_plano">
                <g id="Group">
                    <polygon id="Shape" fill="#1A171B" points="48.139 9.698 29.269 9.698 29.269 47.703 19.967 47.703 19.967 9.698 0.965 9.698 0.965 0.396 48.139 0.396"></polygon>
                    <polygon id="Shape" fill="#1A171B" points="104.996 47.703 57.822 47.703 57.822 0.396 104.996 0.396 104.996 9.698 67.124 9.698 67.124 19.465 95.505 19.465 95.505 28.7 67.124 28.7 67.124 38.467 104.996 38.467"></polygon>
                    <polygon id="Shape" fill="#1A171B" points="161.854 47.703 114.68 47.703 114.68 0.529 123.981 0.529 123.981 38.401 161.854 38.401"></polygon>
                    <polygon id="Shape" fill="#1A171B" points="202.799 9.698 183.929 9.698 183.929 47.703 174.627 47.703 174.627 9.698 155.625 9.698 155.625 0.396 202.799 0.396"></polygon>
                    <polygon id="Shape" fill="#1A171B" points="257.534 47.703 210.36 47.703 210.36 0.396 257.534 0.396 257.534 9.698 219.662 9.698 219.662 19.465 248.043 19.465 248.043 28.7 219.662 28.7 219.662 38.467 257.534 38.467"></polygon>
                    <polygon id="Shape" fill="#B6BC00" points="314.325 9.831 305.023 9.831 305.023 19.398 295.722 19.398 295.722 28.966 305.023 28.966 305.023 38.467 314.325 38.467 314.325 47.703 305.023 47.703 305.023 38.069 295.722 38.069 295.722 28.7 276.52 28.7 276.52 47.703 267.218 47.703 267.218 0.529 276.52 0.529 276.52 19.398 295.722 19.398 295.722 9.897 305.28 9.897 305.28 0.529 314.325 0.529"></polygon>
                    <rect id="Rectangle-path" fill="#1A171B" x="324.593" y="0.913" width="9.011" height="9.011"></rect>
                    <g transform="translate(19.000000, 61.000000)" fill="#1A171B">
                        <polygon id="Shape" points="4.164 6.415 0.624 0.293 2.252 0.293 4.732 4.718 7.096 0.293 8.516 0.293 5.149 6.415"></polygon>
                        <rect id="Rectangle-path" x="23.564" y="0.293" width="1.424" height="6.122"></rect>
                        <path d="M42.938,5.265 L44.782,5.265 C45.763,5.265 46.459,5.112 46.869,4.807 C47.278,4.502 47.483,3.997 47.483,3.293 C47.483,2.667 47.313,2.192 46.973,1.869 C46.632,1.546 46.13,1.385 45.465,1.385 L42.938,1.385 L42.938,5.265 Z M41.515,6.415 L41.515,0.293 L45.454,0.293 C46.579,0.293 47.443,0.556 48.048,1.081 C48.652,1.606 48.955,2.352 48.955,3.317 C48.955,3.888 48.837,4.403 48.601,4.861 C48.366,5.319 48.033,5.678 47.604,5.941 C47.337,6.107 47.006,6.228 46.61,6.303 C46.214,6.379 45.707,6.416 45.089,6.416 L41.515,6.416 L41.515,6.415 Z" id="Shape"></path>
                        <polygon id="Shape" points="64.949 6.415 64.949 0.293 71.215 0.293 71.215 1.337 66.373 1.337 66.373 2.702 69.197 2.702 69.197 3.746 66.373 3.746 66.373 5.265 71.273 5.265 71.273 6.415"></polygon>
                        <path d="M87.161,1.738 C87.161,1.183 87.265,0.803 87.474,0.599 C87.682,0.394 88.083,0.292 88.678,0.292 L93.186,0.292 C93.783,0.292 94.186,0.394 94.395,0.599 C94.604,0.803 94.708,1.183 94.708,1.738 L94.708,4.968 C94.708,5.528 94.604,5.908 94.395,6.111 C94.186,6.314 93.783,6.415 93.186,6.415 L88.678,6.415 C88.083,6.415 87.682,6.314 87.474,6.111 C87.266,5.909 87.161,5.528 87.161,4.968 L87.161,1.738 Z M88.585,5.265 L93.284,5.265 L93.284,1.385 L88.585,1.385 L88.585,5.265 Z" id="Shape"></path>
                        <path d="M133.666,1.349 L130.465,1.349 L130.465,3.058 L133.666,3.058 C133.914,3.058 134.082,3.022 134.173,2.951 C134.264,2.879 134.31,2.752 134.31,2.57 L134.31,1.832 C134.31,1.654 134.264,1.529 134.173,1.457 C134.082,1.385 133.914,1.349 133.666,1.349 Z M129.064,6.415 L129.064,0.293 L134.297,0.293 C134.784,0.293 135.138,0.386 135.357,0.573 C135.576,0.76 135.685,1.061 135.685,1.476 L135.685,2.917 C135.685,3.329 135.576,3.629 135.357,3.818 C135.138,4.006 134.785,4.101 134.297,4.101 L133.497,4.101 L136.328,6.414 L134.282,6.414 L131.813,4.101 L130.463,4.101 L130.463,6.414 L129.064,6.414 L129.064,6.415 Z" id="Shape"></path>
                        <polygon id="Shape" points="151.965 6.415 151.965 0.293 158.23 0.293 158.23 1.337 153.389 1.337 153.389 2.702 156.213 2.702 156.213 3.746 153.389 3.746 153.389 5.265 158.29 5.265 158.29 6.415"></polygon>
                        <path d="M179.611,1.361 L175.6,1.361 L175.6,2.678 L179.419,2.678 C180.02,2.678 180.425,2.781 180.636,2.985 C180.847,3.19 180.952,3.57 180.952,4.127 L180.952,4.969 C180.952,5.524 180.847,5.904 180.636,6.108 C180.425,6.313 180.02,6.415 179.419,6.415 L175.635,6.415 C175.036,6.415 174.631,6.313 174.421,6.108 C174.21,5.904 174.105,5.524 174.105,4.969 L174.105,4.801 L175.363,4.54 L175.363,5.264 L179.694,5.264 L179.694,3.864 L175.873,3.864 C175.278,3.864 174.876,3.762 174.668,3.557 C174.459,3.353 174.355,2.973 174.355,2.417 L174.355,1.739 C174.355,1.183 174.459,0.803 174.668,0.599 C174.876,0.394 175.278,0.292 175.873,0.292 L179.351,0.292 C179.927,0.292 180.324,0.39 180.542,0.587 C180.76,0.784 180.869,1.133 180.869,1.634 L180.869,1.762 L179.611,2.059 L179.611,1.361 Z" id="Shape"></path>
                        <polygon id="Shape" points="197.305 6.415 197.305 0.293 203.57 0.293 203.57 1.337 198.729 1.337 198.729 2.702 201.553 2.702 201.553 3.746 198.729 3.746 198.729 5.265 203.63 5.265 203.63 6.415"></polygon>
                        <path d="M221.215,3.971 L223.899,3.971 L222.578,1.48 L221.215,3.971 Z M218.473,6.415 L221.94,0.293 L223.314,0.293 L226.827,6.415 L225.227,6.415 L224.491,5.075 L220.606,5.075 L219.893,6.415 L218.473,6.415 Z" id="Shape"></path>
                        <path d="M246.786,1.349 L243.584,1.349 L243.584,3.058 L246.786,3.058 C247.033,3.058 247.202,3.022 247.293,2.951 C247.384,2.879 247.429,2.752 247.429,2.57 L247.429,1.832 C247.429,1.654 247.384,1.529 247.293,1.457 C247.202,1.385 247.033,1.349 246.786,1.349 Z M242.184,6.415 L242.184,0.293 L247.418,0.293 C247.905,0.293 248.259,0.386 248.478,0.573 C248.697,0.76 248.806,1.061 248.806,1.476 L248.806,2.917 C248.806,3.329 248.697,3.629 248.478,3.818 C248.259,4.006 247.906,4.101 247.418,4.101 L246.618,4.101 L249.449,6.414 L247.403,6.414 L244.934,4.101 L243.583,4.101 L243.583,6.414 L242.184,6.414 L242.184,6.415 Z" id="Shape"></path>
                        <path d="M270.223,1.385 L266.378,1.385 L266.378,5.265 L270.223,5.265 L270.223,3.948 L271.647,4.244 L271.647,4.97 C271.647,5.529 271.543,5.91 271.333,6.113 C271.122,6.316 270.722,6.417 270.131,6.417 L266.472,6.417 C265.878,6.417 265.476,6.316 265.268,6.113 C265.06,5.911 264.955,5.53 264.955,4.97 L264.955,1.741 C264.955,1.185 265.059,0.805 265.268,0.601 C265.476,0.396 265.878,0.294 266.472,0.294 L270.131,0.294 C270.722,0.294 271.122,0.396 271.333,0.601 C271.543,0.805 271.647,1.185 271.647,1.741 L271.647,2.322 L270.223,2.549 L270.223,1.385 Z" id="Shape"></path>
                        <polygon id="Shape" points="287.985 6.415 287.985 0.293 289.409 0.293 289.409 2.666 293.859 2.666 293.859 0.293 295.295 0.293 295.295 6.415 293.859 6.415 293.859 3.781 289.409 3.781 289.409 6.415"></polygon>
                    </g>
                </g>
            </g>
        </g>
    </g>
</svg>