<?xml version="1.0" encoding="UTF-8"?>
<svg width="2336px" height="600px" viewBox="0 0 2336 600" version="1.1" xmlns="http://www.w3.org/2000/svg" xmlns:xlink="http://www.w3.org/1999/xlink">
    <!-- Generator: Sketch 48.2 (47327) - http://www.bohemiancoding.com/sketch -->
    <title>logo-sivsa30</title>
    <desc>Created with Sketch.</desc>
    <defs>
        <polygon id="path-1" points="0 600 2335.423 600 2335.423 0 0 0"></polygon>
    </defs>
    <g id="Page-1" stroke="none" stroke-width="1" fill="none" fill-rule="evenodd">
        <g id="logo-sivsa30">
            <path d="M449.8271,0 C144.2721,8.933 -104.3779,307.434 130.1201,451.258 C147.5551,354.987 162.3571,277.163 260.8181,202.85 C224.2461,252.945 165.9751,331.165 149.6741,462.889 C251.4001,609.594 423.4481,428.73 397.7031,285.65 C362.4011,83.442 446.6651,20.841 449.8271,0" id="Fill-1" fill="#E27222"></path>
            <path d="M148.0884,469.2266 C146.0884,525.9516 55.0324,599.9996 51.2794,599.9996 L0.0004,599.9996 C49.6154,518.0646 121.6734,535.6886 128.7904,456.2156 C132.7404,472.6346 140.6364,472.7376 148.0884,469.2266" id="Fill-3" fill="#E27222"></path>
            <path d="M685.4624,252.3091 C683.1674,236.7861 677.3474,225.4781 667.9984,218.3951 C658.6084,211.3261 644.3514,207.7691 625.1584,207.7691 C606.8774,207.7691 593.0604,209.9331 583.6824,214.2901 C574.3334,218.6211 569.6574,226.0331 569.6574,236.5381 C569.6574,245.6961 574.3334,253.0101 583.6824,258.4831 C593.0604,263.9651 606.6644,269.2131 624.4644,274.2561 C653.7004,282.4591 678.3754,289.4211 698.4774,295.1491 C718.5904,300.8651 734.6974,307.5861 746.8034,315.3741 C758.8974,323.1441 767.5864,332.8311 772.8524,344.4841 C778.0924,356.1421 780.7214,371.7861 780.7214,391.4341 C780.7214,421.5651 768.1594,446.5871 743.0384,466.4721 C717.9074,486.3391 680.6744,496.2811 631.3324,496.2811 C607.1184,496.2811 585.1694,493.5401 565.5394,488.0591 C545.8794,482.5671 529.0954,474.6811 515.1694,464.4161 C501.2304,454.1241 490.4994,441.8001 482.9554,427.3921 C475.4224,413.0201 471.4134,396.9111 470.9574,379.0821 L562.8014,379.0821 C562.8014,395.0971 569.0664,407.4131 581.6244,416.1051 C594.1934,424.7761 610.5364,429.1021 630.6384,429.1021 C647.5314,429.1021 662.0444,426.4871 674.1714,421.2161 C686.2594,415.9891 692.3144,407.8741 692.3144,396.9111 C692.3144,384.5631 687.8454,375.6601 678.9454,370.1781 C670.0564,364.6961 656.4454,359.8871 638.1704,355.7931 C605.2824,348.4881 578.7804,340.8351 558.6834,332.8311 C538.5834,324.8421 522.9334,316.0631 511.7524,306.4711 C500.5464,296.8711 492.9964,286.3511 489.1224,274.9261 C485.2434,263.5081 483.3064,250.7081 483.3064,236.5381 C483.3064,223.7671 485.9424,211.6551 491.1824,200.2441 C496.4314,188.8301 504.7684,178.7531 516.1974,170.0651 C527.5974,161.4101 542.4574,154.4431 560.7434,149.1771 C579.0114,143.9211 601.3974,141.2901 627.8994,141.2901 C676.3164,141.2901 711.7334,151.1181 734.1124,170.7571 C756.5034,190.4021 768.8304,217.5941 771.1244,252.3091 L685.4624,252.3091 Z" id="Fill-5" fill="#000000"></path>
            <mask id="mask-2" fill="white">
                <use xlink:href="#path-1"></use>
            </mask>
            <g id="Clip-8"></g>
            <path d="M816.635,487.356 L905.725,487.356 L905.725,150.205 L816.635,150.205 L816.635,487.356 Z M816.635,109.766 L905.725,109.766 L905.725,26.849 L816.635,26.849 L816.635,109.766 Z" id="Fill-7" fill="#000000" mask="url(#mask-2)"></path>
            <polygon id="Fill-9" fill="#000000" mask="url(#mask-2)" points="1056.1553 487.3555 935.5413 150.2045 1034.9093 150.2045 1105.5043 372.9325 1176.7793 150.2045 1270.6673 150.2045 1149.3613 487.3555"></polygon>
            <path d="M1490.7485,252.3091 C1488.4605,236.7861 1482.6555,225.4781 1473.2905,218.3951 C1463.9135,211.3261 1449.6305,207.7691 1430.4395,207.7691 C1412.1815,207.7691 1398.3425,209.9331 1388.9865,214.2901 C1379.6215,218.6211 1374.9365,226.0331 1374.9365,236.5381 C1374.9365,245.6961 1379.6215,253.0101 1388.9865,258.4831 C1398.3425,263.9651 1411.9485,269.2131 1429.7815,274.2561 C1459.0095,282.4591 1483.6725,289.4211 1503.7945,295.1491 C1523.8765,300.8651 1539.9815,307.5861 1552.0775,315.3741 C1564.1965,323.1441 1572.8905,332.8311 1578.1165,344.4841 C1583.3885,356.1421 1586.0255,371.7861 1586.0255,391.4341 C1586.0255,421.5651 1573.4585,446.5871 1548.3205,466.4721 C1523.1695,486.3391 1485.9875,496.2811 1436.6115,496.2811 C1412.4005,496.2811 1390.4775,493.5401 1370.8215,488.0591 C1351.1785,482.5671 1334.3975,474.6811 1320.4775,464.4161 C1306.5315,454.1241 1295.7785,441.8001 1288.2415,427.3921 C1280.7035,413.0201 1276.7135,396.9111 1276.2615,379.0821 L1368.1025,379.0821 C1368.1025,395.0971 1374.3725,407.4131 1386.9315,416.1051 C1399.4975,424.7761 1415.8445,429.1021 1435.9445,429.1021 C1452.8375,429.1021 1467.3485,426.4871 1479.4395,421.2161 C1491.5455,415.9891 1497.6275,407.8741 1497.6275,396.9111 C1497.6275,384.5631 1493.1535,375.6601 1484.2415,370.1781 C1475.3245,364.6961 1461.7495,359.8871 1443.4815,355.7931 C1410.5735,348.4881 1384.0825,340.8351 1363.9775,332.8311 C1343.8695,324.8421 1328.2265,316.0631 1317.0335,306.4711 C1305.8425,296.8711 1298.3005,286.3511 1294.4265,274.9261 C1290.5205,263.5081 1288.5775,250.7081 1288.5775,236.5381 C1288.5775,223.7671 1291.2155,211.6551 1296.4855,200.2441 C1301.7225,188.8301 1310.0475,178.7531 1321.4945,170.0651 C1332.9055,161.4101 1347.7665,154.4431 1366.0335,149.1771 C1384.3025,143.9211 1406.6905,141.2901 1433.2035,141.2901 C1481.6165,141.2901 1517.0425,151.1181 1539.4265,170.7571 C1561.8135,190.4021 1574.1165,217.5941 1576.4285,252.3091 L1490.7485,252.3091 Z" id="Fill-10" fill="#000000" mask="url(#mask-2)"></path>
            <path d="M1823.6851,322.2041 C1819.1031,326.7711 1812.4941,330.4391 1803.8181,333.1541 C1795.1341,335.9171 1782.5811,338.9001 1766.1041,342.0931 C1740.5271,347.1231 1722.9401,353.5051 1713.3561,361.2881 C1703.7811,369.0671 1698.9701,380.2371 1698.9701,394.8551 C1698.9701,419.9881 1713.3561,432.5471 1742.1341,432.5471 C1753.5461,432.5471 1764.1691,430.6071 1774.0131,426.7331 C1783.8171,422.8371 1792.2811,417.5841 1799.3571,410.9601 C1806.4331,404.3361 1812.1441,396.5661 1816.5151,387.6621 C1820.8411,378.7591 1823.0131,369.2781 1823.0131,359.2281 L1823.6851,322.2041 Z M1829.8611,487.3551 C1827.1291,478.6931 1825.2921,468.6211 1824.3791,457.2241 C1813.8811,469.1091 1799.9351,478.5551 1782.5811,485.6671 C1765.2001,492.7211 1745.1041,496.2811 1722.2821,496.2811 C1683.4301,496.2811 1654.9961,487.7001 1636.9381,470.5881 C1618.8841,453.4311 1609.8781,431.1851 1609.8781,403.7591 C1609.8781,379.5571 1613.7521,360.2361 1621.5231,345.8501 C1629.3161,331.4571 1640.0241,320.1481 1653.7371,311.9481 C1667.4281,303.7121 1683.7751,297.6571 1702.7141,293.7851 C1721.7041,289.8931 1742.3761,286.3501 1764.7601,283.1601 C1787.1221,279.9671 1802.2021,275.7231 1809.9721,270.4741 C1817.7421,265.2191 1821.6241,256.6731 1821.6241,244.7691 C1821.6241,233.8151 1816.5151,225.2471 1806.2141,219.0711 C1795.9221,212.8911 1782.1061,209.8391 1764.7601,209.8391 C1744.2041,209.8391 1729.4471,214.4071 1720.5481,223.5181 C1711.6451,232.6641 1706.0461,244.7691 1703.7811,259.8491 L1620.8291,259.8491 C1621.2941,242.5031 1624.1611,226.4901 1629.4101,211.8811 C1634.6361,197.2591 1643.1231,184.7031 1654.7671,174.1811 C1666.4121,163.6871 1681.5801,155.5581 1700.3231,149.8571 C1719.0661,144.1521 1741.9021,141.2901 1768.8541,141.2901 C1795.3801,141.2901 1817.8681,144.2721 1836.3691,150.2041 C1854.8781,156.1431 1869.7291,164.7041 1880.9301,175.9091 C1892.1131,187.1011 1900.1931,201.0291 1905.2351,217.7141 C1910.2651,234.3921 1912.7631,253.2341 1912.7631,274.2561 L1912.7631,487.3551 L1829.8611,487.3551 Z" id="Fill-11" fill="#000000" mask="url(#mask-2)"></path>
            <path d="M2167.106,445.5215 L2159.882,429.1475 L2152.654,445.5215 L2167.106,445.5215 Z M2149.913,451.7425 L2145.936,460.7845 L2138.765,460.7845 L2156.286,421.0095 L2163.464,421.0095 L2180.994,460.7845 L2173.815,460.7845 L2169.824,451.7425 L2149.913,451.7425 Z" id="Fill-12" fill="#000000" mask="url(#mask-2)"></path>
            <path d="M2208.8237,417.8887 C2207.8437,417.8887 2206.4547,417.4457 2204.6987,416.5227 C2202.9297,415.6537 2201.7967,415.2057 2201.3217,415.2057 C2200.0587,415.2057 2199.4007,416.0477 2199.3787,417.7137 L2195.1457,417.7137 C2195.1457,415.5057 2195.6067,413.7147 2196.4987,412.3577 C2197.3897,410.9957 2198.6387,410.3017 2200.2337,410.3017 C2201.2507,410.3017 2202.6827,410.7407 2204.4887,411.6547 C2206.3157,412.5447 2207.4937,412.9847 2208.0757,412.9847 C2209.2187,412.9847 2209.7867,412.1377 2209.7867,410.4767 L2214.0637,410.4767 C2213.9327,415.4117 2212.1917,417.8887 2208.8237,417.8887 Z M2216.3297,421.0097 L2223.0477,421.0097 L2223.0477,460.7847 L2215.7747,460.7847 L2193.2247,431.7627 L2193.2247,460.7847 L2186.5077,460.7847 L2186.5077,421.0097 L2193.2247,421.0097 L2216.3297,450.7027 L2216.3297,421.0097 Z" id="Fill-13" fill="#000000" mask="url(#mask-2)"></path>
            <path d="M2262.4634,430.3965 C2259.7444,427.5755 2256.4264,426.1875 2252.4764,426.1875 C2248.5444,426.1875 2245.2124,427.5755 2242.4844,430.3965 C2239.7794,433.2055 2238.4274,436.5955 2238.4274,440.6175 C2238.4274,444.6215 2239.7794,448.0205 2242.4844,450.8285 C2245.2124,453.6365 2248.5444,455.0385 2252.4764,455.0385 C2256.4264,455.0385 2259.7444,453.6365 2262.4634,450.8285 C2265.1944,448.0205 2266.5344,444.6215 2266.5344,440.6175 C2266.5344,436.5955 2265.1944,433.2055 2262.4634,430.3965 M2267.3904,455.3025 C2263.3684,459.2485 2258.4054,461.1775 2252.4764,461.1775 C2246.5564,461.1775 2241.5934,459.2485 2237.5584,455.3025 C2233.5314,451.3705 2231.5344,446.4705 2231.5344,440.6175 C2231.5344,434.7465 2233.5314,429.8415 2237.5584,425.9455 C2241.5934,422.0135 2246.5564,420.0385 2252.4764,420.0385 C2258.4054,420.0385 2263.3684,422.0135 2267.3904,425.9455 C2271.4114,429.8415 2273.4274,434.7465 2273.4274,440.6175 C2273.4274,446.4705 2271.4114,451.3705 2267.3904,455.3025" id="Fill-14" fill="#000000" mask="url(#mask-2)"></path>
            <path d="M2293.939,426.2588 C2291.996,426.2588 2290.387,426.6398 2289.128,427.4368 C2287.879,428.2468 2287.257,429.4468 2287.257,431.0688 C2287.257,432.6628 2287.879,433.9128 2289.128,434.7458 C2290.387,435.6018 2293.061,436.5508 2297.127,437.5088 C2301.199,438.5118 2304.275,439.9008 2306.358,441.6598 C2308.427,443.4388 2309.453,446.0758 2309.453,449.5568 C2309.453,453.0358 2308.136,455.8578 2305.525,458.0078 C2302.9,460.1838 2299.465,461.2448 2295.233,461.2448 C2289.012,461.2448 2283.486,459.0958 2278.654,454.8188 L2282.886,449.7308 C2286.885,453.2458 2291.073,454.9798 2295.394,454.9798 C2297.566,454.9798 2299.268,454.5188 2300.541,453.5918 C2301.821,452.6688 2302.448,451.4288 2302.448,449.8928 C2302.448,448.3428 2301.857,447.1648 2300.666,446.3188 C2299.465,445.4768 2297.406,444.6888 2294.494,443.9938 C2291.565,443.2548 2289.348,442.6328 2287.835,442.0498 C2286.316,441.4498 2284.964,440.6888 2283.786,439.7388 C2281.425,437.9608 2280.261,435.2068 2280.261,431.5528 C2280.261,427.8538 2281.587,425.0308 2284.269,423.0428 C2286.953,421.0318 2290.249,420.0378 2294.203,420.0378 C2296.734,420.0378 2299.268,420.4768 2301.777,421.2868 C2304.275,422.1298 2306.448,423.3078 2308.252,424.8258 L2304.669,429.8868 C2303.487,428.8248 2301.906,427.9468 2299.891,427.2758 C2297.871,426.5808 2295.905,426.2588 2293.939,426.2588" id="Fill-15" fill="#000000" mask="url(#mask-2)"></path>
            <path d="M2080.0513,290.1777 C2080.0513,247.6667 2100.6573,209.9777 2132.3253,186.2567 L2132.3253,181.8047 L1967.5593,181.8047 L1967.5593,219.8307 L2068.4433,219.8307 L2005.5863,294.3557 L2005.5863,329.7457 C2011.9233,326.8657 2024.4233,325.4097 2034.6343,325.4097 C2055.1013,325.4097 2070.6513,329.6157 2082.1933,338.0137 C2093.7423,346.4287 2099.5113,357.5977 2099.5113,371.6387 C2099.5113,385.6517 2094.3203,396.4267 2083.9843,403.9067 C2073.6243,411.3637 2060.4403,415.1117 2044.4513,415.1117 C2019.8103,415.1117 1996.2223,407.2017 1973.6503,391.5007 L1954.0203,428.8477 C1982.6033,448.0207 2011.8573,457.5817 2041.7693,457.5817 C2071.6583,457.5817 2096.1923,449.5917 2115.1913,433.6127 C2126.4173,424.1407 2134.3053,412.5447 2138.9403,398.8767 C2103.5243,375.6377 2080.0513,335.6307 2080.0513,290.1777" id="Fill-16" fill="#000000" mask="url(#mask-2)"></path>
            <path d="M2210.0151,370.2227 C2165.7981,370.2227 2129.9921,334.4037 2129.9921,290.1777 C2129.9921,246.0147 2165.7981,210.1747 2210.0151,210.1747 C2254.2091,210.1747 2290.0511,246.0147 2290.0511,290.1777 C2290.0511,334.4037 2254.2091,370.2227 2210.0151,370.2227 M2210.0151,176.4247 C2147.1621,176.4247 2096.2281,227.3687 2096.2281,290.1777 C2096.2281,353.0567 2147.1621,403.9997 2210.0151,403.9997 C2272.8491,403.9997 2323.7921,353.0567 2323.7921,290.1777 C2323.7921,227.3687 2272.8491,176.4247 2210.0151,176.4247" id="Fill-17" fill="#000000" mask="url(#mask-2)"></path>
            <polygon id="Fill-18" fill="#E27222" mask="url(#mask-2)" points="1942.411 165.7 2335.423 165.7 2335.423 150.2 1942.411 150.2"></polygon>
            <polygon id="Fill-19" fill="#E27222" mask="url(#mask-2)" points="1942.411 487.355 2335.423 487.355 2335.423 471.859 1942.411 471.859"></polygon>
        </g>
    </g>
</svg>