<?xml version="1.0" encoding="UTF-8"?>
<svg width="709px" height="110px" viewBox="0 0 709 110" version="1.1" xmlns="http://www.w3.org/2000/svg" xmlns:xlink="http://www.w3.org/1999/xlink">
    <!-- Generator: Sketch 48.2 (47327) - http://www.bohemiancoding.com/sketch -->
    <title>ThoughtWorks Logo bright pink (1)</title>
    <desc>Created with Sketch.</desc>
    <defs></defs>
    <g id="Page-1" stroke="none" stroke-width="1" fill="none" fill-rule="evenodd">
        <g id="ThoughtWorks-Logo-bright-pink-(1)" fill="#DF5693">
            <path d="M699.397,34.413 C700.61,34.443 701.452,34.159 701.452,32.834 C701.452,31.368 699.901,31.483 698.86,31.483 L696.438,31.483 L696.438,34.413 L699.397,34.413 Z M703.197,40.586 L700.61,40.586 L698.213,36.046 L696.438,36.046 L696.438,40.586 L694.181,40.586 L694.181,29.818 L699.365,29.818 C702.185,29.818 703.537,30.58 703.537,33.116 C703.537,35.089 702.497,35.907 700.61,36.046 L703.197,40.586 Z M705.592,35.142 C705.592,30.719 702.523,27.564 698.265,27.564 C693.93,27.564 690.94,30.719 690.94,35.142 C690.94,39.624 693.93,42.752 698.265,42.752 C702.523,42.752 705.592,39.624 705.592,35.142 Z M688.323,35.142 C688.323,29.676 692.748,25.227 698.265,25.227 C703.732,25.227 708.214,29.676 708.214,35.142 C708.214,40.667 703.732,45.121 698.265,45.121 C692.748,45.121 688.323,40.667 688.323,35.142 Z" id="Fill-1"></path>
            <polyline id="Fill-2" points="63.596 15.396 40.656 15.396 40.656 88.759 22.94 88.759 22.94 15.396 0 15.396 0 0.405 63.596 0.405 63.596 15.396"></polyline>
            <path d="M87.104,31.752 C92.444,27.32 99.03,23.799 106.072,23.799 C113,23.799 122.767,28.002 122.767,43.673 L122.767,88.759 L105.96,88.759 L105.96,50.49 C105.96,45.378 106.301,37.315 99.03,37.315 C94.148,37.315 90.287,40.836 87.104,44.242 L87.104,88.759 L70.299,88.759 L70.299,0.405 L87.104,0.405 L87.104,31.752" id="Fill-3"></path>
            <path d="M168.309,56.961 C168.309,49.01 166.717,36.179 157.63,36.179 C148.545,36.179 146.955,49.01 146.955,56.961 C146.955,64.911 148.545,77.745 157.63,77.745 C166.717,77.745 168.309,64.911 168.309,56.961 Z M129.694,56.961 C129.694,40.039 139.006,23.799 157.63,23.799 C176.258,23.799 185.568,40.039 185.568,56.961 C185.568,73.768 176.143,90.123 157.63,90.123 C139.119,90.123 129.694,73.768 129.694,56.961 Z" id="Fill-4"></path>
            <path d="M228.611,82.173 C223.272,86.602 216.686,90.123 209.646,90.123 C202.719,90.123 192.949,85.922 192.949,70.249 L192.949,25.161 L209.756,25.161 L209.756,63.437 C209.756,68.545 209.417,76.609 216.686,76.609 C221.569,76.609 225.43,73.088 228.611,69.68 L228.611,25.161 L245.418,25.161 L245.418,88.759 L228.611,88.759 L228.611,82.173" id="Fill-5"></path>
            <path d="M279.147,57.19 C286.189,57.19 288.234,51.398 288.234,45.378 C288.234,39.585 285.508,34.701 279.147,34.701 C272.105,34.701 269.947,40.608 269.947,46.63 C269.947,52.419 272.674,57.19 279.147,57.19 Z M267.563,88.874 C265.973,89.898 264.949,90.803 264.949,92.849 C264.949,98.756 276.875,99.096 280.851,99.096 C283.688,99.096 298.455,98.756 298.455,93.645 C298.455,90.351 296.186,90.69 286.189,90.123 L267.563,88.874 Z M272.902,67.864 C270.969,67.864 268.133,68.887 268.133,71.839 C268.133,80.131 312.195,65.706 312.195,90.579 C312.195,100.004 305.834,109.999 280.623,109.999 C258.707,109.999 251.209,102.275 251.209,93.986 C251.209,89.1 254.275,86.602 258.138,84.332 C255.41,82.287 253.144,79.9 253.144,76.27 C253.144,70.023 256.55,66.73 261.431,63.547 C256.773,59.005 253.482,53.327 253.482,46.06 C253.482,31.975 265.408,23.799 279.147,23.799 C284.711,23.799 290.051,25.389 294.82,28.228 C298.227,25.05 301.292,23.006 306.291,23.006 C307.879,23.006 309.584,23.116 311.176,23.458 L311.176,35.271 C309.471,34.589 307.654,33.906 305.834,33.906 C304.02,33.906 302.885,34.477 301.292,35.271 C303.107,38.677 304.588,42.426 304.698,46.06 C304.698,60.141 292.888,68.318 279.147,68.318 L272.902,67.864 Z" id="Fill-6"></path>
            <path d="M335.25,31.752 C340.586,27.32 347.173,23.799 354.215,23.799 C361.147,23.799 370.91,28.002 370.91,43.673 L370.91,88.759 L354.103,88.759 L354.103,50.49 C354.103,45.378 354.446,37.315 347.173,37.315 C342.289,37.315 338.432,40.836 335.25,44.242 L335.25,88.759 L318.439,88.759 L318.439,0.405 L335.25,0.405 L335.25,31.752" id="Fill-7"></path>
            <path d="M401.46,25.161 L414.523,25.161 L414.523,39.133 L401.46,39.133 L401.46,71.499 C401.46,74.566 402.368,77.745 407.819,77.745 C410.658,77.745 412.474,76.609 414.523,75.361 L414.523,88.192 C410.998,89.215 407.365,90.123 403.731,90.123 C393.285,90.123 384.655,84.219 384.655,70.361 L384.655,39.133 L376.814,39.133 L376.814,25.161 L384.655,25.161 L384.655,9.264 L401.46,9.264 L401.46,25.161" id="Fill-8"></path>
            <polyline id="Fill-9" points="484.476 88.759 475.389 88.759 460.401 16.531 460.176 16.531 444.385 88.759 435.301 88.759 416.791 0.405 425.647 0.405 440.185 71.724 440.414 71.724 456.311 0.405 465.059 0.405 480.158 71.724 480.389 71.724 495.949 0.405 504.693 0.405 484.476 88.759"></polyline>
            <path d="M542.164,57.415 C542.164,46.742 539.56,31.752 525.926,31.752 C512.302,31.752 509.685,46.742 509.685,57.415 C509.685,68.091 512.302,83.082 525.926,83.082 C539.56,83.082 542.164,68.091 542.164,57.415 Z M500.827,57.415 C500.827,33.906 511.96,24.255 525.926,24.255 C539.897,24.255 551.027,33.906 551.027,57.415 C551.027,80.924 539.897,90.579 525.926,90.579 C511.96,90.579 500.827,80.924 500.827,57.415 Z" id="Fill-10"></path>
            <path d="M566.809,39.585 L567.039,39.585 C570.56,32.09 575.106,25.161 584.416,25.161 L587.823,25.161 L587.823,33.226 C576.239,31.636 570.218,44.127 566.809,53.214 L566.809,88.759 L557.956,88.759 L557.956,26.071 L566.809,26.071 L566.809,39.585" id="Fill-11"></path>
            <polyline id="Fill-12" points="603.834 55.145 627.114 26.071 636.997 26.071 619.735 47.535 639.604 88.759 630.068 88.759 614.051 54.691 603.834 67.296 603.834 88.759 594.974 88.759 594.974 0.405 603.834 0.405 603.834 55.145"></polyline>
            <path d="M677.993,40.039 C674.472,34.816 670.268,31.752 663.681,31.752 C657.893,31.752 652.441,34.701 652.441,41.062 C652.441,56.391 685.493,49.695 685.493,70.818 C685.493,83.082 676.744,90.579 664.931,90.579 C654.824,90.579 646.647,86.148 641.541,77.403 L648.578,72.975 C651.985,79.449 657.438,83.082 664.931,83.082 C671.406,83.082 677.197,79.563 677.197,72.407 C677.197,56.622 644.152,64.116 644.152,41.629 C644.152,30.841 653.012,24.255 663.345,24.255 C672.089,24.255 679.353,27.887 684.239,35.158 L677.993,40.039" id="Fill-13"></path>
        </g>
    </g>
</svg>