<?xml version="1.0" encoding="UTF-8"?>
<svg width="697px" height="104px" viewBox="0 0 697 104" version="1.1" xmlns="http://www.w3.org/2000/svg" xmlns:xlink="http://www.w3.org/1999/xlink">
    <!-- Generator: Sketch 47.1 (45422) - http://www.bohemiancoding.com/sketch -->
    <title>GDG ourense logo@1x</title>
    <desc>Created with Sketch.</desc>
    <defs>
        <radialGradient cx="98.5722772%" cy="97.9702128%" fx="98.5722772%" fy="97.9702128%" r="326.355446%" gradientTransform="translate(0.985723,0.979702),scale(1.000000,0.716312),translate(-0.985723,-0.979702)" id="radialGradient-1">
            <stop stop-color="#BF3918" stop-opacity="0.2" offset="0%"></stop>
            <stop stop-color="#BF3918" stop-opacity="0.02" offset="100%"></stop>
        </radialGradient>
        <radialGradient cx="163.194444%" cy="157.496175%" fx="163.194444%" fy="157.496175%" r="263.725397%" gradientTransform="translate(1.631944,1.574962),scale(1.000000,0.688525),translate(-1.631944,-1.574962)" id="radialGradient-2">
            <stop stop-color="#273339" stop-opacity="0.2" offset="0%"></stop>
            <stop stop-color="#273339" stop-opacity="0.02" offset="100%"></stop>
        </radialGradient>
        <radialGradient cx="-1.22550336%" cy="0.758490566%" fx="-1.22550336%" fy="0.758490566%" r="167.864262%" gradientTransform="translate(-0.012255,0.007585),scale(1.000000,0.624738),translate(0.012255,-0.007585)" id="radialGradient-3">
            <stop stop-color="#FFFFFF" stop-opacity="0.1" offset="0%"></stop>
            <stop stop-color="#FFFFFF" stop-opacity="0" offset="100%"></stop>
        </radialGradient>
    </defs>
    <g id="Page-1" stroke="none" stroke-width="1" fill="none" fill-rule="evenodd">
        <g id="GDG-ourense-logo" transform="translate(0.000000, -3.000000)">
            <text id="Santiago" font-family="ProductSans-Regular, Product Sans" font-size="90" font-weight="normal" fill="#777878">
                <tspan x="359" y="86">Santiago</tspan>
            </text>
            <g id="XMLID_1_" transform="translate(0.000000, 3.000000)">
                <g id="XMLID_2_">
                    <path d="M59,43.2 L34,0 L0.6,0 L28.2,47.7 L0.6,95.4 L34,95.4 L59,52.2 C60.6,49.3 60.6,45.9 59,43.2 Z" id="Shape"></path>
                    <polygon id="XMLID_10_" fill="#FCC010" fill-rule="nonzero" points="44.7 76.1 36.7 62.4 17.7 95.3 34 95.3 44.9 76.5"></polygon>
                    <path d="M59,43.2 L34,0 L0.6,0 L28.2,47.7 L0.6,95.4 L34,95.4 L59,52.2 C60.6,49.3 60.6,45.9 59,43.2 Z" id="Shape"></path>
                    <polygon id="Shape" fill="#0C9E58" fill-rule="nonzero" points="28.2 47.6 36.7 62.4 17.7 95.3 0.6 95.3"></polygon>
                    <path d="M59,43.2 L34,0 L0.6,0 L28.2,47.7 L0.6,95.4 L34,95.4 L59,52.2 C60.6,49.3 60.6,45.9 59,43.2 Z" id="Shape"></path>
                    <polygon id="Shape" fill="#BF3918" fill-rule="nonzero" opacity="0.2" points="34 94.6 18.2 94.6 17.7 95.3 34 95.3 44.9 76.5 44.7 76.1"></polygon>
                    <path d="M59,43.2 L34,0 L0.6,0 L28.2,47.7 L0.6,95.4 L34,95.4 L59,52.2 C60.6,49.3 60.6,45.9 59,43.2 Z" id="Shape"></path>
                    <polygon id="Shape" fill="#273339" fill-rule="nonzero" opacity="0.2" points="1 94.6 0.6 95.3 17.7 95.3 18.2 94.6"></polygon>
                    <path d="M59,43.2 L34,0 L0.6,0 L28.2,47.7 L0.6,95.4 L34,95.4 L59,52.2 C60.6,49.3 60.6,45.9 59,43.2 Z" id="Shape"></path>
                    <polygon id="Shape" fill="#FFFFFF" fill-rule="nonzero" opacity="0.2" points="0.6 95.3 1 95.3 28.4 48 28.2 47.6"></polygon>
                    <path d="M59,43.2 L34,0 L0.6,0 L28.2,47.7 L0.6,95.4 L34,95.4 L59,52.2 C60.6,49.3 60.6,45.9 59,43.2 Z" id="Shape"></path>
                    <polygon id="XMLID_9_" fill="url(#radialGradient-1)" fill-rule="nonzero" points="44.9 76.5 44.9 76.5 36.7 62.4 34.8 65.9"></polygon>
                    <path d="M59,43.2 L34,0 L0.6,0 L28.2,47.7 L0.6,95.4 L34,95.4 L59,52.2 C60.6,49.3 60.6,45.9 59,43.2 Z" id="Shape"></path>
                    <polygon id="XMLID_8_" fill="url(#radialGradient-2)" fill-rule="nonzero" points="34.8 65.9 36.7 62.4 28.2 47.6 24.1 54.7"></polygon>
                    <path d="M59,43.2 L34,0 L0.6,0 L28.2,47.7 L0.6,95.4 L34,95.4 L59,52.2 C60.6,49.3 60.6,45.9 59,43.2 Z" id="Shape"></path>
                    <g id="XMLID_5_" fill-rule="nonzero" fill="#527BBD">
                        <g id="XMLID_6_">
                            <polygon id="XMLID_7_" points="17.7 0 0.6 0 44.9 76.5 53.4 61.7 53.4 61.7"></polygon>
                        </g>
                    </g>
                    <path d="M59,43.2 L34,0 L0.6,0 L28.2,47.7 L0.6,95.4 L34,95.4 L59,52.2 C60.6,49.3 60.6,45.9 59,43.2 Z" id="Shape"></path>
                    <path d="M59,52.1 C60.6,49.3 60.6,45.9 59,43.2 L34,0 L17.7,0 L53.4,61.7 L59,52.1 Z" id="Shape" fill="#DC4537" fill-rule="nonzero"></path>
                    <path d="M59,43.2 L34,0 L0.6,0 L28.2,47.7 L0.6,95.4 L34,95.4 L59,52.2 C60.6,49.3 60.6,45.9 59,43.2 Z" id="Shape"></path>
                    <polygon id="Shape" fill="#293271" fill-rule="nonzero" opacity="0.2" points="53.4 61.7 53.2 61.3 44.9 75.8 1 0 0.6 0 44.9 76.5"></polygon>
                    <path d="M59,43.2 L34,0 L0.6,0 L28.2,47.7 L0.6,95.4 L34,95.4 L59,52.2 C60.6,49.3 60.6,45.9 59,43.2 Z" id="Shape"></path>
                    <path d="M34,0.7 L59,43.9 C59.7,45.2 60.1,46.6 60.2,48 C60.3,46.3 59.9,44.6 59,43.2 L34,0 L0.6,0 L1,0.7 L34,0.7 Z" id="Shape" fill="#FFFFFF" fill-rule="nonzero" opacity="0.2"></path>
                    <path d="M59,43.2 L34,0 L0.6,0 L28.2,47.7 L0.6,95.4 L34,95.4 L59,52.2 C60.6,49.3 60.6,45.9 59,43.2 Z" id="Shape"></path>
                    <path d="M53.4,61.7 L58.9,52.1 C59.8,50.6 60.1,48.9 60.1,47.3 C60,48.7 59.7,50.1 58.9,51.4 L53.1,61.4 L53.4,61.7 Z" id="XMLID_4_" fill="#3F2824" fill-rule="nonzero" opacity="0.2"></path>
                    <path d="M59,43.2 L34,0 L0.6,0 L28.2,47.7 L0.6,95.4 L34,95.4 L59,52.2 C60.6,49.3 60.6,45.9 59,43.2 Z" id="Shape"></path>
                    <path d="M59,43.2 L34,0 L0.6,0 L28.2,47.7 L0.6,95.4 L34,95.4 L59,52.2 C60.6,49.3 60.6,45.9 59,43.2 Z" id="XMLID_3_" fill="url(#radialGradient-3)" fill-rule="nonzero"></path>
                </g>
            </g>
            <g id="Group" transform="translate(96.000000, 9.000000)" fill-rule="nonzero" fill="#777878">
                <path d="M108,2.3 L85.2,2.3 L85.2,76.3 L108,76.3 C131.2,76.3 145.8,61 145.8,39.3 C145.7,17.7 131.2,2.3 108,2.3 Z M108.3,65.1 L96.3,65.1 L96.3,13.5 L108.3,13.5 C124.5,13.5 134.5,22.6 134.5,39.3 C134.5,56.1 124.5,65.1 108.3,65.1 Z" id="Shape"></path>
                <path d="M40.3,36 L40.3,47 L65.3,47 C64.5,52.6 62.5,57 59.6,59.9 C55.9,63.6 50.1,67.7 39.9,67.7 C24.2,67.7 12,55.1 12,39.4 C12,23.7 24.3,11.1 39.9,11.1 C48.4,11.1 54.5,14.4 59.1,18.7 L66.6,11.2 C60.2,5.1 51.8,0.5 39.9,0.5 C18.4,0.5 0.4,18 0.4,39.5 C0.4,61 18.5,78.5 39.9,78.5 C51.5,78.5 60.2,74.7 67.1,67.6 C74.1,60.6 76.3,50.7 76.3,42.7 C76.3,40.2 76.1,38.1 75.7,36.2 L40.3,36.2 L40.3,36 Z" id="Shape"></path>
                <path d="M228.3,36 L192.8,36 L192.8,47 L217.8,47 C217,52.6 215,57 212.1,59.9 C208.4,63.6 202.6,67.7 192.4,67.7 C176.7,67.7 164.5,55.1 164.5,39.4 C164.5,23.7 176.8,11.1 192.4,11.1 C200.9,11.1 207,14.4 211.6,18.7 L219.1,11.2 C212.7,5.1 204.3,0.5 192.4,0.5 C170.9,0.5 152.9,18 152.9,39.5 C152.9,61 171,78.5 192.4,78.5 C204,78.5 212.7,74.7 219.6,67.6 C226.6,60.6 228.8,50.7 228.8,42.7 C228.9,40 228.7,37.9 228.3,36 Z" id="Shape"></path>
            </g>
        </g>
    </g>
</svg>