<?xml version="1.0" encoding="UTF-8"?>
<svg width="710px" height="96px" viewBox="0 0 710 96" version="1.1" xmlns="http://www.w3.org/2000/svg" xmlns:xlink="http://www.w3.org/1999/xlink">
    <!-- Generator: Sketch 47.1 (45422) - http://www.bohemiancoding.com/sketch -->
    <title>GDG ourense logo@1x</title>
    <desc>Created with Sketch.</desc>
    <defs>
        <radialGradient cx="98.5722772%" cy="97.9702128%" fx="98.5722772%" fy="97.9702128%" r="326.355446%" gradientTransform="translate(0.985723,0.979702),scale(1.000000,0.716312),translate(-0.985723,-0.979702)" id="radialGradient-1">
            <stop stop-color="#BF3918" stop-opacity="0.2" offset="0%"></stop>
            <stop stop-color="#BF3918" stop-opacity="0.02" offset="100%"></stop>
        </radialGradient>
        <radialGradient cx="163.194444%" cy="157.496175%" fx="163.194444%" fy="157.496175%" r="263.725397%" gradientTransform="translate(1.631944,1.574962),scale(1.000000,0.688525),translate(-1.631944,-1.574962)" id="radialGradient-2">
            <stop stop-color="#273339" stop-opacity="0.2" offset="0%"></stop>
            <stop stop-color="#273339" stop-opacity="0.02" offset="100%"></stop>
        </radialGradient>
        <radialGradient cx="-1.22550336%" cy="0.758490566%" fx="-1.22550336%" fy="0.758490566%" r="167.864262%" gradientTransform="translate(-0.012255,0.007585),scale(1.000000,0.624738),translate(0.012255,-0.007585)" id="radialGradient-3">
            <stop stop-color="#FFFFFF" stop-opacity="0.1" offset="0%"></stop>
            <stop stop-color="#FFFFFF" stop-opacity="0" offset="100%"></stop>
        </radialGradient>
    </defs>
    <g id="Page-1" stroke="none" stroke-width="1" fill="none" fill-rule="evenodd">
        <g id="GDG-ourense-logo">
            <g id="Group" transform="translate(351.000000, 11.000000)" fill-rule="nonzero" fill="#777878">
                <path d="M36.7,0.6 C17.4,-0.2 0.9,16.2 0.8,36.7 C0.7,56.6 16.1,74 38.1,73.3 C56.7,72.7 72.6,57.7 72.6,36.7 C72.5,15.2 55,-0.2 36.7,0.6 Z M56.2,55.6 C49.3,63.3 40.6,66 30.6,63.6 C20.3,61.2 13.9,54.3 11.2,44.1 C10.6,41.8 10.2,39.4 10.3,37.2 C10,28.8 13,21.8 19,16.2 C26.2,9.5 34.7,7.9 43.9,10.4 C53.6,13 59.7,19.7 62.1,29.4 C64.3,39.1 62.9,48.1 56.2,55.6 Z" id="Shape"></path>
                <path d="M174.3,49.7 C179.9,49.8 185.5,49.7 191.1,49.7 L205.1,49.7 C209.9,49.7 210,49.7 209.7,44.9 C209.1,33.3 202,23.6 189.3,22.5 C179.5,21.6 170.5,26.1 166,34.8 C162.3,42.1 162,49.8 164.6,57.5 C167,64.6 171.9,69.6 179.1,72.1 C183.5,73.6 188.1,73.9 192.7,72.9 C199.6,71.4 205,67.7 208.6,61.5 C209.2,60.5 209,60.1 208,59.6 C206.2,58.8 204.5,58 202.8,57 C201.5,56.2 200.7,56.3 199.8,57.7 C197.7,61.2 194.6,63.8 190.5,64.4 C181.6,65.9 174.3,60.5 172.8,51.6 C172.4,50.2 172.7,49.7 174.3,49.7 Z M173.7,40.3 C175.3,35.4 179.9,31.5 184.8,31 C191.1,30.4 196,32.7 198.7,37.7 C200.7,41.4 200.5,41.9 196.3,41.9 L186.7,41.9 C182.8,41.9 178.9,41.9 175,41.9 C173.7,41.9 173.3,41.7 173.7,40.3 Z" id="Shape"></path>
                <path d="M322.4,49.7 C328.1,49.7 333.7,49.7 339.4,49.7 C345,49.7 350.6,49.6 356.2,49.7 C357.8,49.7 358.4,49.1 358.2,47.6 C358.1,46.5 358,45.4 357.9,44.2 C357.3,37.7 355.2,32 350.2,27.5 C346.2,24 341.5,22.6 336.4,22.3 C330.2,22 324.6,23.4 319.8,27.7 C313.3,33.5 311,40.9 311.3,49.4 C311.7,61.3 320,72.4 333.4,73.2 C343.3,73.8 351.2,70.2 356.6,61.7 C357.3,60.6 357.2,60 356,59.4 C354.1,58.6 352.2,57.6 350.4,56.7 C349.4,56.2 348.8,56.3 348.3,57.3 C347.4,58.9 346.2,60.4 344.7,61.6 C340,65.2 334.9,65.7 329.6,63.4 C324.4,61.1 321.6,56.7 320.8,51.1 C320.7,49.6 321.5,49.7 322.4,49.7 Z M322,40.6 C323.4,35.5 328.7,31.2 333.9,31 C341.3,30.8 346,33.9 347.9,40 C348.3,41.4 348.3,42 346.5,42 C342.7,41.9 338.8,42 335,42 C331,42 327.1,42 323.1,42 C322,41.9 321.6,41.7 322,40.6 Z" id="Shape"></path>
                <path d="M298.6,46.4 C296.2,45.1 293.6,44.5 291,43.7 C287.4,42.7 283.6,42.3 280.2,40.5 C278.6,39.7 277.4,38.6 277.4,36.6 C277.4,34.6 278.6,33.4 280.2,32.5 C285.8,29.3 292.9,30.9 296.5,36.2 C297,36.9 297.4,37.3 298.3,36.9 C300.4,36 302.5,35.2 304.6,34.3 C305.3,34 305.5,33.6 305.1,32.9 C304.3,31.5 303.6,30.2 302.5,29 C295.8,21.7 283.2,20.7 274.8,25.4 C270.1,28 267.7,31.9 267.8,37.4 C267.9,42.8 270.9,46.1 275.4,48.4 C279.4,50.4 283.7,51.1 288,52.2 C290.5,52.8 293,53.6 294.9,55.4 C297.4,57.6 297.2,61 294.6,62.8 C291.7,64.8 288.5,65.7 285,64.9 C280.7,64 277.6,61.6 275.7,57.7 C275,56.2 274.2,56.2 272.9,56.8 C271.4,57.5 269.8,58.2 268.2,58.8 C266.8,59.3 266.4,59.9 267.1,61.4 C271.2,69.6 278,73.1 285.7,73.6 C291,73.5 295,72.9 298.6,70.7 C303.6,67.8 306.5,63.7 306.2,57.6 C305.9,52.2 303,48.7 298.6,46.4 Z" id="Shape"></path>
                <path d="M121.8,24 C119.8,24 117.8,24.1 115.8,24 C114.4,23.9 113.9,24.3 113.9,25.9 C114,33.5 114,41.1 113.9,48.8 C113.9,51.3 113.7,53.8 112.8,56.2 C109.4,64.9 101.8,66.6 95.2,63.5 C91,61.5 90.1,57.6 90.1,53.3 C90.1,44.2 90.1,35 90.1,25.9 C90.1,24.5 89.7,24 88.3,24.1 C86.4,24.2 84.5,24.2 82.6,24.1 C81,24 80.6,24.6 80.6,26.2 C80.7,35.8 80.6,45.3 80.6,54.9 C80.6,57.7 81,60.4 82.1,63 C84.8,69.9 90.3,73.4 98.4,73.5 C104.7,73.5 109.8,71.1 114.2,65.7 C114.2,67.7 114.2,69.2 114.2,70.6 C114.2,71.6 114.6,71.9 115.5,71.9 C117.5,71.8 119.5,71.8 121.5,71.9 C122.7,71.9 123.1,71.6 123.1,70.3 C123.1,55.3 123.1,40.3 123.1,25.3 C123.1,24.2 122.7,23.9 121.8,24 Z" id="Shape"></path>
                <path d="M260,43.4 C260,41.3 259.9,39.3 259.6,37.2 C258,26.2 250,21.7 240.2,22.4 C234.7,22.8 230.3,25.3 226.5,29.5 C226.5,28.1 226.4,26.8 226.5,25.4 C226.6,24.3 226.2,23.8 225,23.8 C223.2,23.9 221.3,23.9 219.5,23.8 C218.1,23.7 217.6,24.1 217.6,25.7 C217.7,37.4 217.6,49.1 217.6,60.8 C217.6,63.8 217.7,66.8 217.6,69.9 C217.5,71.3 218,71.7 219.4,71.7 C221.3,71.6 223.2,71.6 225.1,71.7 C226.5,71.8 226.9,71.3 226.9,69.9 C226.8,61.8 226.9,53.7 226.9,45.5 C226.9,42.5 227.6,39.7 229.1,37 C232.8,30.5 241.5,28.7 247.3,33.4 C249.8,35.5 250.6,38.5 250.6,41.7 C250.6,51 250.6,60.3 250.6,69.6 C250.6,71 250.9,71.7 252.4,71.5 C254.2,71.4 255.9,71.4 257.7,71.5 C259.5,71.6 260.1,71.1 260.1,69.2 C260,60.8 260,52.1 260,43.4 Z" id="Shape"></path>
                <path d="M162.3,23.4 C159.2,22.5 156.1,22.2 153,23.1 C148.8,24.3 145.2,26.6 142.6,30.4 C142.6,28.7 142.6,27 142.6,25.4 C142.6,24.4 142.2,24 141.3,24.1 C139.2,24.1 137.1,24.1 135.1,24.1 C134,24.1 133.7,24.5 133.7,25.6 C133.7,40.6 133.7,55.6 133.7,70.6 C133.7,71.7 134.1,72 135.1,72 C137.1,71.9 139,71.9 141,72 C142.8,72.2 143.1,71.5 143,69.9 C142.9,61.8 143,53.7 143,45.5 C143,43.7 143.4,41.9 144.2,40.2 C147.2,33.9 152.3,31.4 159.4,32.7 C160.2,32.9 160.7,33 161,32.1 C161.7,29.8 162.5,27.4 163.2,25.1 C163.2,24.1 163,23.6 162.3,23.4 Z" id="Shape"></path>
            </g>
            <g id="XMLID_1_">
                <g id="XMLID_2_">
                    <path d="M59,43.2 L34,0 L0.6,0 L28.2,47.7 L0.6,95.4 L34,95.4 L59,52.2 C60.6,49.3 60.6,45.9 59,43.2 Z" id="Shape"></path>
                    <polygon id="XMLID_10_" fill="#FCC010" fill-rule="nonzero" points="44.7 76.1 36.7 62.4 17.7 95.3 34 95.3 44.9 76.5"></polygon>
                    <path d="M59,43.2 L34,0 L0.6,0 L28.2,47.7 L0.6,95.4 L34,95.4 L59,52.2 C60.6,49.3 60.6,45.9 59,43.2 Z" id="Shape"></path>
                    <polygon id="Shape" fill="#0C9E58" fill-rule="nonzero" points="28.2 47.6 36.7 62.4 17.7 95.3 0.6 95.3"></polygon>
                    <path d="M59,43.2 L34,0 L0.6,0 L28.2,47.7 L0.6,95.4 L34,95.4 L59,52.2 C60.6,49.3 60.6,45.9 59,43.2 Z" id="Shape"></path>
                    <polygon id="Shape" fill="#BF3918" fill-rule="nonzero" opacity="0.2" points="34 94.6 18.2 94.6 17.7 95.3 34 95.3 44.9 76.5 44.7 76.1"></polygon>
                    <path d="M59,43.2 L34,0 L0.6,0 L28.2,47.7 L0.6,95.4 L34,95.4 L59,52.2 C60.6,49.3 60.6,45.9 59,43.2 Z" id="Shape"></path>
                    <polygon id="Shape" fill="#273339" fill-rule="nonzero" opacity="0.2" points="1 94.6 0.6 95.3 17.7 95.3 18.2 94.6"></polygon>
                    <path d="M59,43.2 L34,0 L0.6,0 L28.2,47.7 L0.6,95.4 L34,95.4 L59,52.2 C60.6,49.3 60.6,45.9 59,43.2 Z" id="Shape"></path>
                    <polygon id="Shape" fill="#FFFFFF" fill-rule="nonzero" opacity="0.2" points="0.6 95.3 1 95.3 28.4 48 28.2 47.6"></polygon>
                    <path d="M59,43.2 L34,0 L0.6,0 L28.2,47.7 L0.6,95.4 L34,95.4 L59,52.2 C60.6,49.3 60.6,45.9 59,43.2 Z" id="Shape"></path>
                    <polygon id="XMLID_9_" fill="url(#radialGradient-1)" fill-rule="nonzero" points="44.9 76.5 44.9 76.5 36.7 62.4 34.8 65.9"></polygon>
                    <path d="M59,43.2 L34,0 L0.6,0 L28.2,47.7 L0.6,95.4 L34,95.4 L59,52.2 C60.6,49.3 60.6,45.9 59,43.2 Z" id="Shape"></path>
                    <polygon id="XMLID_8_" fill="url(#radialGradient-2)" fill-rule="nonzero" points="34.8 65.9 36.7 62.4 28.2 47.6 24.1 54.7"></polygon>
                    <path d="M59,43.2 L34,0 L0.6,0 L28.2,47.7 L0.6,95.4 L34,95.4 L59,52.2 C60.6,49.3 60.6,45.9 59,43.2 Z" id="Shape"></path>
                    <g id="XMLID_5_" fill-rule="nonzero" fill="#527BBD">
                        <g id="XMLID_6_">
                            <polygon id="XMLID_7_" points="17.7 0 0.6 0 44.9 76.5 53.4 61.7 53.4 61.7"></polygon>
                        </g>
                    </g>
                    <path d="M59,43.2 L34,0 L0.6,0 L28.2,47.7 L0.6,95.4 L34,95.4 L59,52.2 C60.6,49.3 60.6,45.9 59,43.2 Z" id="Shape"></path>
                    <path d="M59,52.1 C60.6,49.3 60.6,45.9 59,43.2 L34,0 L17.7,0 L53.4,61.7 L59,52.1 Z" id="Shape" fill="#DC4537" fill-rule="nonzero"></path>
                    <path d="M59,43.2 L34,0 L0.6,0 L28.2,47.7 L0.6,95.4 L34,95.4 L59,52.2 C60.6,49.3 60.6,45.9 59,43.2 Z" id="Shape"></path>
                    <polygon id="Shape" fill="#293271" fill-rule="nonzero" opacity="0.2" points="53.4 61.7 53.2 61.3 44.9 75.8 1 0 0.6 0 44.9 76.5"></polygon>
                    <path d="M59,43.2 L34,0 L0.6,0 L28.2,47.7 L0.6,95.4 L34,95.4 L59,52.2 C60.6,49.3 60.6,45.9 59,43.2 Z" id="Shape"></path>
                    <path d="M34,0.7 L59,43.9 C59.7,45.2 60.1,46.6 60.2,48 C60.3,46.3 59.9,44.6 59,43.2 L34,0 L0.6,0 L1,0.7 L34,0.7 Z" id="Shape" fill="#FFFFFF" fill-rule="nonzero" opacity="0.2"></path>
                    <path d="M59,43.2 L34,0 L0.6,0 L28.2,47.7 L0.6,95.4 L34,95.4 L59,52.2 C60.6,49.3 60.6,45.9 59,43.2 Z" id="Shape"></path>
                    <path d="M53.4,61.7 L58.9,52.1 C59.8,50.6 60.1,48.9 60.1,47.3 C60,48.7 59.7,50.1 58.9,51.4 L53.1,61.4 L53.4,61.7 Z" id="XMLID_4_" fill="#3F2824" fill-rule="nonzero" opacity="0.2"></path>
                    <path d="M59,43.2 L34,0 L0.6,0 L28.2,47.7 L0.6,95.4 L34,95.4 L59,52.2 C60.6,49.3 60.6,45.9 59,43.2 Z" id="Shape"></path>
                    <path d="M59,43.2 L34,0 L0.6,0 L28.2,47.7 L0.6,95.4 L34,95.4 L59,52.2 C60.6,49.3 60.6,45.9 59,43.2 Z" id="XMLID_3_" fill="url(#radialGradient-3)" fill-rule="nonzero"></path>
                </g>
            </g>
            <g id="Group" transform="translate(96.000000, 6.000000)" fill-rule="nonzero" fill="#777878">
                <path d="M108,2.3 L85.2,2.3 L85.2,76.3 L108,76.3 C131.2,76.3 145.8,61 145.8,39.3 C145.7,17.7 131.2,2.3 108,2.3 Z M108.3,65.1 L96.3,65.1 L96.3,13.5 L108.3,13.5 C124.5,13.5 134.5,22.6 134.5,39.3 C134.5,56.1 124.5,65.1 108.3,65.1 Z" id="Shape"></path>
                <path d="M40.3,36 L40.3,47 L65.3,47 C64.5,52.6 62.5,57 59.6,59.9 C55.9,63.6 50.1,67.7 39.9,67.7 C24.2,67.7 12,55.1 12,39.4 C12,23.7 24.3,11.1 39.9,11.1 C48.4,11.1 54.5,14.4 59.1,18.7 L66.6,11.2 C60.2,5.1 51.8,0.5 39.9,0.5 C18.4,0.5 0.4,18 0.4,39.5 C0.4,61 18.5,78.5 39.9,78.5 C51.5,78.5 60.2,74.7 67.1,67.6 C74.1,60.6 76.3,50.7 76.3,42.7 C76.3,40.2 76.1,38.1 75.7,36.2 L40.3,36.2 L40.3,36 Z" id="Shape"></path>
                <path d="M228.3,36 L192.8,36 L192.8,47 L217.8,47 C217,52.6 215,57 212.1,59.9 C208.4,63.6 202.6,67.7 192.4,67.7 C176.7,67.7 164.5,55.1 164.5,39.4 C164.5,23.7 176.8,11.1 192.4,11.1 C200.9,11.1 207,14.4 211.6,18.7 L219.1,11.2 C212.7,5.1 204.3,0.5 192.4,0.5 C170.9,0.5 152.9,18 152.9,39.5 C152.9,61 171,78.5 192.4,78.5 C204,78.5 212.7,74.7 219.6,67.6 C226.6,60.6 228.8,50.7 228.8,42.7 C228.9,40 228.7,37.9 228.3,36 Z" id="Shape"></path>
            </g>
        </g>
    </g>
</svg>