<?xml version="1.0" encoding="UTF-8" standalone="no"?>
<!-- Created with Inkscape (http://www.inkscape.org/) -->

<svg
   xmlns:dc="http://purl.org/dc/elements/1.1/"
   xmlns:cc="http://creativecommons.org/ns#"
   xmlns:rdf="http://www.w3.org/1999/02/22-rdf-syntax-ns#"
   xmlns:svg="http://www.w3.org/2000/svg"
   xmlns="http://www.w3.org/2000/svg"
   xmlns:sodipodi="http://sodipodi.sourceforge.net/DTD/sodipodi-0.dtd"
   xmlns:inkscape="http://www.inkscape.org/namespaces/inkscape"
   version="1.1"
   id="svg2"
   xml:space="preserve"
   width="412.68506"
   height="385.77399"
   viewBox="0 0 412.68505 385.77399"
   sodipodi:docname="logo_completo.svg"
   inkscape:version="0.92.2 (5c3e80d, 2017-08-06)"><metadata
     id="metadata8"><rdf:RDF><cc:Work
         rdf:about=""><dc:format>image/svg+xml</dc:format><dc:type
           rdf:resource="http://purl.org/dc/dcmitype/StillImage" /><dc:title /></cc:Work></rdf:RDF></metadata><defs
     id="defs6"><clipPath
       clipPathUnits="userSpaceOnUse"
       id="clipPath20"><path
         d="M 0,0 H 841.89 V 595.28 H 0 Z"
         id="path18"
         inkscape:connector-curvature="0" /></clipPath><clipPath
       clipPathUnits="userSpaceOnUse"
       id="clipPath26"><path
         d="M 266,138 H 576 V 455 H 266 Z"
         id="path24"
         inkscape:connector-curvature="0" /></clipPath><clipPath
       clipPathUnits="userSpaceOnUse"
       id="clipPath30"><path
         d="M 0,0 H 842 V 596 H 0 Z"
         id="path28"
         inkscape:connector-curvature="0" /></clipPath><clipPath
       clipPathUnits="userSpaceOnUse"
       id="clipPath34"><path
         d="M 0,595.28 H 841.89 V 0 H 0 Z"
         id="path32"
         inkscape:connector-curvature="0" /></clipPath><clipPath
       clipPathUnits="userSpaceOnUse"
       id="clipPath38"><path
         d="M 0,0 H 842 V 596 H 0 Z"
         id="path36"
         inkscape:connector-curvature="0" /></clipPath></defs><sodipodi:namedview
     pagecolor="#ffffff"
     bordercolor="#666666"
     borderopacity="1"
     objecttolerance="10"
     gridtolerance="10"
     guidetolerance="10"
     inkscape:pageopacity="0"
     inkscape:pageshadow="2"
     inkscape:window-width="1880"
     inkscape:window-height="1051"
     id="namedview4"
     showgrid="false"
     inkscape:zoom="0.29733907"
     inkscape:cx="-838.11568"
     inkscape:cy="193.82903"
     inkscape:window-x="40"
     inkscape:window-y="0"
     inkscape:window-maximized="1"
     inkscape:current-layer="g10" /><g
     id="g10"
     inkscape:groupmode="layer"
     inkscape:label="FINAL_logo_aindustriosa"
     transform="matrix(1.3333333,0,0,-1.3333333,-355.11332,588.7983)"><g
       id="g12" /><g
       id="g14"><g
         id="g16"
         clip-path="url(#clipPath20)"><g
           id="g22" /><g
           id="g172"><g
             clip-path="url(#clipPath26)"
             id="g170"><g
               id="g40" /><g
               id="g46"><g
                 clip-path="url(#clipPath30)"
                 id="g44"><path
                   d="m 266.335,272.563 h 12.283 v 46.032 h -12.283 z"
                   style="fill:#4c4e52;fill-opacity:1;fill-rule:nonzero;stroke:none"
                   id="path42"
                   inkscape:connector-curvature="0" /></g></g><g
               id="g168"><g
                 clip-path="url(#clipPath34)"
                 id="g166"><g
                   clip-path="url(#clipPath38)"
                   id="g164"><path
                     d="m 308.5649,318.5957 h -8.479 c -0.869,0 -1.684,-0.299 -2.445,-0.896 -0.761,-0.598 -1.286,-1.313 -1.576,-2.147 v 3.043 h -12.229 v -46.032 h 12.229 v 37.391 h 4.402 v -37.391 h 12.284 v 41.901 c 0,1.051 -0.435,2.002 -1.305,2.854 -0.869,0.851 -1.83,1.277 -2.881,1.277"
                     style="fill:#4c4e52;fill-opacity:1;fill-rule:nonzero;stroke:none"
                     id="path48"
                     inkscape:connector-curvature="0" /><path
                     d="m 333.819,280.879 h -4.402 v 29.402 h 4.402 z m 12.283,33.586 c 0,1.051 -0.434,2.002 -1.305,2.853 -0.869,0.852 -1.83,1.278 -2.88,1.278 h -24.674 v -46.033 h 24.674 c 1.05,0 2.011,0.426 2.88,1.278 0.871,0.851 1.305,1.802 1.305,2.853 z"
                     style="fill:#4c4e52;fill-opacity:1;fill-rule:nonzero;stroke:none"
                     id="path50"
                     inkscape:connector-curvature="0" /><path
                     d="m 375.269,272.5635 c 1.05,0 2.011,0.426 2.88,1.277 0.871,0.852 1.305,1.802 1.305,2.854 v 41.901 H 367.17 v -37.717 h -4.401 v 37.717 h -12.175 v -41.901 c 0,-1.052 0.426,-2.002 1.278,-2.854 0.851,-0.851 1.801,-1.277 2.852,-1.277 z"
                     style="fill:#4c4e52;fill-opacity:1;fill-rule:nonzero;stroke:none"
                     id="path52"
                     inkscape:connector-curvature="0" /><path
                     d="m 406.3022,276.6943 v 20.216 c 0,1.051 -0.437,2.002 -1.305,2.855 -0.87,0.85 -1.831,1.276 -2.881,1.276 h -6.413 v 9.24 h 12.066 l -1.904,8.314 h -18.206 c -1.051,0 -2.002,-0.425 -2.853,-1.277 -0.851,-0.852 -1.277,-1.803 -1.277,-2.853 v -17.555 c 0,-1.05 0.426,-2.009 1.277,-2.879 0.851,-0.87 1.802,-1.304 2.853,-1.304 h 6.414 v -11.848 h -11.577 l 1.956,-8.316 h 17.664 c 1.05,0 2.011,0.426 2.881,1.277 0.868,0.852 1.305,1.802 1.305,2.854"
                     style="fill:#4c4e52;fill-opacity:1;fill-rule:nonzero;stroke:none"
                     id="path54"
                     inkscape:connector-curvature="0" /><path
                     d="m 409.9233,318.5957 -2.01,-8.314 h 7.445 v -37.718 h 12.283 v 37.718 h 7.5 l -2.01,8.314 z"
                     style="fill:#4c4e52;fill-opacity:1;fill-rule:nonzero;stroke:none"
                     id="path56"
                     inkscape:connector-curvature="0" /><path
                     d="m 453.583,298.758 h -4.674 v 11.523 h 4.674 z m 10.271,-6.602 c 0.581,0.741 0.87,1.531 0.87,2.365 v 19.944 c 0,1.051 -0.426,2.002 -1.276,2.853 -0.853,0.852 -1.802,1.278 -2.855,1.278 h -23.858 v -46.033 h 12.174 v 17.828 h 0.272 l 6.033,-17.828 h 12.662 l -6.086,18.043 c 0.797,0.291 1.484,0.807 2.064,1.55"
                     style="fill:#4c4e52;fill-opacity:1;fill-rule:nonzero;stroke:none"
                     id="path58"
                     inkscape:connector-curvature="0" /><path
                     d="m 469.712,272.563 h 12.283 v 46.032 h -12.283 z"
                     style="fill:#4c4e52;fill-opacity:1;fill-rule:nonzero;stroke:none"
                     id="path60"
                     inkscape:connector-curvature="0" /><path
                     d="m 502.097,280.879 h -4.402 v 29.402 h 4.402 z m 10.978,-7.038 c 0.869,0.851 1.305,1.802 1.305,2.853 v 37.771 c 0,1.051 -0.436,2.002 -1.305,2.853 -0.869,0.852 -1.83,1.278 -2.879,1.278 h -20.545 c -1.05,0 -2.002,-0.426 -2.853,-1.278 -0.852,-0.851 -1.277,-1.802 -1.277,-2.853 v -37.771 c 0,-1.051 0.425,-2.002 1.277,-2.853 0.851,-0.852 1.803,-1.278 2.853,-1.278 h 20.545 c 1.049,0 2.01,0.426 2.879,1.278"
                     style="fill:#4c4e52;fill-opacity:1;fill-rule:nonzero;stroke:none"
                     id="path62"
                     inkscape:connector-curvature="0" /><path
                     d="m 536.3193,301.041 h -6.414 v 9.24 h 12.066 l -1.902,8.315 h -18.207 c -1.053,0 -2.004,-0.426 -2.855,-1.278 -0.85,-0.851 -1.276,-1.802 -1.276,-2.853 V 296.91 c 0,-1.05 0.426,-2.009 1.276,-2.879 0.851,-0.87 1.802,-1.303 2.855,-1.303 h 6.412 v -11.849 h -11.576 l 1.957,-8.316 h 17.664 c 1.051,0 2.01,0.426 2.879,1.278 0.871,0.851 1.305,1.802 1.305,2.853 v 20.216 c 0,1.051 -0.434,2.002 -1.305,2.856 -0.869,0.849 -1.828,1.275 -2.879,1.275"
                     style="fill:#4c4e52;fill-opacity:1;fill-rule:nonzero;stroke:none"
                     id="path64"
                     inkscape:connector-curvature="0" /><path
                     d="m 556.7158,284.1943 1.957,8.314 2.012,-8.314 z m 8.262,34.401 h -16.793 l -1.903,-8.314 h 4.131 l -8.859,-37.718 h 12.445 c 0.508,2.174 0.762,3.278 0.762,3.316 h 7.826 l 0.109,-0.109 0.706,-3.207 h 12.447 z"
                     style="fill:#4c4e52;fill-opacity:1;fill-rule:nonzero;stroke:none"
                     id="path66"
                     inkscape:connector-curvature="0" /><path
                     d="m 324.8794,255.6182 h -1.025 v -11.402 h 5.392 v 0.978 h -4.367 z"
                     style="fill:#4c4e52;fill-opacity:1;fill-rule:nonzero;stroke:none"
                     id="path68"
                     inkscape:connector-curvature="0" /><path
                     d="m 335.0103,246.3945 c 0,-0.196 -0.037,-0.381 -0.111,-0.553 -0.075,-0.172 -0.174,-0.322 -0.301,-0.449 -0.129,-0.127 -0.277,-0.227 -0.449,-0.302 -0.174,-0.074 -0.358,-0.111 -0.553,-0.111 h -0.652 c -0.198,0 -0.381,0.037 -0.553,0.111 -0.172,0.075 -0.322,0.175 -0.449,0.302 -0.127,0.127 -0.229,0.277 -0.303,0.449 -0.074,0.172 -0.111,0.357 -0.111,0.553 v 0.342 c 0,0.196 0.037,0.381 0.111,0.553 0.074,0.171 0.176,0.323 0.303,0.453 0.127,0.13 0.277,0.231 0.449,0.306 0.172,0.075 0.355,0.112 0.553,0.112 h 2.066 z m 0.279,5.423 c -0.218,0.218 -0.472,0.389 -0.763,0.513 -0.291,0.125 -0.602,0.187 -0.93,0.187 h -0.574 c -0.328,0 -0.639,-0.062 -0.93,-0.187 -0.291,-0.124 -0.545,-0.295 -0.764,-0.513 -0.216,-0.218 -0.388,-0.472 -0.511,-0.764 -0.125,-0.291 -0.188,-0.601 -0.188,-0.93 v -0.08 l 0.979,-0.159 v 0.295 c 0,0.195 0.037,0.38 0.111,0.553 0.074,0.172 0.174,0.321 0.303,0.449 0.127,0.127 0.275,0.228 0.449,0.302 0.172,0.074 0.355,0.111 0.551,0.111 h 0.574 c 0.195,0 0.379,-0.037 0.553,-0.111 0.172,-0.074 0.32,-0.175 0.449,-0.302 0.127,-0.128 0.226,-0.277 0.301,-0.449 0.074,-0.173 0.111,-0.358 0.111,-0.553 v -1.257 h -2.066 c -0.33,0 -0.639,-0.062 -0.932,-0.186 -0.291,-0.125 -0.545,-0.296 -0.762,-0.513 -0.219,-0.218 -0.388,-0.472 -0.513,-0.764 -0.125,-0.292 -0.188,-0.601 -0.188,-0.93 v -0.079 c 0,-0.329 0.063,-0.639 0.188,-0.931 0.125,-0.291 0.294,-0.546 0.513,-0.763 0.217,-0.217 0.471,-0.388 0.762,-0.513 0.293,-0.124 0.602,-0.187 0.932,-0.187 h 0.246 c 0.398,0 0.763,0.089 1.097,0.267 0.334,0.177 0.612,0.412 0.834,0.704 l 0.541,-0.812 h 0.327 v 5.908 c 0,0.329 -0.063,0.639 -0.188,0.93 -0.123,0.292 -0.295,0.546 -0.512,0.764"
                     style="fill:#4c4e52;fill-opacity:1;fill-rule:nonzero;stroke:none"
                     id="path70"
                     inkscape:connector-curvature="0" /><path
                     d="m 342.4067,246.3945 c 0,-0.196 -0.037,-0.381 -0.111,-0.553 -0.076,-0.172 -0.176,-0.322 -0.303,-0.449 -0.127,-0.127 -0.277,-0.227 -0.449,-0.302 -0.172,-0.074 -0.358,-0.111 -0.553,-0.111 h -0.652 c -0.196,0 -0.381,0.037 -0.553,0.111 -0.172,0.075 -0.322,0.175 -0.449,0.302 -0.127,0.127 -0.229,0.277 -0.303,0.449 -0.074,0.172 -0.111,0.357 -0.111,0.553 v 3.785 c 0,0.195 0.037,0.38 0.111,0.553 0.074,0.172 0.176,0.321 0.303,0.449 0.127,0.127 0.277,0.228 0.449,0.302 0.172,0.074 0.357,0.111 0.553,0.111 h 0.652 c 0.195,0 0.381,-0.037 0.553,-0.111 0.172,-0.074 0.322,-0.175 0.449,-0.302 0.127,-0.128 0.227,-0.277 0.303,-0.449 0.074,-0.173 0.111,-0.358 0.111,-0.553 z m 0.277,5.423 c -0.216,0.218 -0.472,0.389 -0.763,0.513 -0.291,0.125 -0.602,0.187 -0.93,0.187 h -0.246 c -0.367,0 -0.705,-0.075 -1.018,-0.223 -0.314,-0.148 -0.582,-0.355 -0.804,-0.621 v 3.945 h -0.977 v -9.168 c 0,-0.329 0.061,-0.639 0.186,-0.931 0.125,-0.291 0.296,-0.546 0.513,-0.763 0.217,-0.217 0.471,-0.388 0.764,-0.513 0.291,-0.124 0.602,-0.187 0.93,-0.187 h 0.652 c 0.328,0 0.639,0.063 0.93,0.187 0.291,0.125 0.547,0.296 0.763,0.513 0.217,0.217 0.389,0.472 0.514,0.763 0.123,0.292 0.186,0.602 0.186,0.931 v 3.673 c 0,0.329 -0.063,0.639 -0.186,0.93 -0.125,0.292 -0.297,0.546 -0.514,0.764"
                     style="fill:#4c4e52;fill-opacity:1;fill-rule:nonzero;stroke:none"
                     id="path72"
                     inkscape:connector-curvature="0" /><path
                     d="m 349.8013,246.3945 c 0,-0.196 -0.037,-0.381 -0.111,-0.553 -0.075,-0.172 -0.176,-0.322 -0.303,-0.449 -0.127,-0.127 -0.277,-0.227 -0.449,-0.302 -0.172,-0.074 -0.356,-0.111 -0.553,-0.111 h -0.652 c -0.196,0 -0.379,0.037 -0.553,0.111 -0.172,0.075 -0.322,0.175 -0.449,0.302 -0.127,0.127 -0.227,0.277 -0.301,0.449 -0.074,0.172 -0.111,0.357 -0.111,0.553 v 3.785 c 0,0.195 0.037,0.38 0.111,0.553 0.074,0.172 0.174,0.321 0.301,0.449 0.127,0.127 0.277,0.228 0.449,0.302 0.174,0.074 0.357,0.111 0.553,0.111 h 0.652 c 0.197,0 0.381,-0.037 0.553,-0.111 0.172,-0.074 0.322,-0.175 0.449,-0.302 0.127,-0.128 0.228,-0.277 0.303,-0.449 0.074,-0.173 0.111,-0.358 0.111,-0.553 z m 0.277,5.423 c -0.216,0.218 -0.47,0.389 -0.763,0.513 -0.291,0.125 -0.602,0.187 -0.93,0.187 h -0.652 c -0.328,0 -0.639,-0.062 -0.93,-0.187 -0.291,-0.124 -0.547,-0.295 -0.764,-0.513 -0.217,-0.218 -0.388,-0.472 -0.511,-0.764 -0.125,-0.291 -0.188,-0.601 -0.188,-0.93 v -3.673 c 0,-0.329 0.063,-0.639 0.188,-0.931 0.123,-0.291 0.294,-0.546 0.511,-0.763 0.217,-0.217 0.473,-0.388 0.764,-0.513 0.291,-0.124 0.602,-0.187 0.93,-0.187 h 0.652 c 0.328,0 0.639,0.063 0.93,0.187 0.293,0.125 0.547,0.296 0.763,0.513 0.219,0.217 0.389,0.472 0.514,0.763 0.125,0.292 0.188,0.602 0.188,0.931 v 3.673 c 0,0.329 -0.063,0.639 -0.188,0.93 -0.125,0.292 -0.295,0.546 -0.514,0.764"
                     style="fill:#4c4e52;fill-opacity:1;fill-rule:nonzero;stroke:none"
                     id="path74"
                     inkscape:connector-curvature="0" /><path
                     d="m 354.4321,252.251 c -0.336,-0.178 -0.615,-0.418 -0.838,-0.72 l -0.533,0.827 h -0.326 v -8.142 h 0.978 v 5.797 c 0,0.195 0.037,0.38 0.112,0.552 0.074,0.172 0.173,0.322 0.3,0.45 0.127,0.127 0.278,0.227 0.45,0.301 0.173,0.075 0.357,0.112 0.552,0.112 h 0.979 v 1.09 h -0.572 c -0.399,0 -0.766,-0.089 -1.102,-0.267"
                     style="fill:#4c4e52;fill-opacity:1;fill-rule:nonzero;stroke:none"
                     id="path76"
                     inkscape:connector-curvature="0" /><path
                     d="m 361.8716,246.3945 c 0,-0.196 -0.037,-0.381 -0.111,-0.553 -0.076,-0.172 -0.176,-0.322 -0.303,-0.449 -0.127,-0.127 -0.277,-0.227 -0.449,-0.302 -0.172,-0.074 -0.358,-0.111 -0.553,-0.111 h -0.652 c -0.196,0 -0.381,0.037 -0.553,0.111 -0.172,0.075 -0.322,0.175 -0.449,0.302 -0.127,0.127 -0.229,0.277 -0.303,0.449 -0.074,0.172 -0.111,0.357 -0.111,0.553 v 0.342 c 0,0.196 0.037,0.381 0.111,0.553 0.074,0.171 0.176,0.323 0.303,0.453 0.127,0.13 0.277,0.231 0.449,0.306 0.172,0.075 0.357,0.112 0.553,0.112 h 2.068 z m 0.277,5.423 c -0.216,0.218 -0.472,0.389 -0.763,0.513 -0.291,0.125 -0.602,0.187 -0.93,0.187 h -0.572 c -0.33,0 -0.639,-0.062 -0.932,-0.187 -0.291,-0.124 -0.545,-0.295 -0.762,-0.513 -0.218,-0.218 -0.388,-0.472 -0.513,-0.764 -0.125,-0.291 -0.188,-0.601 -0.188,-0.93 v -0.08 l 0.979,-0.159 v 0.295 c 0,0.195 0.037,0.38 0.111,0.553 0.074,0.172 0.176,0.321 0.303,0.449 0.127,0.127 0.277,0.228 0.449,0.302 0.172,0.074 0.355,0.111 0.553,0.111 h 0.572 c 0.195,0 0.381,-0.037 0.553,-0.111 0.172,-0.074 0.322,-0.175 0.449,-0.302 0.127,-0.128 0.227,-0.277 0.303,-0.449 0.074,-0.173 0.111,-0.358 0.111,-0.553 v -1.257 h -2.068 c -0.328,0 -0.639,-0.062 -0.93,-0.186 -0.293,-0.125 -0.547,-0.296 -0.764,-0.513 -0.217,-0.218 -0.388,-0.472 -0.513,-0.764 -0.125,-0.292 -0.186,-0.601 -0.186,-0.93 v -0.079 c 0,-0.329 0.061,-0.639 0.186,-0.931 0.125,-0.291 0.296,-0.546 0.513,-0.763 0.217,-0.217 0.471,-0.388 0.764,-0.513 0.291,-0.124 0.602,-0.187 0.93,-0.187 h 0.246 c 0.398,0 0.763,0.089 1.097,0.267 0.334,0.177 0.614,0.412 0.836,0.704 l 0.539,-0.812 h 0.327 v 5.908 c 0,0.329 -0.063,0.639 -0.186,0.93 -0.125,0.292 -0.297,0.546 -0.514,0.764"
                     style="fill:#4c4e52;fill-opacity:1;fill-rule:nonzero;stroke:none"
                     id="path78"
                     inkscape:connector-curvature="0" /><path
                     d="m 366.5942,254.4736 -0.979,-0.159 v -1.956 h -1.462 v -0.931 h 1.462 v -5.065 c 0,-0.297 0.057,-0.576 0.172,-0.835 0.114,-0.26 0.268,-0.488 0.461,-0.684 0.194,-0.196 0.422,-0.349 0.684,-0.461 0.262,-0.111 0.541,-0.167 0.838,-0.167 h 0.89 v 0.931 h -0.89 c -0.164,0 -0.317,0.03 -0.461,0.091 -0.143,0.061 -0.268,0.144 -0.373,0.251 -0.106,0.105 -0.19,0.228 -0.25,0.369 -0.063,0.14 -0.092,0.293 -0.092,0.458 v 5.112 h 2.066 v 0.931 h -2.066 z"
                     style="fill:#4c4e52;fill-opacity:1;fill-rule:nonzero;stroke:none"
                     id="path80"
                     inkscape:connector-curvature="0" /><path
                     d="m 374.9185,246.3945 c 0,-0.196 -0.037,-0.381 -0.111,-0.553 -0.075,-0.172 -0.174,-0.322 -0.301,-0.449 -0.129,-0.127 -0.277,-0.227 -0.449,-0.302 -0.174,-0.074 -0.358,-0.111 -0.553,-0.111 h -0.652 c -0.198,0 -0.381,0.037 -0.553,0.111 -0.172,0.075 -0.322,0.175 -0.449,0.302 -0.127,0.127 -0.229,0.277 -0.303,0.449 -0.074,0.172 -0.111,0.357 -0.111,0.553 v 3.785 c 0,0.195 0.037,0.38 0.111,0.553 0.074,0.172 0.176,0.321 0.303,0.449 0.127,0.127 0.277,0.228 0.449,0.302 0.172,0.074 0.355,0.111 0.553,0.111 h 0.652 c 0.195,0 0.379,-0.037 0.553,-0.111 0.172,-0.074 0.32,-0.175 0.449,-0.302 0.127,-0.128 0.226,-0.277 0.301,-0.449 0.074,-0.173 0.111,-0.358 0.111,-0.553 z m 0.279,5.423 c -0.218,0.218 -0.472,0.389 -0.763,0.513 -0.291,0.125 -0.602,0.187 -0.93,0.187 h -0.652 c -0.33,0 -0.639,-0.062 -0.932,-0.187 -0.291,-0.124 -0.545,-0.295 -0.762,-0.513 -0.219,-0.218 -0.388,-0.472 -0.513,-0.764 -0.125,-0.291 -0.188,-0.601 -0.188,-0.93 v -3.673 c 0,-0.329 0.063,-0.639 0.188,-0.931 0.125,-0.291 0.294,-0.546 0.513,-0.763 0.217,-0.217 0.471,-0.388 0.762,-0.513 0.293,-0.124 0.602,-0.187 0.932,-0.187 h 0.652 c 0.328,0 0.639,0.063 0.93,0.187 0.291,0.125 0.545,0.296 0.763,0.513 0.217,0.217 0.389,0.472 0.512,0.763 0.125,0.292 0.188,0.602 0.188,0.931 v 3.673 c 0,0.329 -0.063,0.639 -0.188,0.93 -0.123,0.292 -0.295,0.546 -0.512,0.764"
                     style="fill:#4c4e52;fill-opacity:1;fill-rule:nonzero;stroke:none"
                     id="path82"
                     inkscape:connector-curvature="0" /><path
                     d="m 379.5513,252.251 c -0.338,-0.178 -0.617,-0.418 -0.84,-0.72 l -0.531,0.827 h -0.326 v -8.142 h 0.976 v 5.797 c 0,0.195 0.037,0.38 0.112,0.552 0.074,0.172 0.175,0.322 0.302,0.45 0.127,0.127 0.278,0.227 0.45,0.301 0.171,0.075 0.357,0.112 0.552,0.112 h 0.979 v 1.09 h -0.572 c -0.399,0 -0.766,-0.089 -1.102,-0.267"
                     style="fill:#4c4e52;fill-opacity:1;fill-rule:nonzero;stroke:none"
                     id="path84"
                     inkscape:connector-curvature="0" /><path
                     d="m 382.776,254.314 h 1.137 v 1.304 h -1.137 z"
                     style="fill:#4c4e52;fill-opacity:1;fill-rule:nonzero;stroke:none"
                     id="path86"
                     inkscape:connector-curvature="0" /><path
                     d="m 382.854,244.216 h 0.979 v 8.143 h -0.979 z"
                     style="fill:#4c4e52;fill-opacity:1;fill-rule:nonzero;stroke:none"
                     id="path88"
                     inkscape:connector-curvature="0" /><path
                     d="m 390.5767,246.3945 c 0,-0.196 -0.037,-0.381 -0.111,-0.553 -0.076,-0.172 -0.176,-0.322 -0.303,-0.449 -0.127,-0.127 -0.277,-0.227 -0.449,-0.302 -0.172,-0.074 -0.358,-0.111 -0.553,-0.111 h -0.652 c -0.196,0 -0.381,0.037 -0.553,0.111 -0.172,0.075 -0.322,0.175 -0.449,0.302 -0.127,0.127 -0.229,0.277 -0.303,0.449 -0.074,0.172 -0.111,0.357 -0.111,0.553 v 3.785 c 0,0.195 0.037,0.38 0.111,0.553 0.074,0.172 0.176,0.321 0.303,0.449 0.127,0.127 0.277,0.228 0.449,0.302 0.172,0.074 0.357,0.111 0.553,0.111 h 0.652 c 0.195,0 0.381,-0.037 0.553,-0.111 0.172,-0.074 0.322,-0.175 0.449,-0.302 0.127,-0.128 0.227,-0.277 0.303,-0.449 0.074,-0.173 0.111,-0.358 0.111,-0.553 z m 0.277,5.423 c -0.216,0.218 -0.472,0.389 -0.763,0.513 -0.291,0.125 -0.602,0.187 -0.93,0.187 h -0.652 c -0.328,0 -0.639,-0.062 -0.93,-0.187 -0.293,-0.124 -0.547,-0.295 -0.764,-0.513 -0.217,-0.218 -0.388,-0.472 -0.513,-0.764 -0.125,-0.291 -0.186,-0.601 -0.186,-0.93 v -3.673 c 0,-0.329 0.061,-0.639 0.186,-0.931 0.125,-0.291 0.296,-0.546 0.513,-0.763 0.217,-0.217 0.471,-0.388 0.764,-0.513 0.291,-0.124 0.602,-0.187 0.93,-0.187 h 0.652 c 0.328,0 0.639,0.063 0.93,0.187 0.291,0.125 0.547,0.296 0.763,0.513 0.217,0.217 0.389,0.472 0.514,0.763 0.123,0.292 0.186,0.602 0.186,0.931 v 3.673 c 0,0.329 -0.063,0.639 -0.186,0.93 -0.125,0.292 -0.297,0.546 -0.514,0.764"
                     style="fill:#4c4e52;fill-opacity:1;fill-rule:nonzero;stroke:none"
                     id="path90"
                     inkscape:connector-curvature="0" /><path
                     d="m 399.1841,254.6406 -1.26,-0.206 v -1.935 h -1.463 v -1.213 h 1.463 v -4.924 c 0,-0.314 0.061,-0.614 0.182,-0.892 0.119,-0.272 0.283,-0.518 0.49,-0.726 0.205,-0.208 0.449,-0.374 0.729,-0.493 0.281,-0.118 0.582,-0.177 0.896,-0.177 h 1.031 v 1.213 h -1.031 c -0.146,0 -0.281,0.028 -0.406,0.08 -0.129,0.055 -0.236,0.127 -0.33,0.221 -0.094,0.093 -0.168,0.202 -0.221,0.324 -0.053,0.124 -0.08,0.26 -0.08,0.403 v 4.971 h 2.068 v 1.213 h -2.068 z"
                     style="fill:#4c4e52;fill-opacity:1;fill-rule:nonzero;stroke:none"
                     id="path92"
                     inkscape:connector-curvature="0" /><path
                     d="m 405.3013,251.4531 h 0.652 c 0.178,0 0.34,-0.033 0.496,-0.1 0.157,-0.067 0.291,-0.159 0.405,-0.271 0.115,-0.116 0.207,-0.253 0.273,-0.405 0.067,-0.155 0.1,-0.322 0.1,-0.497 v -1.068 h -3.199 v 1.068 c 0,0.175 0.033,0.342 0.099,0.496 0.069,0.158 0.158,0.291 0.272,0.405 0.115,0.114 0.25,0.206 0.406,0.272 0.156,0.067 0.318,0.1 0.496,0.1 m 2.445,0.465 c -0.228,0.229 -0.502,0.412 -0.806,0.542 -0.309,0.133 -0.641,0.199 -0.987,0.199 h -0.652 c -0.348,0 -0.68,-0.066 -0.986,-0.198 -0.307,-0.131 -0.578,-0.314 -0.809,-0.544 -0.228,-0.231 -0.412,-0.502 -0.541,-0.808 -0.133,-0.307 -0.199,-0.638 -0.199,-0.985 v -3.674 c 0,-0.347 0.066,-0.678 0.199,-0.986 0.131,-0.307 0.313,-0.578 0.541,-0.808 0.229,-0.228 0.502,-0.411 0.809,-0.544 0.308,-0.131 0.64,-0.197 0.986,-0.197 h 0.652 c 0.344,0 0.676,0.066 0.987,0.198 0.306,0.131 0.578,0.314 0.806,0.543 0.229,0.227 0.41,0.498 0.543,0.808 0.133,0.308 0.2,0.639 0.2,0.986 v 0.446 l -1.262,0.206 v -0.708 c 0,-0.175 -0.033,-0.343 -0.1,-0.496 -0.066,-0.155 -0.158,-0.291 -0.273,-0.405 -0.114,-0.113 -0.248,-0.205 -0.405,-0.272 -0.156,-0.067 -0.318,-0.1 -0.496,-0.1 h -0.652 c -0.178,0 -0.34,0.033 -0.496,0.1 -0.156,0.066 -0.291,0.158 -0.406,0.272 -0.112,0.111 -0.203,0.248 -0.272,0.405 -0.066,0.153 -0.099,0.321 -0.099,0.496 v 1.671 h 4.461 v 2.059 c 0,0.347 -0.067,0.678 -0.2,0.985 -0.131,0.308 -0.314,0.58 -0.543,0.809"
                     style="fill:#4c4e52;fill-opacity:1;fill-rule:nonzero;stroke:none"
                     id="path94"
                     inkscape:connector-curvature="0" /><path
                     d="m 415.1411,251.918 c -0.229,0.229 -0.502,0.412 -0.807,0.542 -0.308,0.133 -0.64,0.199 -0.986,0.199 h -0.652 c -0.348,0 -0.68,-0.066 -0.987,-0.198 -0.306,-0.131 -0.578,-0.314 -0.808,-0.544 -0.229,-0.23 -0.412,-0.502 -0.541,-0.808 -0.133,-0.307 -0.199,-0.638 -0.199,-0.985 v -3.674 c 0,-0.346 0.066,-0.678 0.199,-0.986 0.131,-0.307 0.312,-0.578 0.541,-0.808 0.228,-0.228 0.502,-0.411 0.808,-0.544 0.309,-0.131 0.641,-0.197 0.987,-0.197 h 0.652 c 0.344,0 0.676,0.066 0.986,0.198 0.307,0.131 0.578,0.314 0.807,0.543 0.229,0.227 0.41,0.498 0.543,0.808 0.133,0.308 0.199,0.64 0.199,0.986 v 0.447 l -1.262,0.206 v -0.708 c 0,-0.176 -0.033,-0.344 -0.099,-0.497 -0.067,-0.155 -0.158,-0.291 -0.274,-0.405 -0.113,-0.113 -0.248,-0.205 -0.404,-0.272 -0.156,-0.067 -0.318,-0.1 -0.496,-0.1 h -0.652 c -0.178,0 -0.34,0.033 -0.496,0.1 -0.157,0.066 -0.291,0.158 -0.407,0.272 -0.111,0.112 -0.203,0.248 -0.271,0.405 -0.067,0.153 -0.1,0.321 -0.1,0.497 v 3.785 c 0,0.176 0.033,0.342 0.1,0.496 0.068,0.158 0.158,0.291 0.271,0.405 0.116,0.114 0.25,0.206 0.407,0.273 0.156,0.066 0.318,0.099 0.496,0.099 h 0.652 c 0.178,0 0.34,-0.033 0.496,-0.099 0.156,-0.068 0.291,-0.16 0.404,-0.272 0.116,-0.116 0.207,-0.253 0.274,-0.405 0.066,-0.155 0.099,-0.321 0.099,-0.497 v -0.708 l 1.262,0.206 v 0.446 c 0,0.347 -0.066,0.678 -0.199,0.985 -0.131,0.308 -0.314,0.58 -0.543,0.809"
                     style="fill:#4c4e52;fill-opacity:1;fill-rule:nonzero;stroke:none"
                     id="path96"
                     inkscape:connector-curvature="0" /><path
                     d="m 422.5371,251.918 c -0.23,0.229 -0.504,0.412 -0.808,0.542 -0.309,0.133 -0.641,0.199 -0.986,0.199 h -0.247 c -0.419,0 -0.81,-0.095 -1.167,-0.283 -0.293,-0.154 -0.547,-0.356 -0.76,-0.603 l -0.469,0.727 h -0.545 v -8.426 h 1.262 v 6.106 c 0,0.176 0.033,0.342 0.099,0.496 0.069,0.157 0.159,0.29 0.274,0.405 0.113,0.114 0.25,0.206 0.404,0.273 0.156,0.066 0.318,0.099 0.498,0.099 h 0.651 c 0.177,0 0.339,-0.033 0.496,-0.099 0.154,-0.067 0.291,-0.159 0.406,-0.272 0.113,-0.115 0.205,-0.252 0.271,-0.405 0.067,-0.155 0.1,-0.321 0.1,-0.497 v -6.106 h 1.261 v 6.05 c 0,0.347 -0.066,0.678 -0.198,0.985 -0.13,0.306 -0.312,0.578 -0.542,0.809"
                     style="fill:#4c4e52;fill-opacity:1;fill-rule:nonzero;stroke:none"
                     id="path98"
                     inkscape:connector-curvature="0" /><path
                     d="m 428.1367,245.1211 h -0.65 c -0.18,0 -0.342,0.033 -0.497,0.1 -0.156,0.066 -0.292,0.158 -0.406,0.272 -0.113,0.112 -0.205,0.249 -0.273,0.405 -0.066,0.153 -0.1,0.321 -0.1,0.496 v 3.786 c 0,0.175 0.034,0.342 0.1,0.496 0.068,0.157 0.158,0.29 0.273,0.405 0.114,0.114 0.25,0.206 0.406,0.272 0.155,0.067 0.317,0.1 0.497,0.1 h 0.65 c 0.178,0 0.341,-0.033 0.497,-0.1 0.154,-0.066 0.29,-0.158 0.405,-0.271 0.114,-0.115 0.205,-0.252 0.272,-0.405 0.066,-0.155 0.099,-0.322 0.099,-0.497 v -3.786 c 0,-0.175 -0.033,-0.343 -0.099,-0.496 -0.067,-0.156 -0.158,-0.293 -0.272,-0.405 -0.115,-0.114 -0.251,-0.206 -0.405,-0.272 -0.156,-0.067 -0.319,-0.1 -0.497,-0.1 m 1.795,6.797 c -0.231,0.229 -0.503,0.412 -0.809,0.542 -0.307,0.133 -0.639,0.199 -0.986,0.199 h -0.65 c -0.348,0 -0.68,-0.066 -0.989,-0.198 -0.304,-0.131 -0.576,-0.314 -0.806,-0.543 -0.229,-0.229 -0.411,-0.501 -0.543,-0.809 -0.132,-0.307 -0.2,-0.638 -0.2,-0.985 v -3.674 c 0,-0.347 0.068,-0.678 0.2,-0.986 0.133,-0.31 0.315,-0.581 0.543,-0.808 0.228,-0.228 0.5,-0.412 0.807,-0.544 0.309,-0.131 0.642,-0.197 0.988,-0.197 h 0.65 c 0.346,0 0.678,0.066 0.987,0.198 0.306,0.131 0.577,0.314 0.808,0.543 0.228,0.23 0.411,0.501 0.542,0.808 0.132,0.308 0.198,0.639 0.198,0.986 v 3.674 c 0,0.347 -0.066,0.678 -0.198,0.985 -0.13,0.306 -0.312,0.577 -0.542,0.809"
                     style="fill:#4c4e52;fill-opacity:1;fill-rule:nonzero;stroke:none"
                     id="path100"
                     inkscape:connector-curvature="0" /><path
                     d="m 432.672,244.074 h 1.26 v 11.686 h -1.26 z"
                     style="fill:#4c4e52;fill-opacity:1;fill-rule:nonzero;stroke:none"
                     id="path102"
                     inkscape:connector-curvature="0" /><path
                     d="m 440.7949,255.7598 h -2.078 l -1.485,-2.239 h 1.05 z"
                     style="fill:#4c4e52;fill-opacity:1;fill-rule:nonzero;stroke:none"
                     id="path104"
                     inkscape:connector-curvature="0" /><path
                     d="m 438.959,245.1211 h -0.65 c -0.18,0 -0.342,0.033 -0.497,0.1 -0.156,0.066 -0.292,0.158 -0.406,0.272 -0.113,0.112 -0.205,0.249 -0.273,0.405 -0.066,0.153 -0.1,0.321 -0.1,0.496 v 3.786 c 0,0.175 0.034,0.342 0.1,0.496 0.068,0.157 0.158,0.29 0.273,0.405 0.114,0.114 0.25,0.206 0.406,0.272 0.155,0.067 0.317,0.1 0.497,0.1 h 0.65 c 0.178,0 0.341,-0.033 0.497,-0.1 0.154,-0.066 0.29,-0.158 0.405,-0.271 0.114,-0.115 0.205,-0.252 0.272,-0.405 0.066,-0.155 0.099,-0.322 0.099,-0.497 v -3.786 c 0,-0.175 -0.033,-0.343 -0.099,-0.496 -0.067,-0.156 -0.158,-0.293 -0.272,-0.405 -0.115,-0.114 -0.251,-0.206 -0.405,-0.272 -0.156,-0.067 -0.319,-0.1 -0.497,-0.1 m 1.795,6.797 c -0.231,0.229 -0.503,0.412 -0.809,0.542 -0.307,0.133 -0.639,0.199 -0.986,0.199 h -0.65 c -0.348,0 -0.68,-0.066 -0.989,-0.198 -0.304,-0.131 -0.576,-0.314 -0.806,-0.543 -0.229,-0.229 -0.411,-0.501 -0.543,-0.809 -0.132,-0.307 -0.2,-0.638 -0.2,-0.985 v -3.674 c 0,-0.347 0.068,-0.678 0.2,-0.986 0.133,-0.31 0.315,-0.581 0.543,-0.808 0.228,-0.228 0.5,-0.412 0.807,-0.544 0.309,-0.131 0.642,-0.197 0.988,-0.197 h 0.65 c 0.346,0 0.678,0.066 0.987,0.198 0.306,0.131 0.577,0.314 0.808,0.543 0.228,0.23 0.411,0.501 0.542,0.808 0.132,0.308 0.198,0.639 0.198,0.986 v 3.674 c 0,0.347 -0.066,0.678 -0.198,0.985 -0.13,0.306 -0.312,0.577 -0.542,0.809"
                     style="fill:#4c4e52;fill-opacity:1;fill-rule:nonzero;stroke:none"
                     id="path106"
                     inkscape:connector-curvature="0" /><path
                     d="m 447.4395,252.5 -1.658,-2.976 -1.657,2.976 h -1.384 l 2.362,-4.213 -2.362,-4.213 h 1.384 l 1.657,2.976 1.658,-2.976 h 1.383 l -2.354,4.213 2.354,4.213 z"
                     style="fill:#4c4e52;fill-opacity:1;fill-rule:nonzero;stroke:none"
                     id="path108"
                     inkscape:connector-curvature="0" /><path
                     d="m 450.395,244.074 h 1.262 v 8.426 h -1.262 z"
                     style="fill:#4c4e52;fill-opacity:1;fill-rule:nonzero;stroke:none"
                     id="path110"
                     inkscape:connector-curvature="0" /><path
                     d="m 450.314,254.173 h 1.422 v 1.587 h -1.422 z"
                     style="fill:#4c4e52;fill-opacity:1;fill-rule:nonzero;stroke:none"
                     id="path112"
                     inkscape:connector-curvature="0" /><path
                     d="m 458.6367,251.918 c -0.23,0.229 -0.503,0.412 -0.809,0.542 -0.307,0.133 -0.639,0.199 -0.986,0.199 h -0.65 c -0.348,0 -0.68,-0.066 -0.989,-0.198 -0.304,-0.131 -0.576,-0.314 -0.806,-0.543 -0.229,-0.229 -0.411,-0.501 -0.543,-0.809 -0.132,-0.307 -0.199,-0.638 -0.199,-0.985 v -3.674 c 0,-0.346 0.067,-0.678 0.199,-0.986 0.133,-0.31 0.315,-0.581 0.543,-0.808 0.228,-0.228 0.5,-0.412 0.807,-0.544 0.309,-0.131 0.642,-0.197 0.988,-0.197 h 0.65 c 0.346,0 0.678,0.066 0.987,0.198 0.306,0.131 0.578,0.314 0.808,0.543 0.229,0.23 0.411,0.501 0.542,0.808 0.132,0.308 0.198,0.64 0.198,0.986 v 0.447 l -1.261,0.206 v -0.708 c 0,-0.176 -0.034,-0.344 -0.1,-0.497 -0.066,-0.156 -0.158,-0.292 -0.272,-0.405 -0.115,-0.114 -0.251,-0.206 -0.405,-0.272 -0.156,-0.067 -0.319,-0.1 -0.497,-0.1 h -0.65 c -0.18,0 -0.342,0.033 -0.497,0.1 -0.156,0.066 -0.292,0.158 -0.406,0.272 -0.113,0.113 -0.205,0.249 -0.273,0.405 -0.066,0.153 -0.1,0.321 -0.1,0.497 v 3.785 c 0,0.176 0.034,0.342 0.1,0.496 0.068,0.157 0.158,0.29 0.273,0.405 0.114,0.114 0.25,0.206 0.406,0.273 0.155,0.066 0.317,0.099 0.497,0.099 h 0.65 c 0.178,0 0.341,-0.033 0.497,-0.099 0.154,-0.067 0.29,-0.159 0.405,-0.272 0.114,-0.115 0.206,-0.252 0.272,-0.405 0.066,-0.155 0.1,-0.321 0.1,-0.497 v -0.708 l 1.261,0.206 v 0.446 c 0,0.347 -0.066,0.678 -0.198,0.985 -0.13,0.306 -0.312,0.578 -0.542,0.809"
                     style="fill:#4c4e52;fill-opacity:1;fill-rule:nonzero;stroke:none"
                     id="path114"
                     inkscape:connector-curvature="0" /><path
                     d="m 464.2363,245.1211 h -0.65 c -0.18,0 -0.342,0.033 -0.497,0.1 -0.156,0.066 -0.292,0.158 -0.406,0.272 -0.113,0.112 -0.205,0.249 -0.273,0.405 -0.066,0.153 -0.1,0.321 -0.1,0.496 v 3.786 c 0,0.175 0.034,0.342 0.1,0.496 0.068,0.157 0.158,0.29 0.273,0.405 0.114,0.114 0.25,0.206 0.406,0.272 0.155,0.067 0.317,0.1 0.497,0.1 h 0.65 c 0.178,0 0.341,-0.033 0.497,-0.1 0.154,-0.066 0.29,-0.158 0.405,-0.271 0.114,-0.115 0.205,-0.252 0.272,-0.405 0.066,-0.155 0.099,-0.322 0.099,-0.497 v -3.786 c 0,-0.175 -0.033,-0.343 -0.099,-0.496 -0.067,-0.156 -0.158,-0.293 -0.272,-0.405 -0.115,-0.114 -0.251,-0.206 -0.405,-0.272 -0.156,-0.067 -0.319,-0.1 -0.497,-0.1 m 1.795,6.797 c -0.231,0.229 -0.503,0.412 -0.809,0.542 -0.307,0.133 -0.639,0.199 -0.986,0.199 h -0.65 c -0.348,0 -0.68,-0.066 -0.989,-0.198 -0.304,-0.131 -0.576,-0.314 -0.806,-0.543 -0.229,-0.229 -0.411,-0.501 -0.543,-0.809 -0.132,-0.307 -0.2,-0.638 -0.2,-0.985 v -3.674 c 0,-0.347 0.068,-0.678 0.2,-0.986 0.133,-0.31 0.315,-0.581 0.543,-0.808 0.228,-0.228 0.5,-0.412 0.807,-0.544 0.309,-0.131 0.642,-0.197 0.988,-0.197 h 0.65 c 0.346,0 0.678,0.066 0.987,0.198 0.306,0.131 0.577,0.314 0.808,0.543 0.228,0.23 0.411,0.501 0.542,0.808 0.132,0.308 0.198,0.639 0.198,0.986 v 3.674 c 0,0.347 -0.066,0.678 -0.198,0.985 -0.13,0.306 -0.312,0.577 -0.542,0.809"
                     style="fill:#4c4e52;fill-opacity:1;fill-rule:nonzero;stroke:none"
                     id="path116"
                     inkscape:connector-curvature="0" /><path
                     d="m 477.0703,251.8174 c -0.217,0.218 -0.471,0.389 -0.764,0.513 -0.291,0.125 -0.601,0.187 -0.929,0.187 h -0.653 c -0.328,0 -0.638,-0.062 -0.929,-0.187 -0.291,-0.124 -0.547,-0.295 -0.764,-0.513 -0.217,-0.218 -0.389,-0.472 -0.512,-0.764 -0.125,-0.291 -0.187,-0.601 -0.187,-0.929 v -3.674 c 0,-0.329 0.062,-0.639 0.187,-0.931 0.123,-0.291 0.295,-0.546 0.512,-0.763 0.217,-0.217 0.473,-0.388 0.764,-0.513 0.291,-0.124 0.601,-0.187 0.929,-0.187 h 0.653 c 0.328,0 0.638,0.063 0.929,0.187 0.293,0.125 0.547,0.296 0.764,0.513 0.219,0.217 0.389,0.472 0.514,0.763 0.125,0.292 0.187,0.602 0.187,0.931 v 0.326 l -0.978,0.159 v -0.541 c 0,-0.196 -0.037,-0.381 -0.112,-0.553 -0.074,-0.171 -0.175,-0.322 -0.302,-0.449 -0.127,-0.127 -0.278,-0.227 -0.45,-0.302 -0.171,-0.074 -0.355,-0.111 -0.552,-0.111 h -0.653 c -0.195,0 -0.379,0.037 -0.552,0.111 -0.172,0.075 -0.323,0.175 -0.45,0.302 -0.127,0.127 -0.226,0.278 -0.3,0.449 -0.075,0.172 -0.112,0.357 -0.112,0.553 v 3.785 c 0,0.196 0.037,0.38 0.112,0.553 0.074,0.172 0.173,0.321 0.3,0.449 0.127,0.127 0.278,0.228 0.45,0.302 0.173,0.074 0.357,0.111 0.552,0.111 h 0.653 c 0.197,0 0.381,-0.037 0.552,-0.111 0.172,-0.074 0.323,-0.175 0.45,-0.302 0.127,-0.128 0.228,-0.277 0.302,-0.449 0.075,-0.173 0.112,-0.357 0.112,-0.553 v -0.541 l 0.978,0.159 v 0.327 c 0,0.328 -0.062,0.638 -0.187,0.929 -0.125,0.292 -0.295,0.546 -0.514,0.764"
                     style="fill:#4c4e52;fill-opacity:1;fill-rule:nonzero;stroke:none"
                     id="path118"
                     inkscape:connector-curvature="0" /><path
                     d="m 479.973,254.314 h 1.139 v 1.304 h -1.139 z"
                     style="fill:#4c4e52;fill-opacity:1;fill-rule:nonzero;stroke:none"
                     id="path120"
                     inkscape:connector-curvature="0" /><path
                     d="m 480.053,244.216 h 0.979 v 8.143 h -0.979 z"
                     style="fill:#4c4e52;fill-opacity:1;fill-rule:nonzero;stroke:none"
                     id="path122"
                     inkscape:connector-curvature="0" /><path
                     d="m 487.7734,246.3945 c 0,-0.196 -0.037,-0.381 -0.111,-0.553 -0.075,-0.172 -0.176,-0.322 -0.303,-0.449 -0.127,-0.127 -0.277,-0.227 -0.449,-0.302 -0.172,-0.074 -0.356,-0.111 -0.553,-0.111 h -0.65 c -0.198,0 -0.381,0.037 -0.553,0.111 -0.174,0.075 -0.322,0.175 -0.449,0.302 -0.129,0.127 -0.229,0.277 -0.303,0.449 -0.074,0.172 -0.111,0.357 -0.111,0.553 v 3.785 c 0,0.195 0.037,0.38 0.111,0.553 0.074,0.172 0.174,0.321 0.303,0.449 0.127,0.127 0.275,0.228 0.449,0.302 0.172,0.074 0.355,0.111 0.553,0.111 h 0.65 c 0.197,0 0.381,-0.037 0.553,-0.111 0.172,-0.074 0.322,-0.175 0.449,-0.302 0.127,-0.128 0.228,-0.277 0.303,-0.449 0.074,-0.173 0.111,-0.358 0.111,-0.553 z m 0,5.279 c -0.223,0.266 -0.49,0.473 -0.803,0.621 -0.312,0.148 -0.652,0.223 -1.017,0.223 h -0.246 c -0.33,0 -0.641,-0.062 -0.932,-0.187 -0.291,-0.124 -0.545,-0.295 -0.764,-0.513 -0.217,-0.218 -0.386,-0.472 -0.511,-0.764 -0.125,-0.291 -0.188,-0.601 -0.188,-0.93 v -3.673 c 0,-0.329 0.063,-0.639 0.188,-0.931 0.125,-0.291 0.294,-0.546 0.511,-0.763 0.219,-0.217 0.473,-0.388 0.764,-0.513 0.291,-0.124 0.602,-0.187 0.932,-0.187 h 0.246 c 0.396,0 0.763,0.089 1.097,0.267 0.334,0.177 0.612,0.417 0.834,0.719 l 0.541,-0.827 h 0.327 v 11.403 h -0.979 z"
                     style="fill:#4c4e52;fill-opacity:1;fill-rule:nonzero;stroke:none"
                     id="path124"
                     inkscape:connector-curvature="0" /><path
                     d="m 495.168,246.3945 c 0,-0.196 -0.037,-0.381 -0.111,-0.553 -0.075,-0.172 -0.176,-0.322 -0.303,-0.449 -0.127,-0.127 -0.277,-0.227 -0.449,-0.302 -0.172,-0.074 -0.356,-0.111 -0.553,-0.111 h -0.65 c -0.198,0 -0.381,0.037 -0.553,0.111 -0.174,0.075 -0.322,0.175 -0.449,0.302 -0.129,0.127 -0.229,0.277 -0.303,0.449 -0.074,0.172 -0.111,0.357 -0.111,0.553 v 0.342 c 0,0.196 0.037,0.381 0.111,0.553 0.074,0.171 0.174,0.323 0.303,0.453 0.127,0.13 0.275,0.231 0.449,0.306 0.172,0.075 0.355,0.112 0.553,0.112 h 2.066 z m 0.279,5.423 c -0.218,0.218 -0.472,0.389 -0.763,0.513 -0.293,0.125 -0.602,0.187 -0.932,0.187 h -0.572 c -0.328,0 -0.639,-0.062 -0.93,-0.187 -0.291,-0.124 -0.547,-0.295 -0.764,-0.513 -0.216,-0.218 -0.388,-0.472 -0.511,-0.764 -0.125,-0.291 -0.188,-0.601 -0.188,-0.93 v -0.08 l 0.979,-0.159 v 0.295 c 0,0.195 0.037,0.38 0.111,0.553 0.074,0.172 0.174,0.321 0.301,0.449 0.127,0.127 0.277,0.228 0.449,0.302 0.172,0.074 0.357,0.111 0.553,0.111 h 0.572 c 0.197,0 0.381,-0.037 0.553,-0.111 0.172,-0.074 0.322,-0.175 0.449,-0.302 0.127,-0.128 0.228,-0.277 0.303,-0.449 0.074,-0.173 0.111,-0.358 0.111,-0.553 v -1.257 h -2.066 c -0.33,0 -0.641,-0.062 -0.932,-0.186 -0.291,-0.125 -0.545,-0.296 -0.764,-0.513 -0.217,-0.218 -0.386,-0.472 -0.511,-0.764 -0.125,-0.292 -0.188,-0.601 -0.188,-0.93 v -0.079 c 0,-0.329 0.063,-0.639 0.188,-0.931 0.125,-0.291 0.294,-0.546 0.511,-0.763 0.219,-0.217 0.473,-0.388 0.764,-0.513 0.291,-0.124 0.602,-0.187 0.932,-0.187 h 0.246 c 0.396,0 0.763,0.089 1.097,0.267 0.334,0.177 0.612,0.412 0.834,0.704 l 0.541,-0.812 h 0.327 v 5.908 c 0,0.329 -0.063,0.639 -0.188,0.93 -0.125,0.292 -0.295,0.546 -0.512,0.764"
                     style="fill:#4c4e52;fill-opacity:1;fill-rule:nonzero;stroke:none"
                     id="path126"
                     inkscape:connector-curvature="0" /><path
                     d="m 502.5625,246.3945 c 0,-0.196 -0.037,-0.381 -0.111,-0.553 -0.075,-0.172 -0.174,-0.322 -0.301,-0.449 -0.129,-0.127 -0.277,-0.227 -0.449,-0.302 -0.174,-0.074 -0.358,-0.111 -0.553,-0.111 h -0.652 c -0.198,0 -0.381,0.037 -0.553,0.111 -0.172,0.075 -0.322,0.175 -0.449,0.302 -0.127,0.127 -0.229,0.277 -0.303,0.449 -0.074,0.172 -0.111,0.357 -0.111,0.553 v 3.785 c 0,0.195 0.037,0.38 0.111,0.553 0.074,0.172 0.176,0.321 0.303,0.449 0.127,0.127 0.277,0.228 0.449,0.302 0.172,0.074 0.355,0.111 0.553,0.111 h 0.652 c 0.195,0 0.379,-0.037 0.553,-0.111 0.172,-0.074 0.32,-0.175 0.449,-0.302 0.127,-0.128 0.226,-0.277 0.301,-0.449 0.074,-0.173 0.111,-0.358 0.111,-0.553 z m 0,5.279 c -0.223,0.266 -0.49,0.473 -0.803,0.621 -0.312,0.148 -0.652,0.223 -1.017,0.223 h -0.246 c -0.33,0 -0.639,-0.062 -0.932,-0.187 -0.291,-0.124 -0.545,-0.295 -0.762,-0.513 -0.219,-0.218 -0.388,-0.472 -0.513,-0.764 -0.125,-0.291 -0.188,-0.601 -0.188,-0.93 v -3.673 c 0,-0.329 0.063,-0.639 0.188,-0.931 0.125,-0.291 0.294,-0.546 0.513,-0.763 0.217,-0.217 0.471,-0.388 0.762,-0.513 0.293,-0.124 0.602,-0.187 0.932,-0.187 h 0.246 c 0.398,0 0.763,0.089 1.097,0.267 0.334,0.177 0.612,0.417 0.834,0.719 l 0.541,-0.827 h 0.327 v 11.403 h -0.979 z"
                     style="fill:#4c4e52;fill-opacity:1;fill-rule:nonzero;stroke:none"
                     id="path128"
                     inkscape:connector-curvature="0" /><path
                     d="m 507.8105,253.6621 2.195,1.956 h -1.631 l -1.294,-1.956 z"
                     style="fill:#4c4e52;fill-opacity:1;fill-rule:nonzero;stroke:none"
                     id="path130"
                     inkscape:connector-curvature="0" /><path
                     d="m 509.959,246.3945 c 0,-0.196 -0.037,-0.381 -0.111,-0.553 -0.076,-0.172 -0.176,-0.322 -0.303,-0.449 -0.127,-0.127 -0.277,-0.227 -0.449,-0.302 -0.172,-0.074 -0.358,-0.111 -0.553,-0.111 h -0.652 c -0.196,0 -0.381,0.037 -0.553,0.111 -0.172,0.075 -0.322,0.175 -0.449,0.302 -0.127,0.127 -0.229,0.277 -0.303,0.449 -0.074,0.172 -0.111,0.357 -0.111,0.553 v 0.342 c 0,0.196 0.037,0.381 0.111,0.553 0.074,0.171 0.176,0.323 0.303,0.453 0.127,0.13 0.277,0.231 0.449,0.306 0.172,0.075 0.357,0.112 0.553,0.112 h 2.068 z m 0.277,5.423 c -0.216,0.218 -0.472,0.389 -0.763,0.513 -0.291,0.125 -0.602,0.187 -0.93,0.187 h -0.572 c -0.33,0 -0.639,-0.062 -0.932,-0.187 -0.291,-0.124 -0.545,-0.295 -0.762,-0.513 -0.218,-0.218 -0.388,-0.472 -0.513,-0.764 -0.125,-0.291 -0.188,-0.601 -0.188,-0.93 v -0.08 l 0.979,-0.159 v 0.295 c 0,0.195 0.037,0.38 0.111,0.553 0.074,0.172 0.176,0.321 0.303,0.449 0.127,0.127 0.277,0.228 0.449,0.302 0.172,0.074 0.355,0.111 0.553,0.111 h 0.572 c 0.195,0 0.381,-0.037 0.553,-0.111 0.172,-0.074 0.322,-0.175 0.449,-0.302 0.127,-0.128 0.227,-0.277 0.303,-0.449 0.074,-0.173 0.111,-0.358 0.111,-0.553 v -1.257 h -2.068 c -0.328,0 -0.639,-0.062 -0.93,-0.186 -0.293,-0.125 -0.547,-0.296 -0.764,-0.513 -0.217,-0.218 -0.388,-0.472 -0.513,-0.764 -0.125,-0.292 -0.186,-0.601 -0.186,-0.93 v -0.079 c 0,-0.329 0.061,-0.639 0.186,-0.931 0.125,-0.291 0.296,-0.546 0.513,-0.763 0.217,-0.217 0.471,-0.388 0.764,-0.513 0.291,-0.124 0.602,-0.187 0.93,-0.187 h 0.246 c 0.398,0 0.763,0.089 1.097,0.267 0.334,0.177 0.614,0.412 0.836,0.704 l 0.539,-0.812 h 0.327 v 5.908 c 0,0.329 -0.063,0.639 -0.186,0.93 -0.125,0.292 -0.297,0.546 -0.514,0.764"
                     style="fill:#4c4e52;fill-opacity:1;fill-rule:nonzero;stroke:none"
                     id="path132"
                     inkscape:connector-curvature="0" /><path
                     d="m 517.6309,251.8174 c -0.217,0.218 -0.473,0.389 -0.764,0.513 -0.291,0.125 -0.601,0.187 -0.929,0.187 h -0.246 c -0.399,0 -0.766,-0.089 -1.102,-0.266 -0.338,-0.178 -0.617,-0.418 -0.84,-0.72 l -0.531,0.827 h -0.326 v -8.143 h 0.976 v 5.964 c 0,0.196 0.037,0.38 0.112,0.553 0.074,0.172 0.175,0.321 0.302,0.449 0.127,0.127 0.278,0.228 0.45,0.302 0.171,0.074 0.357,0.111 0.552,0.111 h 0.653 c 0.195,0 0.381,-0.037 0.552,-0.111 0.172,-0.074 0.323,-0.175 0.45,-0.302 0.127,-0.128 0.226,-0.277 0.302,-0.449 0.075,-0.173 0.112,-0.357 0.112,-0.553 v -5.964 h 0.976 v 5.909 c 0,0.328 -0.062,0.638 -0.185,0.929 -0.125,0.292 -0.297,0.546 -0.514,0.764"
                     style="fill:#4c4e52;fill-opacity:1;fill-rule:nonzero;stroke:none"
                     id="path134"
                     inkscape:connector-curvature="0" /><path
                     d="m 421.0679,349.3071 1.808,-7.478 h -3.568 z m -4.205,-17.939 c 0.457,1.955 0.684,2.949 0.684,2.981 h 7.04 l 0.098,-0.098 0.634,-2.883 h 11.196 l -9.778,41.404 h -15.105 l -1.71,-7.479 h 3.716 l -7.968,-33.925 z"
                     style="fill:#4c4e52;fill-opacity:1;fill-rule:nonzero;stroke:none"
                     id="path136"
                     inkscape:connector-curvature="0" /><path
                     d="m 402.4985,345.1719 0.445,1.894 h -21.611 l -4.601,-4.602 h -10.012 c -0.549,1.358 -1.807,2.345 -3.438,2.345 -1.983,0 -3.519,-1.62 -3.519,-3.518 0,-1.982 1.536,-3.613 3.519,-3.613 1.815,0 3.253,1.174 3.526,2.796 h 10.735 l 4.602,4.698 z"
                     style="fill:#b28c50;fill-opacity:1;fill-rule:nonzero;stroke:none"
                     id="path138"
                     inkscape:connector-curvature="0" /><path
                     d="m 365.1851,360.6929 h 10.19 l 4.61,-4.688 h 25.058 l 0.465,1.98 h -24.615 l -4.697,4.612 h -10.834 c -0.364,1.622 -1.809,2.883 -3.526,2.883 -1.976,0 -3.607,-1.622 -3.607,-3.605 0,-1.993 1.631,-3.526 3.607,-3.526 1.534,0 2.89,0.9 3.349,2.344"
                     style="fill:#b28c50;fill-opacity:1;fill-rule:nonzero;stroke:none"
                     id="path140"
                     inkscape:connector-curvature="0" /><path
                     d="m 370.8618,355.1934 c -1.975,0 -3.605,-1.625 -3.605,-3.617 0,-1.98 1.63,-3.612 3.605,-3.612 1.631,0 3.076,1.093 3.438,2.627 h 29.472 l 0.466,1.983 h -29.938 c -0.362,1.533 -1.807,2.619 -3.438,2.619"
                     style="fill:#b28c50;fill-opacity:1;fill-rule:nonzero;stroke:none"
                     id="path142"
                     inkscape:connector-curvature="0" /><path
                     d="m 480.3486,365.4795 c -1.719,0 -3.163,-1.261 -3.527,-2.883 h -10.832 l -4.7,-4.611 h -24.614 l 0.465,-1.981 h 25.059 l 4.608,4.688 h 10.191 c 0.459,-1.444 1.816,-2.344 3.35,-2.344 1.976,0 3.606,1.534 3.606,3.526 0,1.983 -1.63,3.605 -3.606,3.605"
                     style="fill:#b28c50;fill-opacity:1;fill-rule:nonzero;stroke:none"
                     id="path144"
                     inkscape:connector-curvature="0" /><path
                     d="m 471.3223,347.9648 c 1.975,0 3.605,1.631 3.605,3.612 0,1.992 -1.63,3.617 -3.605,3.617 -1.631,0 -3.075,-1.086 -3.438,-2.619 h -29.938 l 0.466,-1.984 h 29.472 c 0.363,-1.533 1.807,-2.626 3.438,-2.626"
                     style="fill:#b28c50;fill-opacity:1;fill-rule:nonzero;stroke:none"
                     id="path146"
                     inkscape:connector-curvature="0" /><path
                     d="m 478.9033,344.8086 c -1.632,0 -2.89,-0.986 -3.438,-2.345 h -10.013 l -4.6,4.602 h -21.612 l 0.445,-1.894 h 20.355 l 4.601,-4.698 h 10.736 c 0.272,-1.622 1.711,-2.796 3.526,-2.796 1.982,0 3.519,1.631 3.519,3.613 0,1.898 -1.537,3.518 -3.519,3.518"
                     style="fill:#b28c50;fill-opacity:1;fill-rule:nonzero;stroke:none"
                     id="path148"
                     inkscape:connector-curvature="0" /><path
                     d="m 431.0293,205.2139 c -0.361,2.509 -2.956,3.849 -5.045,3.094 -0.105,-0.036 -0.178,-0.031 -0.264,0.053 -1.071,1.048 -2.145,2.093 -3.218,3.139 0.024,0.033 0.045,0.064 0.076,0.098 0.997,1.022 2.992,3.048 3.994,4.068 0.101,0.102 0.225,0.193 0.351,0.261 0.777,0.421 1.557,0.838 2.341,1.249 0.146,0.075 0.238,0.174 0.311,0.321 0.43,0.863 0.868,1.723 1.304,2.582 0,0.015 0,0.029 -0.002,0.042 -0.448,0.436 -0.897,0.872 -1.345,1.311 h -0.041 c -0.866,-0.467 -1.735,-0.934 -2.598,-1.406 -0.093,-0.05 -0.181,-0.139 -0.229,-0.233 -0.416,-0.811 -0.819,-1.629 -1.233,-2.439 -0.06,-0.118 -0.138,-0.232 -0.23,-0.326 -1.004,-1.036 -3.012,-3.07 -4.016,-4.103 -0.028,-0.028 -0.045,-0.049 -0.068,-0.073 -1.068,1.042 -2.136,2.085 -3.206,3.127 -0.078,0.075 -0.099,0.138 -0.066,0.242 0.178,0.53 0.22,1.067 0.147,1.626 -0.21,1.623 -1.368,2.919 -2.97,3.287 -0.167,0.04 -0.337,0.07 -0.506,0.107 -0.228,-0.004 -0.456,-0.006 -0.685,-0.009 -0.454,-0.093 -0.913,-0.169 -1.375,-0.437 0.088,-0.062 0.156,-0.098 0.207,-0.149 0.771,-0.747 1.54,-1.496 2.307,-2.249 0.086,-0.084 0.168,-0.172 0.24,-0.27 0.398,-0.529 0.311,-1.299 -0.195,-1.724 -0.54,-0.458 -1.249,-0.415 -1.795,0.113 -0.792,0.765 -1.578,1.535 -2.366,2.303 -0.052,0.049 -0.104,0.096 -0.158,0.146 -0.343,-0.615 -0.465,-1.608 -0.296,-2.383 0.515,-2.373 2.988,-3.566 4.995,-2.856 0.129,0.046 0.203,0.02 0.298,-0.072 0.83,-0.81 1.661,-1.62 2.492,-2.43 -1.913,-1.966 -4.921,-5.07 -6.811,-6.993 -0.429,-0.438 -0.811,-0.888 -0.89,-1.525 0.002,-0.134 0.003,-0.269 0.004,-0.403 0.082,-0.358 0.193,-0.7 0.437,-0.99 0.329,-0.388 0.737,-0.625 1.244,-0.691 0.026,-0.003 0.049,-0.018 0.072,-0.028 0.134,0.002 0.269,0.003 0.404,0.005 0.634,0.096 1.074,0.49 1.501,0.931 1.876,1.939 4.882,5.028 6.804,6.997 0.837,-0.815 1.672,-1.631 2.509,-2.447 0.096,-0.094 0.117,-0.17 0.074,-0.296 -0.211,-0.618 -0.225,-1.251 -0.084,-1.884 0.412,-1.836 1.841,-3.024 3.716,-3.085 0.606,-0.02 1.18,0.12 1.77,0.42 -0.08,0.061 -0.144,0.098 -0.195,0.148 -0.771,0.749 -1.539,1.499 -2.307,2.249 -0.091,0.089 -0.178,0.183 -0.254,0.284 -0.4,0.532 -0.309,1.295 0.198,1.723 0.541,0.453 1.254,0.412 1.798,-0.115 0.79,-0.766 1.577,-1.536 2.365,-2.303 0.052,-0.05 0.104,-0.097 0.166,-0.153 0.028,0.064 0.054,0.104 0.065,0.15 0.104,0.386 0.205,0.772 0.307,1.16 -0.002,0.241 -0.006,0.482 -0.009,0.725 -0.014,0.036 -0.032,0.073 -0.04,0.111"
                     style="fill:#b28c50;fill-opacity:1;fill-rule:nonzero;stroke:none"
                     id="path150"
                     inkscape:connector-curvature="0" /><path
                     d="m 381.908,210.102 h 23.921 v 1.822 h -23.921 z"
                     style="fill:#b28c50;fill-opacity:1;fill-rule:nonzero;stroke:none"
                     id="path152"
                     inkscape:connector-curvature="0" /><path
                     d="m 435.573,210.102 h 23.922 v 1.822 h -23.922 z"
                     style="fill:#b28c50;fill-opacity:1;fill-rule:nonzero;stroke:none"
                     id="path154"
                     inkscape:connector-curvature="0" /><g
                     transform="translate(295.0728,256.8301)"
                     id="g158"><path
                       d="m 0,0 v -24.288 c 0,-4.698 3.329,-10.465 7.398,-12.815 l 111.222,-64.214 c 4.069,-2.35 10.728,-2.35 14.797,0 l 111.223,64.214 c 4.068,2.35 7.399,8.117 7.399,12.815 V 0"
                       style="fill:none;stroke:#b28c50;stroke-width:2.84200001;stroke-linecap:butt;stroke-linejoin:miter;stroke-miterlimit:10;stroke-dasharray:none;stroke-opacity:1"
                       id="path156"
                       inkscape:connector-curvature="0" /></g><g
                     transform="translate(547.1123,332.2998)"
                     id="g162"><path
                       d="m 0,0 v 29.023 c 0,4.699 -3.33,10.466 -7.398,12.814 l -111.225,64.217 c -4.068,2.35 -10.728,2.35 -14.797,0 L -244.642,41.838 c -4.069,-2.349 -7.399,-8.116 -7.399,-12.815 V 0"
                       style="fill:none;stroke:#b28c50;stroke-width:2.84200001;stroke-linecap:butt;stroke-linejoin:miter;stroke-miterlimit:10;stroke-dasharray:none;stroke-opacity:1"
                       id="path160"
                       inkscape:connector-curvature="0" /></g></g></g></g></g></g></g></g></g></svg>