<?xml version="1.0" encoding="UTF-8"?>
<svg width="185px" height="188px" viewBox="0 0 185 188" version="1.1" xmlns="http://www.w3.org/2000/svg" xmlns:xlink="http://www.w3.org/1999/xlink">
    <!-- Generator: Sketch 48.2 (47327) - http://www.bohemiancoding.com/sketch -->
    <title>logos</title>
    <desc>Created with Sketch.</desc>
    <defs>
        <polygon id="path-1" points="0 0.138983239 0 60.862987 19.3234557 60.862987 19.3234557 0.138983239"></polygon>
        <polygon id="path-3" points="0 0.138983239 0 60.862987 19.3234557 60.862987 19.3234557 0.138983239"></polygon>
        <polygon id="path-5" points="0 0.138983239 0 60.862987 19.3234557 60.862987 19.3234557 0.138983239"></polygon>
    </defs>
    <g id="Page-1" stroke="none" stroke-width="1" fill="none" fill-rule="evenodd">
        <g id="logos">
            <g id="Group">
                <g id="Group-9" transform="translate(97.250279, 31.546017)" fill="#4A4A4A" stroke="#4A4A4A">
                    <path d="M16.0180661,20.9633658 C15.5353544,21.6625146 14.6561428,22.3148795 13.3804048,22.9204802 C12.1046669,23.5260809 10.4964731,23.8288767 8.55577516,23.8288767 C6.05355552,23.8288767 4.00206173,22.9771097 2.40123223,21.27355 C0.80040274,19.5699903 0,17.3642583 0,14.6562877 L0,10.7125175 C0,8.05378274 0.760998298,5.88743877 2.28301772,4.21342058 C3.80503715,2.5394024 5.77772206,1.70240587 8.20113163,1.70240587 C10.5161774,1.70240587 12.3263189,2.28091818 13.6316107,3.43796016 C14.9369024,4.59500213 15.6929752,6.09913414 15.8998516,7.95040131 L15.870298,8.03902536 L14.2300716,8.03902536 C13.9739389,6.60133916 13.3680956,5.43692927 12.4125235,4.54576077 C11.4569515,3.65459226 10.0531682,3.2090147 8.20113163,3.2090147 C6.27028498,3.2090147 4.71627227,3.90815298 3.53904689,5.30645052 C2.36182151,6.70474806 1.77321765,8.49690535 1.77321765,10.6829762 L1.77321765,14.6562877 C1.77321765,16.9014415 2.39876317,18.7428339 3.64987299,20.1805201 C4.90098281,21.6182063 6.53626718,22.3370386 8.55577516,22.3370386 C9.98420763,22.3370386 11.198357,22.1376365 12.1982597,21.7388262 C13.1981625,21.340016 13.8803519,20.9042855 14.2448484,20.4316215 L14.2448484,14.8187651 L8.52622153,14.8187651 L8.52622153,13.3121563 L16.0180661,13.3121563 L16.0180661,20.9633658 Z M31.0017552,23.5186926 C30.8835401,22.9770984 30.7998057,22.5093651 30.7505494,22.1154785 C30.7012931,21.7215918 30.6766653,21.3227876 30.6766653,20.9190538 C30.0855898,21.7560629 29.297501,22.4502777 28.3123751,23.0017189 C27.3272493,23.5531602 26.2189993,23.8288767 24.987592,23.8288767 C23.4310932,23.8288767 22.2218694,23.415302 21.3598843,22.58814 C20.4978991,21.7609781 20.0669131,20.6531886 20.0669131,19.2647382 C20.0669131,17.7876633 20.7047725,16.6060212 21.9805104,15.7197763 C23.2562484,14.8335313 24.97773,14.3904155 27.1450068,14.3904155 L30.6766653,14.3904155 L30.6766653,12.4111451 C30.6766653,11.2688739 30.3097115,10.3727952 29.5757927,9.72288229 C28.8418739,9.07296935 27.8148957,8.74801775 26.494827,8.74801775 C25.2634197,8.74801775 24.241367,9.05819882 23.4286382,9.67857026 C22.6159094,10.2989417 22.2095511,11.0571621 22.2095511,11.9532542 L20.5841015,11.9384835 L20.5545479,11.8498595 C20.4954404,10.6583524 21.0397142,9.5924127 22.1873858,8.65200836 C23.3350574,7.71160403 24.7954846,7.24140892 26.5687111,7.24140892 C28.3320864,7.24140892 29.7506463,7.68944824 30.8244335,8.58554033 C31.8982206,9.48163241 32.4351062,10.7666683 32.4351062,12.4406865 L32.4351062,20.2986855 C32.4351062,20.8599739 32.4671223,21.4064834 32.5311554,21.9382304 C32.5951886,22.4699773 32.7010881,22.9967928 32.8488569,23.5186926 L31.0017552,23.5186926 Z M25.1944674,22.2631852 C26.4652798,22.2631852 27.5883064,21.9653129 28.563581,21.3695594 C29.5388555,20.7738058 30.24321,20.0131237 30.6766653,19.0874901 L30.6766653,15.7493176 L27.1154532,15.7493176 C25.5096981,15.7493176 24.2265909,16.0915015 23.2660932,16.7758795 C22.3055955,17.4602575 21.8253539,18.3095628 21.8253539,19.3238209 C21.8253539,20.1903715 22.12335,20.896895 22.7193511,21.4434127 C23.3153523,21.9899305 24.1403828,22.2631852 25.1944674,22.2631852 Z M39.1290028,23.5186926 L37.3705619,23.5186926 L37.3705619,0.476439857 L39.1290028,0.476439857 L39.1290028,23.5186926 Z M46.0002212,23.5186926 L44.2417803,23.5186926 L44.2417803,7.53682242 L46.0002212,7.53682242 L46.0002212,23.5186926 Z M46.0002212,2.95791322 L44.2417803,2.95791322 L44.2417803,0.476439857 L46.0002212,0.476439857 L46.0002212,2.95791322 Z M56.8168488,22.3370386 C57.9891486,22.3370386 59.0235152,22.00224 59.9199797,21.3326327 C60.8164442,20.6630254 61.2646698,19.7324822 61.2646698,18.5409751 L62.831012,18.5409751 L62.8605656,18.6295992 C62.9098219,20.1066741 62.3187553,21.3424748 61.087348,22.3370386 C59.8559407,23.3316023 58.4324552,23.8288767 56.8168488,23.8288767 C54.6397207,23.8288767 52.9576436,23.0829651 51.7705669,21.5911195 C50.5834903,20.0992739 49.9899609,18.1815671 49.9899609,15.8379417 L49.9899609,15.2175733 C49.9899609,12.8936422 50.5859531,10.9833207 51.7779553,9.48655149 C52.9699576,7.98978229 54.6446464,7.24140892 56.802072,7.24140892 C58.555596,7.24140892 60.0160232,7.75837737 61.1833973,8.79232977 C62.3507714,9.82628218 62.9147475,11.1851707 62.8753425,12.869036 L62.8457888,12.9576601 L61.2646698,12.9576601 C61.2646698,11.6775285 60.8336837,10.6559004 59.9716986,9.89274505 C59.1097135,9.1295897 58.0531818,8.74801775 56.802072,8.74801775 C55.0879531,8.74801775 53.8196226,9.36099463 52.9970425,10.5869668 C52.1744624,11.8129389 51.7631785,13.356459 51.7631785,15.2175733 L51.7631785,15.8379417 C51.7631785,17.7285975 52.1719996,19.2844263 52.9896541,20.5054749 C53.8073085,21.7265235 55.0830273,22.3370386 56.8168488,22.3370386 Z M68.5496389,23.5186926 L66.7911981,23.5186926 L66.7911981,7.53682242 L68.5496389,7.53682242 L68.5496389,23.5186926 Z M68.5496389,2.95791322 L66.7911981,2.95791322 L66.7911981,0.476439857 L68.5496389,0.476439857 L68.5496389,2.95791322 Z M83.5628817,23.5186926 C83.4446666,22.9770984 83.3609322,22.5093651 83.3116759,22.1154785 C83.2624196,21.7215918 83.2377918,21.3227876 83.2377918,20.9190538 C82.6467163,21.7560629 81.8586274,22.4502777 80.8735016,23.0017189 C79.8883758,23.5531602 78.7801258,23.8288767 77.5487185,23.8288767 C75.9922197,23.8288767 74.7829958,23.415302 73.9210107,22.58814 C73.0590256,21.7609781 72.6280395,20.6531886 72.6280395,19.2647382 C72.6280395,17.7876633 73.2658989,16.6060212 74.5416369,15.7197763 C75.8173749,14.8335313 77.5388565,14.3904155 79.7061333,14.3904155 L83.2377918,14.3904155 L83.2377918,12.4111451 C83.2377918,11.2688739 82.8708379,10.3727952 82.1369192,9.72288229 C81.4030004,9.07296935 80.3760221,8.74801775 79.0559535,8.74801775 C77.8245462,8.74801775 76.8024935,9.05819882 75.9897647,9.67857026 C75.1770358,10.2989417 74.7706775,11.0571621 74.7706775,11.9532542 L73.145228,11.9384835 L73.1156744,11.8498595 C73.0565668,10.6583524 73.6008407,9.5924127 74.7485123,8.65200836 C75.8961839,7.71160403 77.3566111,7.24140892 79.1298376,7.24140892 C80.8932128,7.24140892 82.3117728,7.68944824 83.3855599,8.58554033 C84.4593471,9.48163241 84.9962326,10.7666683 84.9962326,12.4406865 L84.9962326,20.2986855 C84.9962326,20.8599739 85.0282487,21.4064834 85.0922819,21.9382304 C85.1563151,22.4699773 85.2622145,22.9967928 85.4099834,23.5186926 L83.5628817,23.5186926 Z M77.7555939,22.2631852 C79.0264062,22.2631852 80.1494328,21.9653129 81.1247074,21.3695594 C82.099982,20.7738058 82.8043364,20.0131237 83.2377918,19.0874901 L83.2377918,15.7493176 L79.6765797,15.7493176 C78.0708246,15.7493176 76.7877174,16.0915015 75.8272197,16.7758795 C74.866722,17.4602575 74.3864804,18.3095628 74.3864804,19.3238209 C74.3864804,20.1903715 74.6844765,20.896895 75.2804776,21.4434127 C75.8764787,21.9899305 76.7015092,22.2631852 77.7555939,22.2631852 Z" id="Galicia"></path>
                </g>
                <g id="Group-5" transform="translate(0.000000, 0.187992)">
                    <polygon id="Fill-1" fill="#4285F4" points="13.783504 48.9876543 25.2697574 48.9876543 25.2697574 13.0123457 13.783504 13.0123457"></polygon>
                    <polygon id="Fill-2" fill="#00BFA5" points="46.7107637 48.9876543 58.1970171 48.9876543 58.1970171 13.0123457 46.7107637 13.0123457"></polygon>
                    <polygon id="Fill-3" fill="#1CE9B6" points="47.1506315 48.9876543 58.1970171 48.9876543 41.6786791 18.3703704 30.630009 18.3703704"></polygon>
                    <polygon id="Fill-4" fill="#4FC3F7" points="24.8309347 48.9876543 13.783504 48.9876543 30.3050398 18.3703704 41.3505121 18.3703704"></polygon>
                    <g id="Group-7">
                        <mask id="mask-2" fill="white">
                            <use xlink:href="#path-1"></use>
                        </mask>
                        <g id="Clip-6"></g>
                        <path d="M7.13429644,53.9095748 L7.13429644,7.21696053 L19.3234557,7.21696053 L19.3234557,0.138983239 L2.81113863,0.138983239 C1.26663653,0.138983239 -9.87322887e-05,1.39673088 -9.87322887e-05,2.92911018 L-9.87322887e-05,57.7763232 C-9.87322887e-05,59.3090295 1.26663653,60.862987 2.81113863,60.862987 L19.3234557,60.862987 L19.3234557,53.9095748 L7.13429644,53.9095748 Z" id="Fill-5" fill="#4285F4" mask="url(#mask-2)"></path>
                    </g>
                    <path d="M64.911566,53.5449081 L64.911566,7.04826994 L52.8367655,7.04826994 L52.8367655,0 L69.1981918,0 C70.7253105,0 71.9805211,1.25246868 71.9805211,2.77841636 L71.9805211,57.3954272 C71.9805211,58.9217005 70.7253105,60.4691358 69.1981918,60.4691358 L52.8367655,60.4691358 L52.8367655,53.5449081 L64.911566,53.5449081 Z" id="Fill-8" fill="#00BFA5"></path>
                </g>
                <path d="M101.113839,18.0691964 L101.580357,20.4335938 L101.643973,20.4441964 L102.227121,18.0691964 L105.492746,7 L106.690848,7 L109.956473,18.0691964 L110.518415,20.4547991 L110.582031,20.4441964 L111.080357,18.0691964 L113.868862,7 L115.162388,7 L111.196987,22.4375 L109.998884,22.4375 L106.531808,10.594308 L106.128906,8.97209821 L106.06529,8.97209821 L105.672991,10.594308 L102.174107,22.4375 L100.965402,22.4375 L97,7 L98.3041295,7 L101.113839,18.0691964 Z M128.362723,8.08147321 L123.050781,8.08147321 L123.050781,22.4375 L121.77846,22.4375 L121.77846,8.08147321 L116.466518,8.08147321 L116.466518,7 L128.362723,7 L128.362723,8.08147321 Z M132.540179,7 L138.212612,20.5926339 L138.276228,20.5926339 L143.969866,7 L145.645089,7 L145.645089,22.4375 L144.383371,22.4375 L144.383371,15.6199777 L144.489397,8.86607143 L144.425781,8.84486607 L138.689732,22.4375 L137.80971,22.4375 L132.084263,8.90848214 L132.020647,8.91908482 L132.137277,15.6199777 L132.137277,22.4375 L130.875558,22.4375 L130.875558,7 L132.540179,7 Z" id="WTM" fill="#4A4A4A"></path>
            </g>
            <g id="Group" transform="translate(1.000000, 126.000000)">
                <g id="Group-9" transform="translate(97.250279, 31.546017)" fill="#E6E6E5" stroke="#E6E6E5">
                    <path d="M16.0180661,20.9633658 C15.5353544,21.6625146 14.6561428,22.3148795 13.3804048,22.9204802 C12.1046669,23.5260809 10.4964731,23.8288767 8.55577516,23.8288767 C6.05355552,23.8288767 4.00206173,22.9771097 2.40123223,21.27355 C0.80040274,19.5699903 0,17.3642583 0,14.6562877 L0,10.7125175 C0,8.05378274 0.760998298,5.88743877 2.28301772,4.21342058 C3.80503715,2.5394024 5.77772206,1.70240587 8.20113163,1.70240587 C10.5161774,1.70240587 12.3263189,2.28091818 13.6316107,3.43796016 C14.9369024,4.59500213 15.6929752,6.09913414 15.8998516,7.95040131 L15.870298,8.03902536 L14.2300716,8.03902536 C13.9739389,6.60133916 13.3680956,5.43692927 12.4125235,4.54576077 C11.4569515,3.65459226 10.0531682,3.2090147 8.20113163,3.2090147 C6.27028498,3.2090147 4.71627227,3.90815298 3.53904689,5.30645052 C2.36182151,6.70474806 1.77321765,8.49690535 1.77321765,10.6829762 L1.77321765,14.6562877 C1.77321765,16.9014415 2.39876317,18.7428339 3.64987299,20.1805201 C4.90098281,21.6182063 6.53626718,22.3370386 8.55577516,22.3370386 C9.98420763,22.3370386 11.198357,22.1376365 12.1982597,21.7388262 C13.1981625,21.340016 13.8803519,20.9042855 14.2448484,20.4316215 L14.2448484,14.8187651 L8.52622153,14.8187651 L8.52622153,13.3121563 L16.0180661,13.3121563 L16.0180661,20.9633658 Z M31.0017552,23.5186926 C30.8835401,22.9770984 30.7998057,22.5093651 30.7505494,22.1154785 C30.7012931,21.7215918 30.6766653,21.3227876 30.6766653,20.9190538 C30.0855898,21.7560629 29.297501,22.4502777 28.3123751,23.0017189 C27.3272493,23.5531602 26.2189993,23.8288767 24.987592,23.8288767 C23.4310932,23.8288767 22.2218694,23.415302 21.3598843,22.58814 C20.4978991,21.7609781 20.0669131,20.6531886 20.0669131,19.2647382 C20.0669131,17.7876633 20.7047725,16.6060212 21.9805104,15.7197763 C23.2562484,14.8335313 24.97773,14.3904155 27.1450068,14.3904155 L30.6766653,14.3904155 L30.6766653,12.4111451 C30.6766653,11.2688739 30.3097115,10.3727952 29.5757927,9.72288229 C28.8418739,9.07296935 27.8148957,8.74801775 26.494827,8.74801775 C25.2634197,8.74801775 24.241367,9.05819882 23.4286382,9.67857026 C22.6159094,10.2989417 22.2095511,11.0571621 22.2095511,11.9532542 L20.5841015,11.9384835 L20.5545479,11.8498595 C20.4954404,10.6583524 21.0397142,9.5924127 22.1873858,8.65200836 C23.3350574,7.71160403 24.7954846,7.24140892 26.5687111,7.24140892 C28.3320864,7.24140892 29.7506463,7.68944824 30.8244335,8.58554033 C31.8982206,9.48163241 32.4351062,10.7666683 32.4351062,12.4406865 L32.4351062,20.2986855 C32.4351062,20.8599739 32.4671223,21.4064834 32.5311554,21.9382304 C32.5951886,22.4699773 32.7010881,22.9967928 32.8488569,23.5186926 L31.0017552,23.5186926 Z M25.1944674,22.2631852 C26.4652798,22.2631852 27.5883064,21.9653129 28.563581,21.3695594 C29.5388555,20.7738058 30.24321,20.0131237 30.6766653,19.0874901 L30.6766653,15.7493176 L27.1154532,15.7493176 C25.5096981,15.7493176 24.2265909,16.0915015 23.2660932,16.7758795 C22.3055955,17.4602575 21.8253539,18.3095628 21.8253539,19.3238209 C21.8253539,20.1903715 22.12335,20.896895 22.7193511,21.4434127 C23.3153523,21.9899305 24.1403828,22.2631852 25.1944674,22.2631852 Z M39.1290028,23.5186926 L37.3705619,23.5186926 L37.3705619,0.476439857 L39.1290028,0.476439857 L39.1290028,23.5186926 Z M46.0002212,23.5186926 L44.2417803,23.5186926 L44.2417803,7.53682242 L46.0002212,7.53682242 L46.0002212,23.5186926 Z M46.0002212,2.95791322 L44.2417803,2.95791322 L44.2417803,0.476439857 L46.0002212,0.476439857 L46.0002212,2.95791322 Z M56.8168488,22.3370386 C57.9891486,22.3370386 59.0235152,22.00224 59.9199797,21.3326327 C60.8164442,20.6630254 61.2646698,19.7324822 61.2646698,18.5409751 L62.831012,18.5409751 L62.8605656,18.6295992 C62.9098219,20.1066741 62.3187553,21.3424748 61.087348,22.3370386 C59.8559407,23.3316023 58.4324552,23.8288767 56.8168488,23.8288767 C54.6397207,23.8288767 52.9576436,23.0829651 51.7705669,21.5911195 C50.5834903,20.0992739 49.9899609,18.1815671 49.9899609,15.8379417 L49.9899609,15.2175733 C49.9899609,12.8936422 50.5859531,10.9833207 51.7779553,9.48655149 C52.9699576,7.98978229 54.6446464,7.24140892 56.802072,7.24140892 C58.555596,7.24140892 60.0160232,7.75837737 61.1833973,8.79232977 C62.3507714,9.82628218 62.9147475,11.1851707 62.8753425,12.869036 L62.8457888,12.9576601 L61.2646698,12.9576601 C61.2646698,11.6775285 60.8336837,10.6559004 59.9716986,9.89274505 C59.1097135,9.1295897 58.0531818,8.74801775 56.802072,8.74801775 C55.0879531,8.74801775 53.8196226,9.36099463 52.9970425,10.5869668 C52.1744624,11.8129389 51.7631785,13.356459 51.7631785,15.2175733 L51.7631785,15.8379417 C51.7631785,17.7285975 52.1719996,19.2844263 52.9896541,20.5054749 C53.8073085,21.7265235 55.0830273,22.3370386 56.8168488,22.3370386 Z M68.5496389,23.5186926 L66.7911981,23.5186926 L66.7911981,7.53682242 L68.5496389,7.53682242 L68.5496389,23.5186926 Z M68.5496389,2.95791322 L66.7911981,2.95791322 L66.7911981,0.476439857 L68.5496389,0.476439857 L68.5496389,2.95791322 Z M83.5628817,23.5186926 C83.4446666,22.9770984 83.3609322,22.5093651 83.3116759,22.1154785 C83.2624196,21.7215918 83.2377918,21.3227876 83.2377918,20.9190538 C82.6467163,21.7560629 81.8586274,22.4502777 80.8735016,23.0017189 C79.8883758,23.5531602 78.7801258,23.8288767 77.5487185,23.8288767 C75.9922197,23.8288767 74.7829958,23.415302 73.9210107,22.58814 C73.0590256,21.7609781 72.6280395,20.6531886 72.6280395,19.2647382 C72.6280395,17.7876633 73.2658989,16.6060212 74.5416369,15.7197763 C75.8173749,14.8335313 77.5388565,14.3904155 79.7061333,14.3904155 L83.2377918,14.3904155 L83.2377918,12.4111451 C83.2377918,11.2688739 82.8708379,10.3727952 82.1369192,9.72288229 C81.4030004,9.07296935 80.3760221,8.74801775 79.0559535,8.74801775 C77.8245462,8.74801775 76.8024935,9.05819882 75.9897647,9.67857026 C75.1770358,10.2989417 74.7706775,11.0571621 74.7706775,11.9532542 L73.145228,11.9384835 L73.1156744,11.8498595 C73.0565668,10.6583524 73.6008407,9.5924127 74.7485123,8.65200836 C75.8961839,7.71160403 77.3566111,7.24140892 79.1298376,7.24140892 C80.8932128,7.24140892 82.3117728,7.68944824 83.3855599,8.58554033 C84.4593471,9.48163241 84.9962326,10.7666683 84.9962326,12.4406865 L84.9962326,20.2986855 C84.9962326,20.8599739 85.0282487,21.4064834 85.0922819,21.9382304 C85.1563151,22.4699773 85.2622145,22.9967928 85.4099834,23.5186926 L83.5628817,23.5186926 Z M77.7555939,22.2631852 C79.0264062,22.2631852 80.1494328,21.9653129 81.1247074,21.3695594 C82.099982,20.7738058 82.8043364,20.0131237 83.2377918,19.0874901 L83.2377918,15.7493176 L79.6765797,15.7493176 C78.0708246,15.7493176 76.7877174,16.0915015 75.8272197,16.7758795 C74.866722,17.4602575 74.3864804,18.3095628 74.3864804,19.3238209 C74.3864804,20.1903715 74.6844765,20.896895 75.2804776,21.4434127 C75.8764787,21.9899305 76.7015092,22.2631852 77.7555939,22.2631852 Z" id="Galicia"></path>
                </g>
                <g id="Group-5" transform="translate(0.000000, 0.187992)">
                    <polygon id="Fill-1" fill="#4285F4" points="13.783504 48.9876543 25.2697574 48.9876543 25.2697574 13.0123457 13.783504 13.0123457"></polygon>
                    <polygon id="Fill-2" fill="#00BFA5" points="46.7107637 48.9876543 58.1970171 48.9876543 58.1970171 13.0123457 46.7107637 13.0123457"></polygon>
                    <polygon id="Fill-3" fill="#1CE9B6" points="47.1506315 48.9876543 58.1970171 48.9876543 41.6786791 18.3703704 30.630009 18.3703704"></polygon>
                    <polygon id="Fill-4" fill="#4FC3F7" points="24.8309347 48.9876543 13.783504 48.9876543 30.3050398 18.3703704 41.3505121 18.3703704"></polygon>
                    <g id="Group-7">
                        <mask id="mask-4" fill="white">
                            <use xlink:href="#path-3"></use>
                        </mask>
                        <g id="Clip-6"></g>
                        <path d="M7.13429644,53.9095748 L7.13429644,7.21696053 L19.3234557,7.21696053 L19.3234557,0.138983239 L2.81113863,0.138983239 C1.26663653,0.138983239 -9.87322887e-05,1.39673088 -9.87322887e-05,2.92911018 L-9.87322887e-05,57.7763232 C-9.87322887e-05,59.3090295 1.26663653,60.862987 2.81113863,60.862987 L19.3234557,60.862987 L19.3234557,53.9095748 L7.13429644,53.9095748 Z" id="Fill-5" fill="#4285F4" mask="url(#mask-4)"></path>
                    </g>
                    <path d="M64.911566,53.5449081 L64.911566,7.04826994 L52.8367655,7.04826994 L52.8367655,0 L69.1981918,0 C70.7253105,0 71.9805211,1.25246868 71.9805211,2.77841636 L71.9805211,57.3954272 C71.9805211,58.9217005 70.7253105,60.4691358 69.1981918,60.4691358 L52.8367655,60.4691358 L52.8367655,53.5449081 L64.911566,53.5449081 Z" id="Fill-8" fill="#00BFA5"></path>
                </g>
                <path d="M101.113839,18.0691964 L101.580357,20.4335938 L101.643973,20.4441964 L102.227121,18.0691964 L105.492746,7 L106.690848,7 L109.956473,18.0691964 L110.518415,20.4547991 L110.582031,20.4441964 L111.080357,18.0691964 L113.868862,7 L115.162388,7 L111.196987,22.4375 L109.998884,22.4375 L106.531808,10.594308 L106.128906,8.97209821 L106.06529,8.97209821 L105.672991,10.594308 L102.174107,22.4375 L100.965402,22.4375 L97,7 L98.3041295,7 L101.113839,18.0691964 Z M128.362723,8.08147321 L123.050781,8.08147321 L123.050781,22.4375 L121.77846,22.4375 L121.77846,8.08147321 L116.466518,8.08147321 L116.466518,7 L128.362723,7 L128.362723,8.08147321 Z M132.540179,7 L138.212612,20.5926339 L138.276228,20.5926339 L143.969866,7 L145.645089,7 L145.645089,22.4375 L144.383371,22.4375 L144.383371,15.6199777 L144.489397,8.86607143 L144.425781,8.84486607 L138.689732,22.4375 L137.80971,22.4375 L132.084263,8.90848214 L132.020647,8.91908482 L132.137277,15.6199777 L132.137277,22.4375 L130.875558,22.4375 L130.875558,7 L132.540179,7 Z" id="WTM" fill="#E6E6E5"></path>
            </g>
            <g id="Group" transform="translate(0.000000, 62.000000)">
                <g id="Group-9" transform="translate(97.250279, 31.546017)" fill="#4A4A4A" stroke="#4A4A4A">
                    <path d="M16.0180661,20.9633658 C15.5353544,21.6625146 14.6561428,22.3148795 13.3804048,22.9204802 C12.1046669,23.5260809 10.4964731,23.8288767 8.55577516,23.8288767 C6.05355552,23.8288767 4.00206173,22.9771097 2.40123223,21.27355 C0.80040274,19.5699903 0,17.3642583 0,14.6562877 L0,10.7125175 C0,8.05378274 0.760998298,5.88743877 2.28301772,4.21342058 C3.80503715,2.5394024 5.77772206,1.70240587 8.20113163,1.70240587 C10.5161774,1.70240587 12.3263189,2.28091818 13.6316107,3.43796016 C14.9369024,4.59500213 15.6929752,6.09913414 15.8998516,7.95040131 L15.870298,8.03902536 L14.2300716,8.03902536 C13.9739389,6.60133916 13.3680956,5.43692927 12.4125235,4.54576077 C11.4569515,3.65459226 10.0531682,3.2090147 8.20113163,3.2090147 C6.27028498,3.2090147 4.71627227,3.90815298 3.53904689,5.30645052 C2.36182151,6.70474806 1.77321765,8.49690535 1.77321765,10.6829762 L1.77321765,14.6562877 C1.77321765,16.9014415 2.39876317,18.7428339 3.64987299,20.1805201 C4.90098281,21.6182063 6.53626718,22.3370386 8.55577516,22.3370386 C9.98420763,22.3370386 11.198357,22.1376365 12.1982597,21.7388262 C13.1981625,21.340016 13.8803519,20.9042855 14.2448484,20.4316215 L14.2448484,14.8187651 L8.52622153,14.8187651 L8.52622153,13.3121563 L16.0180661,13.3121563 L16.0180661,20.9633658 Z M31.0017552,23.5186926 C30.8835401,22.9770984 30.7998057,22.5093651 30.7505494,22.1154785 C30.7012931,21.7215918 30.6766653,21.3227876 30.6766653,20.9190538 C30.0855898,21.7560629 29.297501,22.4502777 28.3123751,23.0017189 C27.3272493,23.5531602 26.2189993,23.8288767 24.987592,23.8288767 C23.4310932,23.8288767 22.2218694,23.415302 21.3598843,22.58814 C20.4978991,21.7609781 20.0669131,20.6531886 20.0669131,19.2647382 C20.0669131,17.7876633 20.7047725,16.6060212 21.9805104,15.7197763 C23.2562484,14.8335313 24.97773,14.3904155 27.1450068,14.3904155 L30.6766653,14.3904155 L30.6766653,12.4111451 C30.6766653,11.2688739 30.3097115,10.3727952 29.5757927,9.72288229 C28.8418739,9.07296935 27.8148957,8.74801775 26.494827,8.74801775 C25.2634197,8.74801775 24.241367,9.05819882 23.4286382,9.67857026 C22.6159094,10.2989417 22.2095511,11.0571621 22.2095511,11.9532542 L20.5841015,11.9384835 L20.5545479,11.8498595 C20.4954404,10.6583524 21.0397142,9.5924127 22.1873858,8.65200836 C23.3350574,7.71160403 24.7954846,7.24140892 26.5687111,7.24140892 C28.3320864,7.24140892 29.7506463,7.68944824 30.8244335,8.58554033 C31.8982206,9.48163241 32.4351062,10.7666683 32.4351062,12.4406865 L32.4351062,20.2986855 C32.4351062,20.8599739 32.4671223,21.4064834 32.5311554,21.9382304 C32.5951886,22.4699773 32.7010881,22.9967928 32.8488569,23.5186926 L31.0017552,23.5186926 Z M25.1944674,22.2631852 C26.4652798,22.2631852 27.5883064,21.9653129 28.563581,21.3695594 C29.5388555,20.7738058 30.24321,20.0131237 30.6766653,19.0874901 L30.6766653,15.7493176 L27.1154532,15.7493176 C25.5096981,15.7493176 24.2265909,16.0915015 23.2660932,16.7758795 C22.3055955,17.4602575 21.8253539,18.3095628 21.8253539,19.3238209 C21.8253539,20.1903715 22.12335,20.896895 22.7193511,21.4434127 C23.3153523,21.9899305 24.1403828,22.2631852 25.1944674,22.2631852 Z M39.1290028,23.5186926 L37.3705619,23.5186926 L37.3705619,0.476439857 L39.1290028,0.476439857 L39.1290028,23.5186926 Z M46.0002212,23.5186926 L44.2417803,23.5186926 L44.2417803,7.53682242 L46.0002212,7.53682242 L46.0002212,23.5186926 Z M46.0002212,2.95791322 L44.2417803,2.95791322 L44.2417803,0.476439857 L46.0002212,0.476439857 L46.0002212,2.95791322 Z M56.8168488,22.3370386 C57.9891486,22.3370386 59.0235152,22.00224 59.9199797,21.3326327 C60.8164442,20.6630254 61.2646698,19.7324822 61.2646698,18.5409751 L62.831012,18.5409751 L62.8605656,18.6295992 C62.9098219,20.1066741 62.3187553,21.3424748 61.087348,22.3370386 C59.8559407,23.3316023 58.4324552,23.8288767 56.8168488,23.8288767 C54.6397207,23.8288767 52.9576436,23.0829651 51.7705669,21.5911195 C50.5834903,20.0992739 49.9899609,18.1815671 49.9899609,15.8379417 L49.9899609,15.2175733 C49.9899609,12.8936422 50.5859531,10.9833207 51.7779553,9.48655149 C52.9699576,7.98978229 54.6446464,7.24140892 56.802072,7.24140892 C58.555596,7.24140892 60.0160232,7.75837737 61.1833973,8.79232977 C62.3507714,9.82628218 62.9147475,11.1851707 62.8753425,12.869036 L62.8457888,12.9576601 L61.2646698,12.9576601 C61.2646698,11.6775285 60.8336837,10.6559004 59.9716986,9.89274505 C59.1097135,9.1295897 58.0531818,8.74801775 56.802072,8.74801775 C55.0879531,8.74801775 53.8196226,9.36099463 52.9970425,10.5869668 C52.1744624,11.8129389 51.7631785,13.356459 51.7631785,15.2175733 L51.7631785,15.8379417 C51.7631785,17.7285975 52.1719996,19.2844263 52.9896541,20.5054749 C53.8073085,21.7265235 55.0830273,22.3370386 56.8168488,22.3370386 Z M68.5496389,23.5186926 L66.7911981,23.5186926 L66.7911981,7.53682242 L68.5496389,7.53682242 L68.5496389,23.5186926 Z M68.5496389,2.95791322 L66.7911981,2.95791322 L66.7911981,0.476439857 L68.5496389,0.476439857 L68.5496389,2.95791322 Z M83.5628817,23.5186926 C83.4446666,22.9770984 83.3609322,22.5093651 83.3116759,22.1154785 C83.2624196,21.7215918 83.2377918,21.3227876 83.2377918,20.9190538 C82.6467163,21.7560629 81.8586274,22.4502777 80.8735016,23.0017189 C79.8883758,23.5531602 78.7801258,23.8288767 77.5487185,23.8288767 C75.9922197,23.8288767 74.7829958,23.415302 73.9210107,22.58814 C73.0590256,21.7609781 72.6280395,20.6531886 72.6280395,19.2647382 C72.6280395,17.7876633 73.2658989,16.6060212 74.5416369,15.7197763 C75.8173749,14.8335313 77.5388565,14.3904155 79.7061333,14.3904155 L83.2377918,14.3904155 L83.2377918,12.4111451 C83.2377918,11.2688739 82.8708379,10.3727952 82.1369192,9.72288229 C81.4030004,9.07296935 80.3760221,8.74801775 79.0559535,8.74801775 C77.8245462,8.74801775 76.8024935,9.05819882 75.9897647,9.67857026 C75.1770358,10.2989417 74.7706775,11.0571621 74.7706775,11.9532542 L73.145228,11.9384835 L73.1156744,11.8498595 C73.0565668,10.6583524 73.6008407,9.5924127 74.7485123,8.65200836 C75.8961839,7.71160403 77.3566111,7.24140892 79.1298376,7.24140892 C80.8932128,7.24140892 82.3117728,7.68944824 83.3855599,8.58554033 C84.4593471,9.48163241 84.9962326,10.7666683 84.9962326,12.4406865 L84.9962326,20.2986855 C84.9962326,20.8599739 85.0282487,21.4064834 85.0922819,21.9382304 C85.1563151,22.4699773 85.2622145,22.9967928 85.4099834,23.5186926 L83.5628817,23.5186926 Z M77.7555939,22.2631852 C79.0264062,22.2631852 80.1494328,21.9653129 81.1247074,21.3695594 C82.099982,20.7738058 82.8043364,20.0131237 83.2377918,19.0874901 L83.2377918,15.7493176 L79.6765797,15.7493176 C78.0708246,15.7493176 76.7877174,16.0915015 75.8272197,16.7758795 C74.866722,17.4602575 74.3864804,18.3095628 74.3864804,19.3238209 C74.3864804,20.1903715 74.6844765,20.896895 75.2804776,21.4434127 C75.8764787,21.9899305 76.7015092,22.2631852 77.7555939,22.2631852 Z" id="Galicia"></path>
                </g>
                <g id="Group-5" transform="translate(0.000000, 0.187992)">
                    <polygon id="Fill-1" fill="#585858" points="13.783504 48.9876543 25.2697574 48.9876543 25.2697574 13.0123457 13.783504 13.0123457"></polygon>
                    <polygon id="Fill-2" fill="#848484" points="46.7107637 48.9876543 58.1970171 48.9876543 58.1970171 13.0123457 46.7107637 13.0123457"></polygon>
                    <polygon id="Fill-3" fill="#CACACA" points="47.1506315 48.9876543 58.1970171 48.9876543 41.6786791 18.3703704 30.630009 18.3703704"></polygon>
                    <polygon id="Fill-4" fill="#999999" points="24.8309347 48.9876543 13.783504 48.9876543 30.3050398 18.3703704 41.3505121 18.3703704"></polygon>
                    <g id="Group-7">
                        <mask id="mask-6" fill="white">
                            <use xlink:href="#path-5"></use>
                        </mask>
                        <g id="Clip-6"></g>
                        <path d="M7.13429644,53.9095748 L7.13429644,7.21696053 L19.3234557,7.21696053 L19.3234557,0.138983239 L2.81113863,0.138983239 C1.26663653,0.138983239 -9.87322887e-05,1.39673088 -9.87322887e-05,2.92911018 L-9.87322887e-05,57.7763232 C-9.87322887e-05,59.3090295 1.26663653,60.862987 2.81113863,60.862987 L19.3234557,60.862987 L19.3234557,53.9095748 L7.13429644,53.9095748 Z" id="Fill-5" fill="#585858" mask="url(#mask-6)"></path>
                    </g>
                    <path d="M64.911566,53.5449081 L64.911566,7.04826994 L52.8367655,7.04826994 L52.8367655,0 L69.1981918,0 C70.7253105,0 71.9805211,1.25246868 71.9805211,2.77841636 L71.9805211,57.3954272 C71.9805211,58.9217005 70.7253105,60.4691358 69.1981918,60.4691358 L52.8367655,60.4691358 L52.8367655,53.5449081 L64.911566,53.5449081 Z" id="Fill-8" fill="#848484"></path>
                </g>
                <path d="M101.113839,18.0691964 L101.580357,20.4335938 L101.643973,20.4441964 L102.227121,18.0691964 L105.492746,7 L106.690848,7 L109.956473,18.0691964 L110.518415,20.4547991 L110.582031,20.4441964 L111.080357,18.0691964 L113.868862,7 L115.162388,7 L111.196987,22.4375 L109.998884,22.4375 L106.531808,10.594308 L106.128906,8.97209821 L106.06529,8.97209821 L105.672991,10.594308 L102.174107,22.4375 L100.965402,22.4375 L97,7 L98.3041295,7 L101.113839,18.0691964 Z M128.362723,8.08147321 L123.050781,8.08147321 L123.050781,22.4375 L121.77846,22.4375 L121.77846,8.08147321 L116.466518,8.08147321 L116.466518,7 L128.362723,7 L128.362723,8.08147321 Z M132.540179,7 L138.212612,20.5926339 L138.276228,20.5926339 L143.969866,7 L145.645089,7 L145.645089,22.4375 L144.383371,22.4375 L144.383371,15.6199777 L144.489397,8.86607143 L144.425781,8.84486607 L138.689732,22.4375 L137.80971,22.4375 L132.084263,8.90848214 L132.020647,8.91908482 L132.137277,15.6199777 L132.137277,22.4375 L130.875558,22.4375 L130.875558,7 L132.540179,7 Z" id="WTM" fill="#4A4A4A"></path>
            </g>
        </g>
    </g>
</svg>